<?xml version="1.0" encoding="utf-8"?>
<!-- Generator: Adobe Illustrator 26.3.1, SVG Export Plug-In . SVG Version: 6.00 Build 0)  -->
<svg version="1.1" id="Layer_1" xmlns="http://www.w3.org/2000/svg" xmlns:xlink="http://www.w3.org/1999/xlink" x="0px" y="0px"
	 viewBox="0 0 1036.7 986.1" style="enable-background:new 0 0 1036.7 986.1;" xml:space="preserve">
<style type="text/css">
	.st0{display:none;}
	.st1{display:inline;opacity:0.56;}
	.st2{clip-path:url(#SVGID_00000083808916331104980590000004653300964102867635_);}
	.st3{clip-path:url(#SVGID_00000164480688142740176020000014000932277617819304_);}
	.st4{display:inline;opacity:0.43;}
	.st5{clip-path:url(#SVGID_00000072979562897278902330000006078863088704211587_);}
	.st6{clip-path:url(#SVGID_00000096042035077677197980000016044925991646672062_);}
	.st7{fill:none;stroke:#000000;stroke-width:2;stroke-linecap:round;stroke-miterlimit:10;}
	.st8{stroke:#000000;stroke-width:2;stroke-miterlimit:10;}
	.st9{fill:none;stroke:#000000;stroke-width:2;stroke-miterlimit:10;}
</style>
<g id="Layer_1_1_" class="st0">
	<g class="st1">
		<g>
			<g>
				<g>
					<g>
						<defs>
							<rect id="SVGID_1_" x="797.8" y="274.3" width="539" height="345.8"/>
						</defs>
						<clipPath id="SVGID_00000062154700102349044060000006250376873283197602_">
							<use xlink:href="#SVGID_1_"  style="overflow:visible;"/>
						</clipPath>
						<g style="clip-path:url(#SVGID_00000062154700102349044060000006250376873283197602_);">
							<g>
								<g>
									<g>
										<defs>
											<rect id="SVGID_00000163772207960134614390000006461447257016920207_" x="797.8" y="274.1" width="539.1" height="346"/>
										</defs>
										<clipPath id="SVGID_00000146479810928309217780000005519684402998614403_">
											<use xlink:href="#SVGID_00000163772207960134614390000006461447257016920207_"  style="overflow:visible;"/>
										</clipPath>
										
											<g transform="matrix(1 0 0 1 0 1.907349e-06)" style="clip-path:url(#SVGID_00000146479810928309217780000005519684402998614403_);">
											
												<image style="overflow:visible;enable-background:new    ;" width="6446" height="4150" xlink:href="9D08D3679FE33B6F.jpeg"  transform="matrix(8.340104e-02 0 0 8.340104e-02 798.6875 274.092)">
											</image>
										</g>
									</g>
								</g>
							</g>
						</g>
					</g>
				</g>
			</g>
		</g>
	</g>
	<g class="st4">
		<g>
			<g>
				<g>
					<g>
						<defs>
							<rect id="SVGID_00000182496915993875904350000013023544844629092022_" x="864.3" y="561.2" width="423.2" height="121.1"/>
						</defs>
						<clipPath id="SVGID_00000106136021685612439080000005769704777327208122_">
							<use xlink:href="#SVGID_00000182496915993875904350000013023544844629092022_"  style="overflow:visible;"/>
						</clipPath>
						<g style="clip-path:url(#SVGID_00000106136021685612439080000005769704777327208122_);">
							<g>
								<g>
									<g>
										<defs>
											
												<rect id="SVGID_00000025410401477160528810000016883612977063559314_" x="864.3" y="559.8" width="424.7" height="122.6"/>
										</defs>
										<clipPath id="SVGID_00000058582715307732990990000014853423271846200735_">
											<use xlink:href="#SVGID_00000025410401477160528810000016883612977063559314_"  style="overflow:visible;"/>
										</clipPath>
										<g transform="matrix(1 0 0 1 0 0)" style="clip-path:url(#SVGID_00000058582715307732990990000014853423271846200735_);">
											
												<image style="overflow:visible;enable-background:new    ;" width="4538" height="1310" xlink:href="9D08D3679FE33B6D.jpeg"  transform="matrix(9.356650e-02 0 0 9.356650e-02 864.3669 559.7968)">
											</image>
										</g>
									</g>
								</g>
							</g>
						</g>
					</g>
				</g>
			</g>
		</g>
	</g>
</g>
<path class="st7" d="M372.5,531c-2.1-5.5-15.6-42.9,4.7-76.8c15.3-25.4,40.8-34,53.7-38.4c27.3-9.2,51.1-5.9,62.6-3.5"/>
<path class="st7" d="M514.9,428.2c-3-1-9.9-3.7-13.9-10.7c-0.6-1.1-4.9-8.4-2.2-12.1c1.2-1.6,2.9-1.4,8.4-4.8c2-1.2,3.9-2.8,3-3
	c-2.6-0.8-12.6-4.4-12.6-7.2c0-0.6,0.3-0.6,5.7-4.6c2.8-2,3-2.5,3-3c-0.1-1.6-3.2-2.3-6.3-4.3c-1.9-1.2-3.6-2.3-4.2-3.9
	c-1.2-3.2,2.2-7.3,3.6-9c16.4-19.3,24.6-29,36.8-32.2c3.9-1,13.7-3.4,25.4,0c2.4,0.7,22.6,7,28.7,25.2c7.2,21.2-10.4,42.4-20.7,50.8
	c-3.9,3.2-10.6,8.7-20.8,11.6c-8.6,2.4-13.5,3.1-21.9,5.8c-6,1.9-11,3.3-11.4,10.1"/>
<path class="st7" d="M406.4,492.1c7.7,0.3,14-0.6,18.3-1.4c9.9-2,13.2-4.8,14.3-5.8c2.8-2.6,4.3-5.5,5.1-7.5"/>
<path class="st7" d="M429,476c3.7,1.2,9,2.2,15.2,1.3c6.9-1.1,11.6-4.2,15.4-6.7c5.1-3.4,8.8-7.1,11.3-10.1"/>
<path class="st7" d="M426.1,485.3c-0.2-2-0.6-8.8,3.8-15c4-5.7,9.6-7.6,12.1-8.5c3.6-1.3,6.8-1.5,8.9-1.6"/>
<path class="st7" d="M448.4,472.1c-0.1-3.2,0.4-7.5,2.6-11.9c4.8-9.8,14.5-12.9,16.6-13.6c3.1-1,4.5-1.2,6.4-1.3"/>
<path class="st7" d="M454.3,458.9c3.8,1.4,9.7,2.9,16.6,1.7c6.4-1.2,11-4.2,15.3-7.2c4-2.7,6.9-5.5,8.9-7.5"/>
<path class="st7" d="M469.9,456.1c0.4-2.4,0.2-6.9,4-10.8c1-1.1,8.3-7.6,15.3-6.1c2.1,0.4,3.7,1.5,4.7,2.3"/>
<path class="st7" d="M487.1,441.5c2.3,1.6,6.3,3.9,11.8,4.5c7.8,0.9,13.8-2.3,16.3-3.7c4.1-2.3,6.9-5,8.5-6.9"/>
<path class="st7" d="M493.1,440.4c2.4-3.9,8.4-6.3,10.4-6.8c1.2-0.3,4.4-1.3,13.5,0.6c4.1,0.9,9,1.6,10.5,1.6
	c3.7-0.1,5.8-0.8,8.8-2.1c3.9-1.7,6.1-4.9,8.1-8.2c6.9-11.3,9-16.1,10.9-23.6c5.5-21.3-1.3-40.1-4.4-46.7
	c-4.3-9.3-10.9-17.9-14.6-22"/>
<path class="st7" d="M554.4,334.6c2.9,4.7,6.7,12.1,9,21.8c3.3,14.2,1.4,25.7,0.1,32.6c-3.2,17.6-9.4,30.1-15.1,38.2"/>
<path class="st7" d="M571.1,339.8c3.3,7.9,3,20.7,0.1,34.7c-2.2,10.6-6.8,24.5-8.4,28.3c-2.9,6.8-8,15.3-15.8,18.4"/>
<path class="st7" d="M585.6,353.2c0.1,4.5-0.1,11-2.1,18.5s-4.8,12.6-7.2,17.1c-3.2,5.8-11.8,18.9-21.2,26.8"/>
<path class="st7" d="M527.9,337c2.4,1.8,5.9,5,8.6,9.8c1.4,2.7,2.5,5.2,3.4,10.4c0.5,3,1,7.6,0.2,13.3c0,0.3-0.4,0.6-0.7,0.6
	c-3.2-0.2-8.4-1-14-3.9c-3-1.5-7.1-4.6-11.3-9.2c-1.7-1.8-2.9-3.5-3.8-4.7"/>
<circle class="st8" cx="525.8" cy="353.2" r="6.8"/>
<path class="st7" d="M396.2,506.4c-0.9-2.8-1.6-12.2,6-18.6c9.2-7.8,19.5-9.3,23.1-10.1"/>
<path class="st7" d="M396.2,506.4c11-3.2,19.4-8.4,26.1-14.9"/>
<path class="st7" d="M543.7,427.2c6.9,17.3,15.5,34.7,39.1,63.1c21.1,25.3,43.1,52.4,60.2,48.4c5.1-1.2,5.8,2.8,9.9,8.3
	c9.5,12.6,22.6,22.5,34.2,25.9c9.1,2.7,11.7,0.1,18.6,4.3c1.1,0.7,9.6,5.8,12.2,15.6c0.7,2.7,1.2,4.7,0.2,6.3
	c-3.4,5-19.9-0.6-23.5-1.8c-23.2-8-45.7-23.8-55.3-25.3c-1.5-0.2-4.4,0.7-8.2,0c-8.7-1.6-14.2-8.2-17-11.6
	c-11.6-14.1-25-31-29.1-35.9c-7.2-8.7-13.1-14-22.7-22.6c-27.3-24.4-40.9-36.4-58.5-36.9c-10.7-0.3-18.5,2-43.8,24.3"/>
<path class="st7" d="M650.3,538.7c2.8-2.4,7.1-5.9,12.8-9.8c2.4-1.6,2.2-1.4,4-2.7c11-7.6,13.9-9.8,18.4-13c2.9-2.1,6.5-4.5,8.2-5.6
	c4.6-3.2,5.1-4.9,8.6-5.3c1-0.1,5.8,1.3,7,3.5c1.1,2-1.9,4.8-3.8,5.8c-4.1,2.2-7,4.5-22.9,18.2c-0.3,0.3-1.1,0.9-1.1,1.7
	c0,1.6,2.8,3.4,5.1,3.4c3.8-0.1,12.1-5.1,14-5.8c12-4.5,19.9-7.9,28.5-10.8c1.9-0.6,7.6,3.5,8.7,5.8c0.6,1.3-2,2.5-3.9,3.5
	c-9.1,4.6-15.5,6-22.8,9.6c-6.4,3.1-8.6,5.5-9.2,8.1c0,0.2-0.6,3.2,0.8,4.2c0.9,0.6,2,0.2,3.6-0.2c2.3-0.6,4.8-0.6,7.1-1.1
	c6.9-1.4,8.6-1,17.7-2.8c6.2-1.2,8.5-2.1,13.8-2.3c5-0.3,6.8,0.1,9.2,2c0.6,0.5,1.8,2.5,1.1,4.5c-0.5,1.3-1.2,1.9-3.4,2.5
	c-5.7,1.7-8.1,1.5-12.9,2.5c-2.1,0.5-5.8,1.7-11,3.3c-8.4,2.6-8.3,1.6-14.4,4.4c-5.7,2.5-6.2,3.8-6.1,4.5c0,0.5,0.3,1.9,3.1,2.4
	c7.9,1.5,14.9,1,17.4,1.1c12.4,0.8,21.5,2,27.7,4.1c2.5,0.8-0.7,7.6-3.4,7.6c-5.7,0.1-9.4-0.1-20-0.5c-4.2-0.2-15.7-0.1-19.1,1.6"/>
<path class="st8" d="M679.7,544c3.7,1.5,6.8,3.4,8.3,5.2c1.7,2,0.5,5.9-1.1,7.7c-2.1,2.3-7.1,2.7-9.5,2.1c-2.2-0.5-4.4-1.7-7.1-4.9
	c-2-2.4-2.6-3.7-3-5.1c-0.3-0.9,0-2,0.1-2.2c0.5-1.5,1.7-2.6,3.2-3.4C673.4,541.9,677.8,543.3,679.7,544z"/>
<path class="st9" d="M439.9,494c4.8-1.2,10.4-2.2,16.5-2.7c14.6-1.1,26.9,0.2,39.3,4.8c29.9,11.1,55.3,25.7,66.7,31.6
	c4.1,2.1,16.4,10.8,21.2,18.7c4,6.6,7.5,9.1,8.9,13c2.6,7.5-2,19.7-9.5,26.2c-12.1,10.5-30.1,7-35,5.9c-6.9-1.5-6.2-2.2-16.4-4.1
	c-1.9-0.3-5.1-0.9-8.8-1.3c-9.2-1.1-16.3-0.8-19.6-1.5c-7.8-1.6-16.9-3.3-36.2-5.1c-17.9-1.7-15.8-0.9-32.6-2.5
	c-14.4-1.3-24.8-4.1-40.8-2.1c-3.5,0.4-6.1,0.9-7,1.1c-10.2,2-17.4,4.3-23.4,7.4c-3.1,1.6-4.5,3.2-9,5.4c-5,2.5-7.3,2.9-8.8,3
	c-3.3,0.2-4-0.7-6.9-0.5c-3.8,0.3-6.5,2.1-8.9,3.7c-17,11.8-22.6,17.5-29.5,24.5c-6.1,6.1-9.6,12.4-10.6,15.1
	c-0.8,2.2-3.4,6.2-7.9,8.2c-5.5,2.4-9.2,2.8-13.1,0.9c-4.8-2.3-3.6-6.6-2.4-8.7c1.3-2.4,3-4,7.9-8c4.5-3.7,7.1-5.3,7.3-6.9
	c0.2-2-1.1-3.9-3.1-4.5c-3.4-1-10.2,0.1-14.1,3.7c-4,3.7-5.2,6.8-7.9,9.4c-1.2,1.2-3.9,2.4-6,1c-1.9-1.2-2.7-3.9-1.5-6.2
	c2.5-5,8-8.3,10.1-9.6c1.8-1.1,5.9-3.5,6.2-4.8c0.4-1.8-1.5-4.1-4-4.7c-0.8-0.2-3.1-0.6-10.4,4.7c-5.5,4-6.5,5.4-8.4,4.9
	c-2.2-0.6-3.8-3.8-3.1-6.3c0.4-1.5,1.1-1.9,4.5-4.3c5.3-3.8,10.2-6.6,12.5-7.6c4.9-2.3,6-1.8,6.7-3.8c0.7-1.9-0.8-3.7-2.7-4.5
	c-1.3-0.6-2.5-0.6-7.6,1.7c-4.8,2.2-5.5,2.9-7.4,2.5c-2.2-0.5-2.9-2.4-2.4-3.7c0.9-2.1,3.3-3.2,9.5-6.4c10.6-5.5,7.6-5.2,14-7.7
	c6-2.3,1.6-5.7-0.5-6.7c-4.9-2.5-12,4.7-14.8,2.5c-1.2-1-0.6-3.3,1.2-4.6c3.1-2.4,8.7-3.4,17-4c1.5-0.1,14.6-3.7,27.5-8.8
	c10.7-4.2,19.3-14.2,28.5-20.5c1.7-1.2,6.6,0.8,7.3,1c4.5,1.5,5.2,3.4,11.5,5.8c2.6,1,5.2,1.2,12.8,0.2
	c24.2-3.2,50.7-12.8,53.9-13.9c19.1-7,17.6-6.9,24.4-8.3c21-4.4,44-10,66.2-3.2c12.5,3.8,15.6,7.4,25.1,14.6
	c8.6,6.5,14.5,13.8,19,18.7"/>
<path class="st7" d="M329.4,648.4c8.9-17.5,16.4-31,20-32.2c0.4-0.1,3.1,0,3.7,1.8c0.8,2.4-0.6,11.8-0.7,17.9
	c-0.1,6.8,0.9,11.6,3,11.1c3.5-0.8,5.4-7,13.7-18.5c4.6-6.3,7.1-6.8,8-6.3c0.4,0.2,1.7,1.7,2.1,8.8c0.7,11.2,2.2,12.5,3,12.9
	c1.2,0.5,4.6-0.1,13.1-10.1c5.3-6.3,8.1-8.1,9.5-7.5c2.6,1,0.7,5.7,2.3,11.2c1.1,3.9,1.6,7.7,8,7.6c7.4-0.1,13.1-3.2,13.4-3.5"/>
<path class="st7" d="M449.2,630.2c4.2-6.4-2.9-7.8-6.5-6s-6.6,3.7-9.2,9c-1.8,3.5-0.4,9.2,5.1,7
	C444.4,637.9,447.2,633.3,449.2,630.2z"/>
<path class="st7" d="M451.9,625.3c-1.4,2.5-2.5,4.7-2.6,8.9c-0.1,2.6-0.1,5,1.5,7.3c1.8,2.6,4.7,3.6,7.7,3.5c3.1-0.2,6-3,9.9-5.9
	c6.9-5.1,12.2-11.3,15.5-11.1c1.2,0.1,2.5,3.7,2.9,8.7c0.7,8.2,4.2,8.6,9.2,5.1c6.6-4.6,12.5-12.6,15.8-11.4c2.3,0.9-0.2,7,3.5,11.1
	c3.8,4.2,10.1,2.7,11.8,2.4c9.2-1.4,15.5-8.5,16.7-10.3l0,0c-0.1,0.6-0.8,7.8,4,9.7c4.2,1.7,11,1.6,15.8-2.6"/>
<circle class="st8" cx="558.5" cy="614.6" r="6.4"/>
<path class="st7" d="M590.4,641.7c3.1-1,5.4-6.6,4.7-8.2c-0.9-1.9-2-1.9-3.9-1.7c-5.3,0.6-12.5,9.9-9.7,11.2
	c1.7,0.8,6.9-0.8,9.5-0.7c2.2,0.1,3.5,3.6,3.9,6c2,13.5,4,25.1-1.2,39.2c-2.4,6.4-4.3,7.4-5.8,7.4c-3.7,0-7.2-4.7-9.1-8.7
	c-4.2-8.5-2.1-16.8,0.1-19.4c2-2.5,3.8-4.5,5.5-6.4c14.5-15.9,17.7-18.1,20.2-20.3c2-1.8,4.9-4.2,8.3-7h0.1
	c-0.8,7.8,1.2,14.6,3.9,15.4c1.9,0.6,4.9-2.4,10.3-8.5c1.9-2.2,3.2-4.3,4.3-5.8c0-0.1,0.1,0,0.1,0c0.1,1.6,1.1,8.7,7.3,12.2
	c8,4.6,18.4-1.5,21.7-8.4c0.2-0.4,1.9-3.4,0.8-4.5c-1.7-1.5-9,1.7-10.8,7.5c-0.8,2.5,0.3,6.2,3.7,4.7c3.3-1.4,5.6-6,10.5-5.6
	c1,0.1,7.6,8.4,31,13.4"/>
</svg>
