<?xml version="1.0" encoding="utf-8"?>
<!DOCTYPE svg PUBLIC "-//W3C//DTD SVG 1.0//EN" "http://www.w3.org/TR/2001/REC-SVG-20010904/DTD/svg10.dtd">
<svg version="1.0" xmlns="http://www.w3.org/2000/svg" width="2353px" height="1721px" viewBox="0 0 2353 1721" preserveAspectRatio="xMidYMid meet">
 <g fill="#000000">
  <path d="M1729.5 1703.8 c-7.1 -2.6 -18.5 -10.6 -26.5 -18.7 -10.5 -10.5 -22.7 -28.7 -33.7 -49.9 l-7.8 -15.2 0 -14.3 c0 -14 0 -14.3 3.2 -20.7 7.2 -14.6 30.3 -40.5 53.1 -59.7 13.4 -11.3 34.4 -30 45.1 -40.1 6.7 -6.3 7.3 -7.2 6.7 -9.8 -1.1 -4.6 -5.3 -10.2 -9.8 -13.1 -5 -3.4 -8.1 -3.5 -25.8 -0.9 -8 1.1 -16.4 1.7 -23.5 1.4 -9.8 -0.3 -11.5 -0.6 -15.7 -3 -6.9 -4.1 -9.8 -10.5 -9.8 -21.9 0 -10.4 1.5 -15 7.4 -23.3 10.3 -14.4 26.7 -26.6 41.5 -31 7 -2.1 20 -2.1 24.9 0 4.7 1.9 9.7 6.7 12.5 11.9 1.9 3.4 2.2 5.6 2.2 15 0 9.8 -0.4 11.7 -2.8 17.6 l-2.8 6.6 5.8 5.9 c3.2 3.3 7.3 8.6 9 11.9 5.9 11.2 4.7 11 15.7 2.1 23.4 -18.7 37.1 -33.1 58.3 -60.7 6.9 -9 13 -16.7 13.7 -17.1 0.6 -0.4 3.6 -0.8 6.6 -0.8 6.1 0 7.2 0.5 8.9 3.7 2.1 4 1.2 11.3 -3 24.1 -2.2 6.9 -4.3 15.6 -4.6 19.2 -0.9 10.4 2 20.4 7.5 26.3 5.1 5.4 6.1 4.7 29.5 -17.9 21.2 -20.6 32.1 -30.1 43.1 -37.5 4.7 -3.2 6.7 -3.9 10.6 -3.9 3.2 0 5.2 0.6 6.3 1.8 0.9 1 3.2 7.8 5.2 15.2 4.9 18.4 8 24.7 16.2 33 7.4 7.3 14 11.2 23.3 13.6 7.1 1.8 14.1 0.9 22.6 -3 5.7 -2.6 6.9 -4.3 9.9 -13.6 5 -15.7 15 -31.2 25.4 -39.3 8.8 -6.9 13.2 -8.7 22.1 -8.7 14.7 0 20 5.2 20 19.5 0 8.6 0.1 8.7 8.2 5.3 4.1 -1.6 8 -2.2 17.8 -2.6 17.9 -0.6 22.7 1.3 38.9 15.2 8.8 7.6 28 20 39.8 25.7 10.2 4.9 37.5 14.2 63.3 21.5 10.7 3.1 20.3 6.3 21.3 7.2 1.3 1.1 1.7 3.1 1.7 7.7 0 5.6 -0.3 6.4 -3.3 9.3 -2.9 2.9 -3.9 3.2 -9.2 3.2 -4.7 0 -6.7 -0.6 -10.4 -2.9 -3 -1.9 -11.6 -4.8 -25.1 -8.5 -22.4 -6.2 -37.7 -12.4 -65 -26.1 -12.1 -6.2 -18.3 -10 -23.5 -14.5 -8.3 -7.2 -24.2 -18 -26.4 -18 -2.5 0 -22 8.2 -29.3 12.3 -3.6 2 -10.6 6.8 -15.5 10.7 -12 9.5 -16.4 11.1 -33.8 12 -9.7 0.5 -17.2 1.6 -24.5 3.4 -28.1 7 -49.4 3.1 -64.5 -12 -7.1 -7.1 -11.3 -14.6 -14.9 -26.5 -1.4 -4.7 -3.2 -9.4 -4 -10.4 -1.3 -1.8 -1.6 -1.8 -5.7 1.9 -2.4 2.1 -10.5 10.3 -17.9 18.2 -7.4 7.9 -15.7 16.2 -18.3 18.4 -13.9 11.4 -30.5 16.4 -43.1 12.9 -2.4 -0.6 -5.7 -2.9 -8.7 -5.9 -5.5 -5.5 -7.2 -10.2 -8.9 -24.5 -1.9 -15.7 0.3 -16.2 -20.3 4.2 -10 9.9 -22.2 21.4 -27.2 25.5 -11.2 9.5 -16.1 14.5 -17.4 18.1 -0.8 2 -0.8 11.2 0 31 2 50 0.1 71 -12.2 132.1 -6.9 34.5 -13.6 47 -27.5 51.2 -5.5 1.6 -20.5 1.7 -24.9 0.2z m21 -21.2 c3.5 -2.3 6 -7.8 10.1 -21.8 3.3 -11.6 10.2 -49.5 14 -76.8 1.8 -13.2 3.2 -70.1 1.9 -78.6 l-0.6 -4.4 -2.9 2 c-6.1 4.3 -60.7 59 -70.7 70.8 -12.2 14.3 -16.8 21.4 -18.4 28.6 -1 4.5 -0.9 6.2 1 13.2 2.6 9.4 11.4 27.9 16.8 35 9.1 12 22.7 27.5 26 29.5 7.9 4.9 17.5 6 22.8 2.5z m-21.5 -241.1 c12.9 -3 12.4 -2.7 17.8 -13.3 6.9 -13.6 7.9 -16.8 5.7 -19.2 -4.6 -5.1 -12.3 -3 -28.1 7.5 -12.8 8.6 -20.7 19 -17.4 23 2.9 3.5 12 4.3 22 2z m358.8 -16.9 c2.8 -2.8 5.2 -5.4 5.2 -5.9 0 -0.4 -1.9 0.2 -4.1 1.5 -4.1 2.3 -12.9 11.1 -12.9 13 0 1.4 5.8 -2.8 11.8 -8.6z"/>
  <path d="M624 1546.5 l0 -21.5 10.1 0 c5.5 0 10.9 0.5 12.1 1.1 3 1.6 4.8 7 4.8 14.4 0 11.6 -3.6 16.5 -12.2 16.5 l-4.8 0 0 5.5 0 5.5 -5 0 -5 0 0 -21.5z m15.9 -3 c1.2 -2.5 1.2 -3.2 0 -5.4 -0.8 -1.4 -2.4 -2.6 -3.4 -2.6 -1.6 0 -2.1 0.8 -2.3 4.4 -0.2 2.4 -0.1 5 0.2 5.8 0.9 2.3 3.9 1.1 5.5 -2.2z"/>
  <path d="M396.8 1555 c-3.9 -3 -5.1 -7 -4.6 -15.6 0.3 -7.3 0.5 -7.7 4.1 -11 3.2 -3 4.3 -3.4 9.2 -3.4 l5.5 0 0 -6 0 -6 5 0 5 0 0 15.9 c0 8.7 0.3 18.6 0.6 22 l0.7 6.1 -11.5 0 c-9.9 0 -11.9 -0.3 -14 -2z m14.2 -14 c0 -2.7 -0.5 -5.2 -1 -5.5 -3.3 -2.1 -8.7 4.3 -6.8 8 3.3 6.4 7.8 4.9 7.8 -2.5z"/>
  <path d="M476.4 1555.1 c-3.9 -2.4 -5.4 -6.5 -5.4 -14.8 0 -11.4 3.6 -15.3 14.2 -15.3 5.6 0 7.1 0.4 9.5 2.4 2.6 2.2 2.8 3 3 10.1 0.1 4.2 0.4 7.9 0.7 8.3 0.3 0.3 0.6 2 0.6 3.9 0 2.7 -0.6 3.7 -3.2 5.3 -4.5 2.7 -15 2.8 -19.4 0.1z m12.6 -9.6 c1.1 -1.3 0.7 -1.5 -2.4 -1.5 -3.4 0 -4.4 0.8 -2.9 2.3 1.1 1.2 4 0.8 5.3 -0.8z"/>
  <path d="M551.5 1556 c-3.3 -1.3 -4.7 -3.6 -4.3 -7.2 0.2 -2.2 1 -3.6 2.4 -4.2 2 -0.9 2 -1 0.2 -2.8 -2.7 -2.7 -2.5 -11.8 0.3 -14.4 2.7 -2.4 16 -3.2 19.9 -1.2 3 1.6 4 7.7 1.6 9.7 -1.3 1.1 -1.2 1.5 0.5 3.2 1.4 1.4 1.9 3.3 1.9 6.8 0 6.4 -0.6 7.9 -4.1 9.6 -3 1.6 -15 2 -18.4 0.5z"/>
  <path d="M707.4 1555.1 c-3.9 -2.4 -5.4 -6.5 -5.4 -14.8 0 -11.4 3.6 -15.3 14.2 -15.3 5.6 0 7.1 0.4 9.5 2.4 2.6 2.2 2.8 3 3 10.1 0.1 4.2 0.4 7.9 0.7 8.3 0.3 0.3 0.6 2 0.6 3.9 0 2.7 -0.6 3.7 -3.2 5.3 -4.5 2.7 -15 2.8 -19.4 0.1z m12.6 -9.6 c1.1 -1.3 0.7 -1.5 -2.4 -1.5 -3.4 0 -4.4 0.8 -2.9 2.3 1.1 1.2 4 0.8 5.3 -0.8z"/>
  <path d="M780 1541 l0 -16 11 0 c10.4 0 11.2 0.1 13.5 2.5 2.4 2.3 2.5 2.9 2.5 16 l0 13.5 -5 0 -5 0 0 -9.6 c0 -11.4 -0.9 -13.9 -4.5 -12.2 -2.4 1.1 -2.5 1.4 -2.5 11.5 l0 10.3 -5 0 -5 0 0 -16z"/>
  <path d="M860.5 1556 c-3.3 -1.3 -4.7 -3.6 -4.3 -7.2 0.2 -2.2 1 -3.6 2.4 -4.2 2 -0.9 2 -1 0.2 -2.8 -2.7 -2.7 -2.5 -11.8 0.3 -14.4 2.7 -2.4 16 -3.2 19.9 -1.2 3 1.6 4 7.7 1.6 9.7 -1.3 1.1 -1.2 1.5 0.5 3.2 1.4 1.4 1.9 3.3 1.9 6.8 0 6.4 -0.6 7.9 -4.1 9.6 -3 1.6 -15 2 -18.4 0.5z"/>
  <path d="M933 1555 c-3.1 -3.1 -2.8 -12.3 0.5 -15.5 1.5 -1.6 1.9 -2.5 1.1 -2.5 -1.7 0 -2.6 -2.2 -2.6 -6 0 -2.3 0.7 -3 4 -4.4 2.3 -0.9 6.9 -1.6 10.6 -1.6 5.6 0 6.8 0.4 8.9 2.5 2.3 2.2 2.5 3.2 2.5 11 0 7.9 0.1 8.5 2.1 8.5 1.8 0 2 0.5 1.7 4.8 l-0.3 4.7 -13.3 0.2 c-12 0.3 -13.4 0.1 -15.2 -1.7z"/>
  <path d="M1087.7 1556.3 c-0.4 -0.3 -0.7 -10.2 -0.7 -22 l0 -21.3 5 0 5 0 0 6 0 6 5.1 0 c6.3 0 8.7 1.3 10.5 5.5 1.8 4.4 1.8 15.6 0 20 -2.1 4.9 -5.9 6.5 -15.9 6.5 -4.6 0 -8.7 -0.3 -9 -0.7z m15.3 -13.3 c1.1 -2.5 1 -3.4 -0.4 -5.6 -2.7 -4 -5 -2.8 -5.4 3 -0.2 2.7 -0.1 5.5 0.2 6.3 0.8 2.1 4.1 0 5.6 -3.7z"/>
  <path d="M1169.4 1555.1 c-3.8 -2.3 -5.4 -6.5 -5.4 -14.3 0 -11.3 4.3 -15.8 15 -15.8 10.9 0 15 4.4 15 16 0 11.6 -4.2 16 -15.2 16 -4.4 0 -7.2 -0.6 -9.4 -1.9z m12.9 -11.3 c1.8 -2.4 1.8 -2.7 0.3 -5.7 -2.1 -4 -5.1 -4.1 -7.1 -0.1 -1.6 3.1 -1.4 4.1 1.3 7.3 1.9 2.1 3 1.8 5.5 -1.5z"/>
  <path d="M1248.2 1555.4 c-2 -1.4 -2.2 -2.3 -2.2 -11.5 0 -9.2 -0.1 -9.9 -2 -9.9 -1.7 0 -2 -0.7 -2 -4.5 0 -3.8 0.3 -4.5 2 -4.5 1.6 0 2 -0.7 2 -3.5 l0 -3.5 5 0 5 0 0 3.5 c0 3.2 0.2 3.5 3 3.5 2.9 0 3 0.2 3 4.5 0 4.3 -0.1 4.5 -3 4.5 l-3.1 0 0.3 6.3 c0.3 6.2 0.3 6.2 3.6 6.5 3.1 0.3 3.2 0.4 3.2 5.3 l0 4.9 -6.3 0 c-4 0 -7 -0.5 -8.5 -1.6z"/>
  <path d="M1313 1555 c-3.1 -3.1 -2.8 -12.3 0.5 -15.5 1.5 -1.6 1.9 -2.5 1.1 -2.5 -1.7 0 -2.6 -2.2 -2.6 -6 0 -2.3 0.7 -3 4 -4.4 2.9 -1.1 4 -2.2 4 -3.7 0 -1.1 1.6 -4.1 3.6 -6.5 2.9 -3.5 4.3 -4.4 6.8 -4.4 4.2 0 5.6 1.6 5.6 6.2 0 2.7 -0.5 4 -2 4.8 -2 1.1 -2 1.2 1 4 2.9 2.7 3 3.1 3 11.4 0 8 0.1 8.6 2.1 8.6 1.8 0 2 0.5 1.7 4.8 l-0.3 4.7 -13.3 0.2 c-12 0.3 -13.4 0.1 -15.2 -1.7z"/>
  <path d="M1391 1541 l0 -16 11 0 c10.4 0 11.2 0.1 13.5 2.5 2.4 2.3 2.5 2.9 2.5 16 l0 13.5 -5 0 -5 0 0 -9.6 c0 -11.4 -0.9 -13.9 -4.5 -12.2 -2.4 1.1 -2.5 1.4 -2.5 11.5 l0 10.3 -5 0 -5 0 0 -16z"/>
  <path d="M1470 1541 l0 -16 5 0 5 0 0 16 0 16 -5 0 -5 0 0 -16z"/>
  <path d="M1536.4 1555.1 c-3.8 -2.3 -5.4 -6.5 -5.4 -14.3 0 -11.4 4.1 -15.8 14.5 -15.8 7.7 0 11.5 2.1 11.5 6.3 0 1.8 -0.5 3.8 -1.2 4.5 -1.6 1.6 -6.3 1.5 -8.8 0 -4.5 -2.8 -7.2 5.4 -3.2 9.5 2 2 2.2 2 4 0.4 2.2 -2 7.3 -2.2 9 -0.5 1.9 1.9 1.4 7.3 -0.9 9.4 -3.1 2.8 -15.3 3.2 -19.5 0.5z"/>
  <path d="M1608 1555 c-3.1 -3.1 -2.8 -12.3 0.5 -15.5 1.5 -1.6 1.9 -2.5 1.1 -2.5 -1.7 0 -2.6 -2.2 -2.6 -6 0 -2.3 0.7 -3 4 -4.4 2.3 -0.9 6.9 -1.6 10.6 -1.6 5.6 0 6.8 0.4 8.9 2.5 2.3 2.2 2.5 3.2 2.5 11 0 7.9 0.1 8.5 2.1 8.5 1.8 0 2 0.5 1.7 4.8 l-0.3 4.7 -13.3 0.2 c-12 0.3 -13.4 0.1 -15.2 -1.7z"/>
  <path d="M1469.4 1522.7 c-0.3 -0.9 -0.4 -3 -0.2 -4.9 0.3 -3.3 0.4 -3.3 5.3 -3.3 l5 0 0 4.5 0 4.5 -4.8 0.3 c-3.4 0.2 -4.9 -0.1 -5.3 -1.1z"/>
  <path d="M396 1504.3 c-2.8 -1 -4 -3.7 -4 -9 0 -4.6 1.2 -8 8.4 -23.6 4.6 -10 9.8 -21.6 11.6 -25.7 4.6 -10.4 26 -51.2 32.5 -61.7 15.2 -24.8 25 -39.6 30.9 -46.8 11.8 -14.2 15.8 -18.7 19.9 -21.6 3.5 -2.5 4.9 -2.9 10.7 -2.9 7.8 0 15 1.9 24.2 6.6 6.6 3.3 6.7 3.4 7.8 8.9 0.9 4.3 0.8 8.4 -0.4 19.7 -0.9 7.9 -2 22.4 -2.6 32.3 -0.6 9.9 -1.4 22.7 -1.9 28.5 -1.1 13.2 -0.7 29 1.2 44.6 1.5 12.3 2.3 15 5.2 17.4 1.3 1.1 1.8 1 3 -0.6 3.3 -4.2 14.7 -21.7 16.7 -25.7 1.2 -2.3 5.9 -9.7 10.5 -16.4 4.6 -6.7 8.3 -12.5 8.3 -12.9 0 -1.8 10.7 -19.4 16.5 -27.2 14.4 -19.2 28 -32.4 42 -40.8 8.3 -5 9.5 -5.4 15.1 -5.4 7.3 0 9.7 1.6 13.7 8.8 3 5.5 6.7 19.6 6.7 25.7 0 2.2 0.6 6.1 1.4 8.6 0.8 2.7 1.7 12.4 2.1 23.5 0.5 11.5 1.3 20.4 2.1 22.8 0.8 2.1 1.8 7.7 2.4 12.3 0.8 7.6 3.7 15.3 5.8 15.3 0.3 0 4.4 -2.6 9.1 -5.7 9.6 -6.3 23.3 -19.6 45.2 -43.8 18.5 -20.5 20.5 -22.4 32.6 -32.3 14.9 -12.1 16 -12.5 24.7 -12 10.2 0.7 14.4 2.9 18 9.7 2.9 5.4 3 6 3.7 26 0.9 22.4 1.5 26.8 5.6 38.1 10 27.7 23.4 32.2 64.2 21.5 9.5 -2.5 21.4 -6.3 26.5 -8.6 7.8 -3.4 10.1 -4 14.7 -3.7 l5.4 0.3 0 6.7 c0 5.7 -0.3 7 -2.5 9.3 -7.4 7.9 -47.8 20.5 -70.8 22.1 -11.3 0.8 -25.3 -0.9 -28.9 -3.5 -1.6 -1.1 -6.1 -3.2 -10.2 -4.8 -9.4 -3.6 -12.1 -6.7 -17.2 -20.2 -4.7 -12.1 -6.5 -22.8 -8 -46.6 -1.3 -21.9 -1.3 -21.9 -4.2 -20.4 -5.2 2.8 -20.7 16.1 -26.7 23 -3.6 4.1 -12.5 13.7 -19.9 21.4 -7.4 7.7 -14.6 16 -16.2 18.3 -3.6 5.7 -17.5 16.8 -28.2 22.6 -10.7 5.9 -17.6 7.4 -25.2 5.9 -12.6 -2.7 -16.5 -9.6 -20 -35.6 -1.3 -9.4 -2.8 -25.5 -3.4 -35.7 -1.1 -19.1 -4.2 -37.4 -6.6 -39.9 -1.2 -1.2 -2.2 -0.9 -7.1 2 -3.1 1.9 -6.8 4.9 -8.3 6.8 -1.4 1.8 -6.4 7.6 -11.1 12.8 -4.7 5.2 -9.5 11.7 -10.7 14.4 -1.2 2.8 -3.7 7.1 -5.4 9.7 -1.8 2.6 -4.7 7.5 -6.5 10.9 -1.8 3.4 -7.2 12.3 -12.1 19.8 -4.8 7.4 -11.9 18.7 -15.8 25 -4.8 7.8 -9.5 14 -15 19.5 l-8 8 -9.6 0 c-11.7 0 -13.4 -1 -18.4 -11 -9.3 -18.5 -10.5 -48.4 -4.8 -123.7 1.6 -21.5 1.6 -22.3 -0.2 -24.3 -1 -1.1 -2.7 -2 -3.7 -2 -2.4 0 -17.5 13.5 -18.4 16.4 -0.4 1.2 -1.8 3.4 -3.1 5 -1.3 1.6 -3.3 4.7 -4.5 7 -1.1 2.2 -4.1 6.7 -6.5 9.8 -5 6.6 -15.5 24 -18.8 31.3 -1.2 2.8 -4.3 7.6 -6.8 10.9 -2.6 3.2 -5.1 7.5 -5.8 9.5 -0.6 2 -2.3 5.2 -3.9 7.1 -3.6 4.7 -5.5 8.5 -6.9 14.5 -0.7 2.8 -2.5 7.3 -4.1 10 -1.6 2.8 -3.8 7.4 -4.9 10.4 -1.1 2.9 -3.1 7 -4.5 9 -1.4 2 -3.7 6.5 -5.1 10 -1.3 3.5 -3.5 7.4 -4.7 8.7 -1.3 1.3 -3.1 3.3 -4 4.4 -1.4 1.5 -3 2 -6.5 1.9 -2.7 0 -5.5 -0.3 -6.3 -0.6z"/>
  <path d="M1063.7 1487 c-6.3 -1.1 -12.5 -4.2 -18.1 -9.1 -5.2 -4.6 -15 -21.8 -16 -28.4 -0.4 -2.2 -1.7 -7.3 -2.8 -11.4 l-2.2 -7.3 -5.1 5.3 c-10.6 11.1 -17.8 17 -25.6 21 -9.4 4.7 -14.3 5.9 -26.1 6.6 -10.9 0.6 -17.3 -1.3 -23.4 -6.9 -6.6 -6.1 -7.8 -10.3 -7.2 -25.6 0.5 -12.8 0.5 -13 4.4 -19.8 2.1 -3.8 4.7 -9.1 5.6 -11.7 1.8 -4.9 2.5 -5.9 14.6 -20 7.8 -9.1 21.9 -19.7 33.8 -25.4 l7.9 -3.8 15 0 15 0 5.7 3.3 c4.4 2.4 7 3.2 10.9 3.2 6.3 0 8.4 1.1 9.8 5.1 2.5 7.3 1.4 15.5 -4.8 34.9 -7.3 22.7 -8.1 29 -5 38.6 5 15.6 11.4 24.6 20.1 28.4 14.1 6.1 28.9 -0.1 54.3 -22.5 6.1 -5.4 14.2 -11.9 18 -14.5 7 -4.7 14.6 -11 27.2 -22.2 7.8 -7 15.6 -12.6 29.5 -21.1 11.7 -7.3 17.4 -9.2 24.6 -8.4 3.7 0.4 5.2 1.2 7.5 3.9 4.3 5.1 9.6 16.7 10.2 22.3 0.7 6.2 4.1 24.8 6.2 33.5 0.8 3.6 1.9 8.7 2.5 11.4 1.2 6.1 3.1 9.1 6.9 10.6 2.7 1.2 3.8 0.9 12.1 -2.9 5 -2.3 14.8 -8 21.7 -12.5 6.9 -4.6 13.7 -8.9 15.1 -9.6 1.4 -0.7 8.1 -6.8 15 -13.4 13.2 -12.7 29.2 -24.3 38 -27.7 6.6 -2.5 16.1 -2.6 18.2 -0.1 1.7 1.9 4.1 11.2 6.3 24.2 3.4 20.7 6 28.9 10.9 34.7 9.8 11.6 38.5 16.6 60.1 10.4 24.3 -6.9 61.6 -31.5 74.1 -48.7 3.2 -4.4 6.5 -5.8 11.8 -5 5.7 0.9 7.5 3.3 8.6 11.3 1.5 9.9 7.9 31.5 10.4 34.8 3.3 4.3 13.5 9.5 19.9 10.2 7 0.7 35.9 -3.1 44.2 -5.8 4.9 -1.6 8.2 -3.6 12.7 -7.7 5.9 -5.2 6.3 -5.4 10.6 -4.9 2.4 0.3 4.8 1.1 5.3 1.8 2.5 3.9 -0.6 15.7 -5.1 19.6 -1.4 1.2 -6.3 4.2 -10.9 6.8 -7.7 4.2 -9.6 4.8 -25.5 7.6 -38.8 6.8 -55.4 4.6 -70 -9.1 -5.7 -5.4 -7.7 -8.1 -11.3 -15.8 -5.1 -10.6 -4.1 -10.5 -14.9 -1.6 -3.8 3.1 -8 6.1 -9.4 6.7 -1.4 0.6 -3.8 2.1 -5.5 3.3 -1.6 1.2 -5.7 3.3 -9 4.7 -3.3 1.4 -10.2 4.6 -15.3 7.1 -14 6.8 -21.1 8.1 -43.7 8.1 -29.3 0 -39.7 -2.5 -51 -12.2 -9.7 -8.3 -12.4 -13.8 -16.6 -34.3 -1.7 -8.5 -3.4 -16.3 -3.8 -17.2 -0.5 -1.5 -1.4 -1.2 -6.6 2.2 -5.5 3.5 -11 8.4 -27.1 23.8 -3.1 2.9 -7.4 6.2 -9.7 7.4 -2.3 1.1 -7.7 4.5 -12.1 7.5 -9.9 6.8 -30.1 16.7 -38.2 18.8 -7.1 1.7 -15.3 1.9 -20.5 0.5 -2 -0.6 -5.8 -3.1 -8.5 -5.8 -6.9 -6.6 -10.9 -17.2 -13.5 -36.4 -2.5 -18.2 -5.5 -32.3 -7.5 -35.3 l-1.6 -2.4 -3.6 1.8 c-2.1 1.1 -5 3.4 -6.7 5.1 -1.6 1.8 -7.4 6.2 -12.8 9.7 -5.4 3.5 -10.1 7.1 -10.4 7.9 -0.6 1.6 -13.9 12.6 -28.3 23.4 -4.7 3.5 -10.3 8.3 -12.5 10.7 -2.3 2.3 -6.3 5.2 -9 6.4 -3.1 1.3 -6.7 4.1 -9.5 7.2 -5.2 5.9 -18.7 12.9 -28.4 14.6 -6.8 1.2 -22.7 1.3 -29.9 0.1z m-83.2 -47.5 c12.1 -5.9 27.1 -20.4 39.1 -38 3 -4.4 7.1 -10.1 9.1 -12.8 3.3 -4.5 3.4 -4.9 2 -7.1 -1.9 -2.8 -7.5 -5.6 -11.4 -5.6 -9.5 0.1 -31.9 12.4 -43.3 23.9 -8.6 8.7 -12 13.3 -14.9 20.9 -3.9 10 -2 18.3 4.9 20.8 4.3 1.6 8 1.1 14.5 -2.1z"/>
  <path d="M147.3 1428.6 c-6.9 -1.6 -8.9 -2.5 -15.1 -6.9 -7.3 -5.2 -8.2 -7.6 -8.2 -21.3 0 -13.3 1.2 -19.4 5.9 -30.6 3.7 -8.8 5.8 -10.9 21.1 -21.8 5.8 -4.1 15.2 -11.9 21 -17.5 5.8 -5.5 12.5 -11.6 14.9 -13.5 2.3 -1.9 4.9 -4.7 5.7 -6.2 1.3 -2.5 1.2 -2.9 -1.7 -5.7 -2.9 -2.9 -8 -5 -13 -5.2 -1.3 -0.1 -7.3 0.6 -13.3 1.5 -16.9 2.5 -23.3 6 -37.4 20.5 -6.2 6.4 -13.3 14.3 -15.8 17.6 -7.2 9.5 -16.6 18.7 -23 22.5 -5.4 3.3 -6.5 3.5 -15.7 3.8 -9 0.4 -10.2 0.2 -15.2 -2.3 -4.2 -2 -6.2 -3.8 -8.3 -7.3 -2.5 -4.3 -2.7 -5.5 -2.6 -14.7 0.1 -5.5 0.6 -11.9 1.3 -14.2 1.5 -5.4 8.6 -15.1 17.7 -24 8.8 -8.6 38 -30.2 45.8 -33.9 3 -1.4 6.2 -3.6 7 -4.9 1.4 -2.1 1.3 -2.6 -1.3 -6.2 -4.8 -6.6 -5.2 -6.8 -13.9 -5.4 -6.6 1 -9.2 2 -18.2 7.5 -5.8 3.5 -12.1 7.2 -14 8.1 -1.9 1 -6.2 4.4 -9.5 7.5 -9.9 9.3 -15.8 13 -25.8 16.1 -12.9 4 -15.6 3.9 -20 -1.1 -6.9 -7.6 -10.7 -18.3 -10.7 -30.2 0 -7.2 2 -10.8 9.9 -17.9 7.9 -7 45.7 -33.3 53.6 -37.3 11.4 -5.6 22.4 -10.5 29.3 -13 9 -3.2 13.2 -5.3 13.2 -6.7 0 -2.1 -2.8 -7.5 -4.9 -9.4 -1.6 -1.4 -3.6 -1.9 -7.4 -1.9 -7.6 0.1 -12.9 1.9 -20.4 7.1 -3.7 2.5 -10.3 6.3 -14.7 8.4 -8 3.9 -8 3.9 -20.5 3.9 -10.9 0 -13.1 -0.3 -15.9 -2 -6.7 -4.1 -9.4 -17.6 -5.3 -26.7 3.7 -8.1 8.3 -11.3 34.2 -24.1 13.4 -6.6 26.9 -13.9 29.9 -16.2 3 -2.3 6.9 -4.8 8.5 -5.7 1.7 -0.8 7.3 -4.4 12.6 -7.9 5.3 -3.5 12.5 -7.6 16 -9 3.5 -1.4 8.6 -3.7 11.2 -5 l4.8 -2.5 -2.1 -2.9 c-2.9 -4 -7.7 -7.9 -10.8 -8.7 -4.9 -1.2 -18 1.6 -34.4 7.2 -21.6 7.4 -30 7.5 -35.5 0.5 -1.8 -2.2 -1.7 -17.4 0.2 -20.9 2.7 -5.4 14.6 -13.2 26.3 -17.5 9.8 -3.5 20.3 -5.3 44.9 -7.6 18.3 -1.6 22.5 -2.4 30 -5 4.9 -1.8 14.4 -5 21.3 -7.2 6.8 -2.2 14.5 -5.1 17 -6.3 2.5 -1.3 7.4 -3.1 11 -3.9 3.6 -0.8 11.7 -3.3 18 -5.4 6.3 -2.2 13.1 -4.3 15 -4.7 1.9 -0.4 11.3 -4.1 20.8 -8.1 9.5 -4.1 17.6 -7.4 18.1 -7.4 0.5 0 3.5 -1.7 6.7 -3.9 3.3 -2.1 9.1 -5.9 12.9 -8.3 3.9 -2.5 12 -8.4 18 -13.2 6.1 -4.8 12.6 -9.6 14.5 -10.6 1.9 -1 7.3 -5.2 12 -9.4 4.7 -4.2 12.8 -10.8 18 -14.5 5.2 -3.8 13.5 -10.4 18.3 -14.7 14.9 -13.3 13.6 -12.7 25.7 -12.1 21 1 33 4.9 56.2 18.3 21.3 12.3 21.8 12.5 37.7 13.5 7.5 0.5 16.1 1.3 19.1 1.8 4.4 0.8 8.4 0.5 20 -1.5 24.2 -4.2 58 -13.3 58 -15.7 0 -0.5 -3.6 -11.9 -8 -25.3 -9.4 -28.9 -11.4 -36.6 -12.9 -49.9 -0.7 -5.5 -2.3 -19.7 -3.6 -31.5 -3 -26.1 -3.1 -36.4 -0.5 -54 1.1 -7.4 2.5 -21.4 3 -31 2.8 -47.6 3.4 -52 11.5 -81 7.2 -25.8 14.2 -47.5 18.5 -57.4 1.1 -2.7 7.3 -13.7 13.7 -24.5 12.3 -20.7 20 -30.1 29.6 -36.4 4.7 -3 9.3 -8.4 15.5 -18.2 4.5 -7.2 37.5 -38.5 51.2 -48.7 26 -19.2 53.1 -35.3 72.7 -43.3 6.5 -2.6 19.2 -7.8 28.3 -11.6 19.8 -8.1 84.3 -29.7 99 -33.2 51.3 -12.2 53.6 -12.6 78 -13.7 12.3 -0.5 22.3 -1.4 27 -2.5 6.5 -1.5 9.9 -1.7 25 -1 9.6 0.5 22 0.7 27.6 0.6 6.4 -0.2 12.2 0.3 16 1.3 3.2 0.8 12.2 2.4 19.9 3.5 18.9 2.7 44.1 9.2 48.3 12.4 0.9 0.7 1.2 2.9 1 6.6 l-0.3 5.6 -5.4 0.3 c-2.9 0.2 -6.7 -0.2 -8.5 -0.8 -1.7 -0.6 -6.9 -1.3 -11.6 -1.6 -5.8 -0.4 -11.7 -1.6 -18.5 -3.9 -7.2 -2.4 -13.4 -3.6 -22.2 -4.5 -6.7 -0.6 -13.7 -1.5 -15.5 -2.1 -1.8 -0.5 -12.1 -0.9 -22.8 -0.9 -10.7 0 -21.3 -0.5 -23.5 -1 -2.9 -0.7 -7 -0.6 -14.5 0.4 -5.8 0.9 -16.8 2 -24.5 2.7 -21.6 1.7 -22.3 1.8 -33.7 5.5 -5.9 1.9 -11.6 3.4 -12.5 3.4 -2.4 0 -25.7 5.6 -36.3 8.7 -4.7 1.4 -16.3 5.4 -25.9 8.9 -9.5 3.6 -19.4 6.9 -22 7.4 -2.5 0.5 -11.1 3.4 -19.1 6.5 -8 3 -18.8 7.2 -24 9.2 -33.9 13 -87.7 44.9 -103.6 61.5 -7 7.3 -20.3 19.5 -25.4 23.3 -1.5 1.1 -6.8 6.7 -11.8 12.5 -5 5.8 -12.7 13.7 -17.1 17.5 -5 4.3 -9.6 9.5 -12.1 13.5 -2.3 3.6 -7.5 11.9 -11.6 18.5 -14.2 22.4 -20.5 37.4 -29.4 69.2 -7.9 28.7 -11.7 48.3 -12.5 65.3 -0.3 7.4 -1.7 22.5 -3.1 33.5 -4.6 37.9 -4.6 43.1 -0.4 78.5 2.6 21.8 4.5 32.7 7.2 41 6 18.5 22.4 54.5 25.3 55.7 1.9 0.7 51.5 -11 60.9 -14.3 6.3 -2.2 41.4 -11.4 57.6 -15 3.6 -0.8 9.4 -2.7 13 -4.1 6.5 -2.6 19.6 -7.4 32 -11.8 3.6 -1.2 11.6 -4.4 17.8 -6.9 13.9 -5.7 51.5 -18.8 63.7 -22.1 14.2 -3.9 64.1 -14.1 85.5 -17.5 10.7 -1.7 22.4 -3.7 26 -4.5 8 -1.7 46.3 -6 66.5 -7.5 8.3 -0.6 32.8 -1.1 54.5 -1.3 l39.5 -0.2 15 3.3 c8.3 1.8 18.1 4.2 21.9 5.3 9.3 2.8 44.6 17.7 58.6 24.9 6.3 3.2 15.8 7.9 21.1 10.4 8.4 3.9 11.1 5.9 22.8 16.8 7.3 6.8 17 15.3 21.7 18.9 4.6 3.6 10.7 8.8 13.7 11.5 4.9 4.5 14.9 12.8 42.7 35.5 11.9 9.7 20.7 18.8 27.4 28.2 4 5.6 4.6 7.1 4.6 11.5 0 6.4 -1.3 7.4 -8.6 7 l-5.8 -0.3 -6.6 -8.1 c-3.6 -4.5 -8.6 -10.9 -11.2 -14.2 -2.9 -3.8 -9.1 -9.3 -16.5 -14.8 -11.7 -8.8 -32.8 -26 -41.3 -33.8 -2.5 -2.3 -6.1 -5.2 -8 -6.6 -3.9 -2.7 -12.9 -10.3 -27 -23 -14.1 -12.7 -17 -14.7 -31.9 -22.4 -22.8 -11.7 -26 -13.1 -43.9 -19.5 -32.5 -11.5 -56.2 -16.9 -69.2 -15.7 -3.6 0.3 -15.8 0.1 -27.1 -0.6 -17.9 -1 -23 -0.9 -38.5 0.6 -9.9 0.9 -20.1 2.1 -22.9 2.6 -2.7 0.6 -9.5 1.4 -15 2 -27.8 2.7 -39.2 4.1 -44.3 5.4 -3.1 0.8 -15.4 3.3 -27.2 5.6 -11.8 2.2 -25.8 5 -31 6.2 -5.2 1.1 -11.7 2.4 -14.5 2.8 -2.7 0.4 -7.9 1.5 -11.5 2.4 -3.6 0.8 -8.5 2.1 -11 2.6 -2.5 0.6 -9.9 3.1 -16.5 5.5 -6.6 2.4 -14.6 5.1 -17.7 6 -6.7 1.9 -21.1 7.6 -28.8 11.4 -3.1 1.5 -13 5.1 -22 8 -9.1 2.9 -19.6 6.6 -23.4 8.2 -3.7 1.6 -7.8 2.9 -9.1 2.9 -1.2 0 -4 0.7 -6.1 1.6 -2.2 0.9 -10.4 3.3 -18.4 5.4 -22.8 5.9 -48.9 13 -55.5 15 -3.3 1.1 -11.8 3.1 -19 4.5 -7.1 1.4 -19 4.2 -26.4 6.1 -7.4 1.9 -20.4 5.1 -28.9 7 -8.5 1.9 -17.5 4.3 -20 5.4 -2.4 1.1 -8.3 2.4 -12.9 3 -4.6 0.5 -8.7 1.1 -9.1 1.4 -0.5 0.3 -7.8 1.9 -16.3 3.6 -16.8 3.4 -15.7 3.4 -55.4 1.2 -16.8 -1 -20.6 -1.8 -26.7 -5.5 -25.8 -15.6 -35.5 -20.1 -52.7 -24.1 -7.1 -1.7 -9 -1 -16.1 5.8 -3.1 3 -8.1 6.8 -11.2 8.5 -3.1 1.8 -5.9 3.8 -6.1 4.6 -0.3 0.7 -3.2 3.1 -6.4 5.3 -3.2 2.2 -8.5 6.3 -11.8 9.1 -3.2 2.8 -10.9 8.5 -17 12.8 -6 4.2 -13 9.4 -15.5 11.5 -7.6 6.5 -19.1 14.5 -27.3 19 -4.3 2.4 -10.4 5.8 -13.5 7.6 -6.7 3.9 -38.7 15.5 -58.5 21.3 -7.5 2.2 -22.2 6.9 -32.5 10.5 -10.3 3.6 -24 7.8 -30.4 9.5 -6.5 1.6 -13 3.4 -14.5 4 -3.1 1.2 -31.5 3.9 -41 3.9 -5.1 0 -7.8 0.7 -14.6 3.8 -8.7 4 -19.7 10.7 -20.9 12.6 -0.4 0.6 -0.3 1.5 0.2 2 0.8 0.8 4.8 -0.4 19.2 -5.8 10.9 -4.1 21.5 -5.8 33.5 -5.4 13.2 0.4 16.4 1.8 22.6 9.6 6.4 8.2 7.7 11.3 7.7 18 0 4.5 -0.5 6.6 -2.1 8.6 -1.9 2.5 -11 7.2 -22.4 11.8 -6.9 2.7 -30.9 16.6 -35.4 20.4 -2 1.7 -7.2 4.6 -11.6 6.3 -4.3 1.8 -11.2 5.2 -15.2 7.6 -4 2.5 -10.5 5.8 -14.5 7.5 -7.5 3.2 -13.3 8 -17 13.9 -2.1 3.3 -2.1 3.4 -0.3 4.7 5.3 3.9 14.3 2.4 22.9 -3.7 6.7 -4.8 26.6 -12.6 34.5 -13.5 3.3 -0.3 9 -0.3 12.6 0.1 5.7 0.6 7.3 1.2 10.6 4.2 5.3 4.8 8.1 12.5 8.3 23 0.1 10.8 -1.2 12.2 -14.9 16.5 -5.5 1.7 -12.2 4.2 -15 5.5 -14.4 7.1 -37.3 20.4 -42.3 24.5 -3.1 2.6 -10.4 8 -16.2 12.1 -5.8 4.1 -11.2 8.3 -12.1 9.3 -2.5 2.9 -4.9 8 -4.9 10.5 0 3 3.4 8.3 6.5 9.9 3.4 1.8 4.4 1.3 24.9 -12.9 30.7 -21.2 39.4 -25.1 55.8 -25.1 15.9 0 19.7 1.9 24.3 12.3 4 8.7 4.4 17.7 1.3 23.7 -2 3.8 -3.5 5 -10.7 8.7 -4.6 2.4 -13.1 7.8 -19 12 -11.5 8.4 -27.1 21.1 -27.1 22.2 0 0.3 -2.8 3.9 -6.3 7.8 -10 11.3 -11.2 19.1 -3.7 24.1 6.7 4.5 14.4 1 25.5 -11.5 4.3 -4.8 14.1 -15.3 21.9 -23.3 12 -12.3 15.4 -15.2 22.6 -19.2 7.9 -4.3 9.5 -4.8 22.6 -6.7 7.8 -1.2 17.6 -2.1 21.9 -2.1 6.9 0 8.4 0.4 14.6 3.6 10.4 5.5 13.9 10.8 13.9 21.2 0 7.3 -2 10.2 -13.6 19.8 -5.9 4.9 -14.9 13 -19.9 18 -6.2 6.2 -11.7 10.6 -17.5 14 -7.7 4.5 -8.9 5.7 -12.7 11.9 -7.1 11.6 -9.4 23.5 -5.9 30.4 1.3 2.4 2.3 3.1 4.5 3.1 1.9 0 3.4 0.8 4.5 2.5 4.1 6.2 20.6 7 41.1 2 12.4 -3.1 16.6 -5 24.6 -11.1 5.1 -3.9 6.3 -5.7 13.4 -19.5 7.4 -14.4 12.3 -22.4 26.4 -42.4 20 -28.4 39.9 -48 101.7 -100.5 25.5 -21.6 31.2 -26.1 44.4 -35.2 23.4 -15.9 35.5 -21.7 52.7 -25.3 7.1 -1.4 9.9 -1.5 20 -0.5 15.5 1.5 27.2 0.2 35.7 -3.9 3.4 -1.6 10.5 -6.3 15.9 -10.4 15.4 -11.7 35.1 -21.9 58.3 -30.1 5.4 -1.9 13.1 -4.6 16.9 -5.9 3.9 -1.4 15.7 -5.1 26.4 -8.1 10.6 -3.1 22.2 -7 25.6 -8.6 3.5 -1.6 8.2 -3.4 10.5 -3.9 2.3 -0.5 6.4 -2.3 9.2 -4 6.4 -4 11.8 -4.2 14.2 -0.6 2 3 4.9 3.2 19.2 1 22.3 -3.5 80.8 -3.7 99.9 -0.5 3.3 0.6 11.9 1.5 19 2 7.2 0.5 16.9 1.7 21.5 2.5 4.7 0.9 12.6 2 17.5 2.6 5 0.6 12.1 1.7 15.8 2.5 6.9 1.4 57.9 5.8 80.7 6.9 6.9 0.4 26 1.8 42.5 3.1 16.5 1.4 36.1 2.9 43.5 3.4 13.3 0.9 63.7 7.1 73.6 9.1 2.8 0.5 14.5 2.3 26 3.9 11.5 1.6 28.3 4.2 37.4 5.9 9.7 1.7 22.3 3.2 30.5 3.6 27.3 1.2 59.1 3.6 68 5 5 0.7 12.2 1.6 16 2 16.6 1.4 37.1 5.6 82.5 16.9 45.2 11.2 48.6 11.8 73.5 11.8 26.8 0 45.9 -4.4 64.2 -14.8 4.3 -2.5 11.4 -6.4 15.8 -8.7 6.3 -3.2 10.2 -6.3 18.6 -14.7 9.8 -9.8 11.1 -11.5 16.3 -22.1 3.1 -6.2 6.9 -13.2 8.5 -15.4 8.3 -11.7 13.6 -42.7 9.7 -57.2 -2.2 -8.1 -7.9 -17.3 -17.3 -28 -4.7 -5.4 -9.9 -12.2 -11.6 -15.1 -3.2 -5.7 -24.2 -34.8 -30.3 -42 -6.9 -8.1 -33.1 -31.8 -42 -37.9 -11.7 -7.9 -100.9 -56.4 -118.4 -64.3 -4.1 -1.9 -10.7 -5.3 -14.8 -7.7 -4 -2.4 -7.9 -4.3 -8.6 -4.3 -0.8 0 -4.9 -1.8 -9.2 -3.9 -4.4 -2.1 -19.8 -9.7 -34.4 -16.8 -14.6 -7.1 -31.7 -15.9 -38 -19.5 -12.1 -6.9 -30.7 -15.8 -33.2 -15.8 -0.7 0 -1.8 -0.4 -2.4 -1 -1.2 -1.2 -24 -11.5 -31.4 -14.2 -3 -1 -8.6 -3 -12.5 -4.4 -3.8 -1.3 -12.2 -4.2 -18.5 -6.4 -6.3 -2.3 -14.6 -5 -18.5 -6.2 -3.8 -1.1 -9.8 -3.1 -13.3 -4.4 -3.4 -1.3 -7.9 -2.4 -9.9 -2.4 -2 0 -10.2 -1.6 -18.2 -3.4 -14.5 -3.5 -26.4 -5.1 -47.6 -6.6 -6 -0.4 -18.8 -1.3 -28.3 -2 -13.8 -1.1 -21.8 -1.1 -40.5 -0.2 -33.2 1.7 -53.3 5.4 -64 11.8 -4.7 2.7 -6.9 3.4 -11.1 3.4 -2.8 0 -5.7 -0.5 -6.4 -1.2 -0.7 -0.7 -1.2 -4 -1.2 -7.9 0 -6.2 0.2 -6.9 2.8 -8.7 4.2 -2.9 8.4 -4.1 23.1 -6.2 14.4 -2 46.9 -5 55.2 -5 6.8 0 6.5 -2.2 -1.1 -9.8 -5.6 -5.5 -6 -6.3 -6 -10.5 0 -5.1 0.8 -5.7 7.4 -5.7 3.7 0 4.7 0.5 7.3 3.8 1.7 2 4.4 4.5 6.1 5.5 l3.1 1.8 12.8 -9.7 c7 -5.3 15.7 -12.4 19.3 -15.8 11.8 -11.4 23.1 -20.7 31.7 -26.2 4.7 -3 12.9 -8.8 18.2 -12.8 5.3 -4 13.2 -9.4 17.6 -12.1 4.4 -2.6 10.5 -6.5 13.6 -8.7 6.9 -4.7 28.2 -13.3 36.4 -14.7 18.4 -3.2 45.2 -4 66 -2.1 17.8 1.6 44.5 10.5 71 23.7 14.4 7.2 34.4 21 55 37.9 7.2 5.9 16.6 13.4 21 16.7 4.4 3.4 11.8 9.3 16.5 13.2 4.7 4 12.3 10 17 13.5 4.7 3.5 13.2 10.9 19 16.5 5.8 5.6 13.4 12.4 17 15.2 3.6 2.8 9 7.7 12 10.8 3 3.1 13.8 13.4 23.9 22.8 10.2 9.5 20.5 19.5 23 22.2 11.3 12.4 57 56.6 61.4 59.4 1.8 1.1 4.9 4.1 7.1 6.6 2.1 2.6 8.3 9.7 13.7 15.7 5.5 6.1 11.6 13.7 13.7 17 5.5 8.9 17.9 25.3 32.1 42.4 14.5 17.5 17.4 21.2 27 34.9 3.9 5.5 13.1 17.2 20.6 26 19.9 23.4 37.3 44.2 43 51.6 6.5 8.3 15.6 14.3 31.5 20.9 22.7 9.4 22.1 9.3 45 9.7 19.9 0.5 20.8 0.6 32 3.9 13.6 4.1 19.8 6.8 26.5 11.6 2.8 1.9 9.5 5.9 15 8.8 5.5 2.9 14.3 8.1 19.5 11.5 5.2 3.4 11.3 7.1 13.5 8.2 2.2 1 7.8 4 12.5 6.5 4.7 2.6 12 6 16.2 7.7 6.4 2.5 43.3 20.5 54.3 26.5 1.7 0.9 3.8 1.6 4.9 1.6 1 0 4.4 1.3 7.5 2.9 18.1 9.2 29.9 14.3 39.6 17.1 6.1 1.8 13.7 4.1 17 5.2 3.3 1 10.6 3.2 16.2 4.9 5.7 1.6 14.5 4.7 19.5 6.8 22.8 9.7 52.5 10.2 60.3 1 2.3 -2.8 2.5 -3.9 2.5 -11.8 0 -7.6 -0.4 -9.7 -3.5 -17.1 -1.9 -4.6 -6.6 -13.1 -10.4 -18.9 -3.7 -5.9 -8.5 -13.4 -10.5 -16.8 -6.6 -11.1 -13.7 -15.5 -37.6 -23.6 -10.4 -3.6 -17.5 -5.2 -31 -7.2 -9.6 -1.4 -21.5 -3.7 -26.5 -5 -13.7 -3.8 -37.5 -11.3 -38.8 -12.3 -0.7 -0.5 -3 -1.3 -5.2 -1.6 -6.1 -1.1 -13.4 -4.8 -19.6 -9.8 -5.7 -4.6 -13.4 -9.8 -26.6 -17.9 -11.6 -7.1 -41.8 -33.4 -53 -46.1 -12.2 -13.8 -22.9 -27.5 -32.2 -41 -9.8 -14.4 -15.2 -20.2 -21.6 -23.3 -5.9 -2.9 -5.2 -2.9 -29.5 -0.5 -6.9 0.6 -16 1 -20.3 0.8 -7.6 -0.3 -8.1 -0.5 -29.2 -11.2 -11.9 -6 -23.4 -12.5 -25.8 -14.5 -2.3 -2.1 -7.1 -5.9 -10.7 -8.6 -3.5 -2.7 -12.8 -11 -20.5 -18.4 -7.7 -7.3 -15.5 -14.6 -17.3 -16 -1.8 -1.4 -8.5 -8.4 -14.7 -15.6 -6.3 -7.1 -15.5 -17.5 -20.4 -22.9 -4.9 -5.5 -11 -13.5 -13.6 -17.8 -3.2 -5.5 -9.3 -12.7 -19.7 -23.6 -8.3 -8.6 -18.5 -19.7 -22.6 -24.7 -4.1 -4.9 -13.2 -15.3 -20.2 -23 -12.5 -13.7 -33.9 -40.3 -51.1 -63.5 -4.7 -6.3 -12.1 -15.5 -16.4 -20.5 -4.3 -4.9 -11.7 -14.2 -16.3 -20.5 -4.7 -6.3 -10.4 -13.7 -12.7 -16.5 -8.5 -10.1 -26.5 -36.7 -30.3 -44.7 -2.1 -4.6 -9.6 -16.8 -16.7 -27.3 -9.9 -14.8 -15.2 -24 -23.8 -41.5 -6 -12.4 -13.2 -28.3 -15.9 -35.5 -4.7 -12.4 -9.8 -22.8 -11.9 -24 -0.5 -0.4 -6 3 -12.1 7.5 -11.7 8.5 -19 12.4 -29.5 15.9 -5.2 1.8 -8.7 2.1 -21.1 2.1 -16.7 0 -15 -0.6 -25.2 9.1 -5.7 5.3 -19.5 15.1 -26.5 18.6 -4.7 2.4 -23 8.3 -26 8.3 -1.1 0.1 -3.8 0.8 -6 1.6 -5.3 1.9 -33.7 5.4 -44.7 5.4 -8 0 -8.8 0.2 -10.6 2.5 -1.1 1.4 -2.9 2.5 -3.9 2.5 -1.1 0 -3.5 1.1 -5.4 2.5 -1.9 1.3 -5.2 3.6 -7.4 5.1 -2.1 1.5 -8.7 6.3 -14.5 10.8 -11.2 8.6 -31.6 21.6 -33.8 21.6 -0.7 0 -3.2 1.1 -5.5 2.4 -2.3 1.3 -11.4 4.8 -20.2 7.7 l-16 5.3 -8.5 8 c-4.7 4.4 -11.2 10.7 -14.5 14 -8.6 8.7 -18.9 17.5 -27 23.1 -3.8 2.6 -8.2 5.7 -9.6 6.9 -8.2 6.6 -22.5 14 -36.9 19.1 -5.2 1.8 -11.2 4 -13.2 4.9 -2.1 0.9 -5.3 1.6 -7.2 1.6 -1.8 0 -4.3 0.8 -5.3 1.8 -4.5 3.9 -14.1 17 -15.3 20.7 -2 6.1 -18.9 22.6 -25.5 24.9 -2.7 1 -7.4 2.9 -10.4 4.3 -3 1.5 -11.3 4.1 -18.4 5.9 -7.4 1.9 -15.1 4.6 -18.2 6.4 -2.9 1.6 -6.6 3 -8.2 3 -4.1 0 -14.3 5.5 -30.3 16.5 -7.4 5.1 -14.8 9.9 -16.5 10.8 -1.6 0.8 -6.1 4.3 -10 7.7 -10 8.7 -23.1 16.2 -45.8 26.2 -14.7 6.6 -20.9 8.8 -24 8.8 -5.3 0 -6.5 -0.8 -7.7 -5.1 -1.7 -5.7 -1.1 -12 2.1 -22.9 1.6 -5.8 3.6 -14.6 4.4 -19.7 0.8 -5 2.1 -10.5 2.9 -12.1 2.2 -4.2 7.6 -8.8 21.4 -18 11.7 -7.8 12.5 -8.2 17.9 -8.2 4.2 0 6.7 0.6 10 2.6 4.3 2.5 4.7 2.5 23.2 2.4 l18.9 -0.1 11.3 -3.8 c6.3 -2.2 13.1 -4.6 15.2 -5.5 2.6 -1.2 6.3 -1.6 12 -1.5 7.5 0.2 9.1 -0.2 20 -4.4 6.4 -2.5 13.8 -5.8 16.3 -7.4 2.6 -1.5 6.5 -3.8 8.8 -5 9.1 -5 20.5 -21.4 15.8 -22.7 -4.1 -1.1 -12.3 -1.8 -19.7 -1.7 -4.4 0 -12.2 -0.6 -17.2 -1.5 -5.1 -0.8 -9.7 -1.3 -10.2 -1 -2 1.3 -3.2 11.2 -2.5 20.6 1.1 16.2 -1.1 20 -11.5 20 -6.1 0 -8 -2 -8.8 -9.1 -0.6 -6.2 1.9 -26.7 4.7 -38.6 2.2 -9.1 10.3 -24 20.9 -38.1 6.1 -8 8.6 -10 36.6 -29.1 l9 -6.1 21.5 -5 c15.9 -3.8 22.5 -5.8 25.2 -7.7 2.1 -1.4 9.6 -8.8 16.8 -16.3 13 -13.7 21.7 -20.7 39.5 -31.2 9.3 -5.6 27.9 -13.4 39.9 -16.8 6 -1.8 12 -3.9 13.4 -4.8 1.3 -0.8 5.9 -3 10.2 -4.7 4.3 -1.7 10.9 -5 14.6 -7.3 10 -6 19.2 -8.3 35.4 -8.9 14.9 -0.6 14.7 -0.6 32.1 -11.8 7.2 -4.6 19.6 -10.6 27.9 -13.5 5.4 -1.9 9.8 -2.4 26 -3.1 10.7 -0.5 20.2 -0.6 21 -0.4 0.8 0.3 2.8 0.1 4.4 -0.3 l2.9 -0.8 -5 -3.2 c-2.8 -1.8 -7.9 -4.4 -11.4 -5.8 -18.1 -7.4 -29.9 -16.3 -37.5 -28.6 -1.5 -2.4 -5.5 -8.1 -8.9 -12.8 -11 -15 -13.2 -19.7 -15 -34 -1.8 -13.2 -1.5 -22 1 -28.9 2.7 -7.7 5.2 -9.9 18.5 -16.3 6.9 -3.3 15.6 -7.8 19.4 -10.1 l6.9 -4 -10.9 -3.7 c-14 -4.7 -21.7 -8.7 -28.2 -14.5 -7.2 -6.5 -9.2 -10.7 -9.2 -19.4 0 -6.8 0.1 -7 3.9 -10.6 2.1 -2 9 -7.4 15.2 -11.8 6.2 -4.5 11.3 -8.6 11.3 -9.2 0.1 -1.1 -5.6 -5 -15.5 -10.5 -9.1 -5.1 -19.1 -14.8 -22 -21.2 -3.2 -7.3 -3.3 -22 -0.2 -29 3.1 -6.8 17.3 -27.4 24.1 -34.9 5.9 -6.5 19.8 -22.5 28.6 -32.7 2.6 -3.1 5.9 -8 7.2 -10.9 1.5 -3.4 3.4 -5.8 5.3 -6.7 1.6 -0.9 4.3 -3.9 6.1 -6.8 4.9 -7.9 14.3 -17.1 26 -25.6 5.8 -4.1 13 -9.8 16 -12.7 3 -2.8 7.8 -6.9 10.5 -9 2.8 -2.1 7.3 -6.1 10.1 -9 2.9 -2.8 6.9 -5.8 9 -6.7 6 -2.4 22.2 -8.4 39.9 -14.6 l16 -5.7 29.5 -0.2 c25.9 -0.2 30.6 0 39 1.8 5.2 1.1 15.1 2.4 22 3 14.7 1.2 21.5 3.3 41 12.4 7.4 3.5 16 7.4 19 8.8 11.8 5.2 44.9 28.6 53.6 37.8 7.2 7.7 23.9 31.6 29.5 42.3 4.9 9.4 8.6 23.2 12.4 46.6 3 18.7 1.2 49.5 -4 68.7 -3.1 11.7 -17.1 39.8 -34.8 69.9 -11.4 19.4 -30.5 42.1 -47.5 56.1 -6.5 5.3 -14.8 12.7 -18.7 16.3 -8.2 7.8 -14.1 11.8 -32.5 22.5 -33.8 19.5 -36.1 21.3 -46 36 -8.2 12.2 -15.8 20.3 -20.4 21.7 -2.1 0.7 -4 1.8 -4.3 2.5 -0.6 1.6 5.8 19.7 12.4 35.3 7.3 17.1 17.8 37 25.7 48.8 4.1 6 8.6 13.2 10 15.9 1.4 2.8 3.6 6.3 4.9 7.9 2.3 2.8 5.3 8 14.7 25.6 6.3 11.6 22.6 34.1 45.4 62.7 10.3 13 23.9 30.4 30.1 38.6 14.7 19.5 20 25.7 44 52.5 11 12.2 21.5 24.3 23.4 26.9 1.8 2.5 8.2 9.6 14.1 15.6 5.9 6.1 12.2 13.3 14 16 1.8 2.8 5.4 7.4 7.9 10.4 2.5 3 6.9 8.7 9.6 12.7 2.8 4 9.5 12.3 14.9 18.6 12.7 14.6 51.9 53.2 61.4 60.6 4.1 3.1 11 8.5 15.5 11.9 8.5 6.6 28.8 17.5 40.3 21.9 7.6 2.8 8.3 2.8 31.8 -0.7 15.5 -2.3 24.4 -2.4 29.3 -0.4 l3.6 1.5 11.4 -10.7 c6.3 -6 14 -12.7 17.1 -15 3.2 -2.3 7.8 -5.9 10.4 -8 2.6 -2.1 10.5 -6.9 17.7 -10.7 8.5 -4.4 18.2 -10.8 27.6 -18 8.1 -6.1 16.6 -12.3 19 -13.8 5.9 -3.6 28.8 -21.1 35.4 -27 9.8 -8.9 26.1 -20.5 41.9 -29.9 8.7 -5.1 22.7 -14.1 31.3 -20.1 8.6 -5.9 17.2 -11.5 19.2 -12.3 2.2 -0.9 6.7 -1.5 11.2 -1.5 7.3 0 7.9 0.2 19.7 6.3 6.8 3.5 13 7.4 14.1 8.9 1.5 2 2.1 4.8 2.5 10.7 0.7 11.7 -1.1 14.8 -13.6 23.8 -5.3 3.8 -11.7 7.9 -14.2 9.1 -2.5 1.2 -7.2 4.4 -10.5 7.1 -3.3 2.8 -10.2 8.3 -15.4 12.2 -11.9 9.1 -21.7 17.7 -34 29.9 -5.3 5.2 -14.5 14 -20.5 19.4 -10.1 9.3 -10.7 10.1 -9 11.4 4.6 3.5 7.8 4.1 15.5 3.1 6.3 -0.8 10.1 -2.3 25.4 -9.9 18.6 -9.2 28.8 -13.6 43.7 -18.8 4.8 -1.7 10.4 -4 12.5 -5 2.1 -1.1 8.8 -3.6 14.9 -5.5 6 -1.9 23.1 -8.7 38 -15 14.8 -6.3 28.7 -12 30.9 -12.7 2.2 -0.6 9.4 -1.4 16.1 -1.7 11.5 -0.5 12.4 -0.4 17.6 2 8.4 3.8 21.2 12.3 25.2 16.7 4.2 4.7 5 7.3 4.3 14.3 -0.4 5 -0.8 5.5 -8.5 12.8 -6.6 6.1 -9.5 8.1 -15.4 10.3 -4 1.6 -10.9 4.7 -15.3 7 -4.4 2.3 -13.8 6.2 -21 8.6 -7.1 2.4 -19.5 7.7 -27.5 11.7 -8 4 -17.2 8.2 -20.5 9.2 -5 1.5 -18.4 8.7 -35.7 19.2 -3.4 2 -12.3 12.2 -14.7 16.8 -0.9 1.6 -0.6 2.3 1.4 4 1.4 1.1 3.9 2.2 5.5 2.6 2.9 0.6 27.5 -2.5 39 -5 3.6 -0.8 11.5 -1.9 17.5 -2.5 18 -1.8 59.7 -9.6 79 -14.6 l18 -4.7 20.5 -0.5 c22.5 -0.4 29.2 0.3 37.6 4.3 2.9 1.4 5.7 2.5 6.2 2.5 0.5 0 2.8 1.4 5.1 3.1 6.1 4.4 8.3 10 8.9 22.4 0.4 9.7 0.3 10.2 -2.2 13.2 -2.9 3.4 -15.8 10.5 -22.2 12.2 -2.3 0.6 -9.3 1.8 -15.5 2.6 -15.7 2.1 -32.5 5.8 -51.4 11.5 -8.8 2.7 -19.1 5.6 -23 6.5 -3.8 1 -8.2 2.3 -9.6 3.1 -4.3 2.2 -38 13.1 -44.4 14.4 -3.3 0.6 -9.8 2.6 -14.5 4.4 -4.7 1.8 -10.6 4.1 -13.1 5 -2.6 0.9 -6.4 3.2 -8.5 5 l-3.8 3.3 3.6 1.2 c10.7 3.5 26.8 5.3 54.8 6.2 32.2 0.9 50.3 2.2 54.1 3.7 1.4 0.5 9.9 1.5 19 2.1 29.7 2.1 63.3 8.1 74.6 13.3 6.6 3.1 7.5 5.3 7.1 17.2 -0.3 9.1 -0.6 10.8 -3.6 16.8 -4.4 9.1 -9.3 13.1 -18.5 15.4 -6.3 1.5 -9.9 1.6 -31.6 0.9 -13.5 -0.4 -31.6 -0.8 -40.1 -0.9 -8.5 -0.1 -19.3 -0.8 -24 -1.5 -14.8 -2.3 -55.7 0.3 -63.5 4 l-4.1 1.9 4.9 9.9 c2.7 5.5 5.1 11.9 5.4 14.3 0.2 2.4 1.1 7.1 2 10.4 1.1 4.6 1.4 9.7 1.1 19.6 -0.5 18.8 -2.7 22.1 -17 25.7 -12.4 3.2 -28.9 3.6 -44.3 1.2 -18.8 -3 -29.3 -6 -63.5 -18.1 -7.5 -2.7 -16.5 -5.6 -20 -6.5 -7 -1.8 -25 -9.9 -30.1 -13.6 -1.7 -1.2 -6.3 -3.4 -10.3 -5 -17.8 -6.9 -95.7 -45.7 -108.1 -53.9 -4.4 -2.8 -13.2 -7.7 -19.5 -10.7 -6.3 -3.1 -13.3 -6.8 -15.5 -8.3 -6 -4.1 -15 -8.4 -24.8 -11.9 l-8.7 -3.1 -13.2 1.1 c-13.7 1 -23.8 0 -36.6 -3.7 -6 -1.8 -22.6 -9.4 -28.1 -12.8 -2 -1.3 -5.8 -3.2 -8.6 -4.2 -6.1 -2.2 -12.9 -8.9 -21.5 -21 -8.5 -11.9 -26.8 -33.3 -42.1 -48.9 -6.9 -7.1 -13.9 -14.9 -15.3 -17.3 -3.1 -4.9 -25.8 -35.4 -42.6 -57.2 -6.2 -8 -12.9 -17 -14.9 -20 -8.9 -13.7 -16.9 -22.9 -36.7 -42.5 -42.5 -42.1 -79 -77.6 -83.9 -81.6 -2.7 -2.3 -8.6 -7.8 -13 -12.3 -4.4 -4.5 -12 -11.5 -17 -15.6 -4.9 -4 -14.8 -13.1 -22 -20 -7.1 -7 -17.5 -16 -23 -20 -5.5 -4.1 -12.5 -9.7 -15.5 -12.6 -3 -2.9 -8 -6.9 -11.1 -9.1 -8.7 -5.9 -20.8 -15.1 -26.9 -20.3 -8.9 -7.7 -26.5 -20.6 -32.7 -24.1 -3.2 -1.8 -10 -5.9 -15.1 -9.2 -12.3 -7.9 -39.2 -18.4 -50.7 -19.8 -4.4 -0.6 -12.3 -2 -17.5 -3.2 -16 -3.6 -43 -2.7 -56.8 1.9 -4 1.3 -8.2 2.4 -9.5 2.4 -1.2 0 -5.8 2.1 -10.2 4.6 -4.4 2.5 -11.6 6.4 -16 8.6 -4.4 2.2 -11 6.5 -14.7 9.4 -3.7 3 -9.5 7.1 -13 9.1 -13.5 7.8 -26.6 18.3 -41.2 32.7 -8.3 8.1 -17.6 16.4 -20.6 18.4 -3 2 -7.7 5.6 -10.3 8.1 l-4.9 4.6 3.3 0.7 c1.9 0.4 6.3 0.4 9.8 0.1 6.8 -0.7 46 1.3 57.6 2.8 3.9 0.5 10.6 1.4 15 1.9 23.3 3 75.3 18.5 113 33.7 17 6.9 73.7 35.3 91.5 45.8 3 1.8 18.8 9.7 35 17.5 16.2 7.8 37.3 18 46.8 22.6 9.6 4.6 22.5 11.3 28.7 14.9 6.2 3.6 14 7.6 17.3 8.9 3.4 1.3 11.4 5.5 17.9 9.4 6.5 3.8 19.5 11.3 28.8 16.7 18.4 10.6 37.7 24.9 53 39.5 9.8 9.2 21.1 23.1 24.1 29.5 2 4.4 19.7 28.3 30.5 41.2 9.4 11.1 10.3 12.9 14.4 27.8 3.6 12.9 3.6 13.1 3 27 -0.3 7.7 -1.1 16.5 -1.7 19.5 -1.4 7.9 -8.2 24.7 -12.2 30.5 -1.9 2.8 -5.8 9.3 -8.5 14.7 -4.9 9.4 -11.1 17.6 -20.2 26.7 -3.1 3.2 -10.6 7.9 -24 15.3 -23.1 12.7 -29.3 15.5 -36.8 16.7 -3.1 0.5 -7.6 1.7 -10 2.6 -7.4 2.6 -23.2 3.8 -39.6 3.1 -44 -2 -48.1 -2.4 -60.4 -5 -6.7 -1.5 -15.3 -3.8 -19 -5.1 -3.6 -1.3 -9.7 -3.1 -13.6 -4 -3.8 -0.9 -11.2 -2.9 -16.4 -4.6 -5.2 -1.6 -15.2 -3.9 -22.2 -5 -7.1 -1 -13.8 -2.3 -15.1 -2.8 -6.9 -2.6 -70.4 -8.1 -92.8 -8.1 -15.8 0 -40.4 -3.3 -59.5 -8 -8.8 -2.1 -19.8 -4.4 -24.5 -4.9 -18.5 -2.3 -34.3 -4.2 -51.5 -6.1 -9.9 -1.2 -26.1 -3.2 -36 -4.5 -23.1 -3.1 -41.6 -4.5 -74.6 -5.4 -14.7 -0.5 -27.1 -1.1 -27.7 -1.5 -0.6 -0.3 -11.3 -1 -23.9 -1.5 -22.7 -0.9 -28.2 -1.6 -75.3 -9.1 -10.2 -1.7 -20.7 -3.2 -23.5 -3.5 -2.7 -0.3 -12.6 -1.5 -22 -2.6 -21.4 -2.7 -61.8 -2.9 -75.5 -0.4 -4.7 0.8 -15.9 2.7 -25 4.1 -22.2 3.4 -46.3 8.2 -52.8 10.4 -2.9 1.1 -7.4 2.2 -10 2.6 -2.6 0.4 -9.2 2.6 -14.7 4.9 -5.5 2.3 -13.8 5.5 -18.5 7 -28.5 9.4 -50.1 20.6 -64.5 33.4 -8.5 7.5 -16.1 11.4 -28 14.2 -8.1 1.9 -10.7 2.1 -26 1.5 -16 -0.6 -17.5 -0.5 -26.5 1.8 -17 4.4 -34.9 13.7 -47.8 24.8 -1.9 1.6 -5.2 4 -7.5 5.5 -3.8 2.4 -16.2 12.6 -28.2 23.1 -2.7 2.5 -7.2 5.9 -10 7.7 -2.7 1.7 -11.3 9.1 -19 16.3 -7.7 7.2 -16.9 15.7 -20.4 18.9 -3.5 3.2 -14.5 14.1 -24.5 24.2 -13.8 14 -21 22.3 -30.2 34.9 -12.2 16.5 -20.2 29.6 -22.9 37.3 -2.2 6.1 -10.1 18.3 -14.5 22.3 -5.6 5 -21 12.3 -32.5 15.2 -12.5 3.2 -37.1 4.2 -47.2 2z m2152.7 -294.8 c8.4 -2.3 17.8 -14.3 13.5 -17.4 -2.7 -2 -23.1 -7.2 -40.5 -10.3 -9.1 -1.6 -28 -3.9 -42 -5.1 -14 -1.1 -28.4 -2.6 -32 -3.2 -3.7 -0.7 -18.8 -1.2 -35.5 -1.3 l-29 -0.1 -12.5 -3.3 c-6.9 -1.8 -13.6 -3.9 -14.8 -4.7 -4.7 -3.1 -6.6 -12.2 -3.9 -18.7 1.9 -4.4 12.7 -14.2 19.5 -17.6 9.2 -4.6 29.9 -11.1 61.1 -19.1 6.8 -1.8 17.9 -5.4 24.5 -8 17 -6.8 54.4 -15.5 75.1 -17.6 12.4 -1.2 24.4 -6.3 28.2 -12 3.5 -5.3 -0.9 -11.3 -12 -16.5 -6.5 -3 -7.7 -3.2 -20.5 -3.6 -16.2 -0.5 -28.4 1 -49.7 6 -16.3 3.9 -47.2 9.6 -68.5 12.6 -7.4 1.1 -22.5 4.1 -33.5 6.6 -19.1 4.5 -20.5 4.7 -31.5 4.2 -6.4 -0.2 -12.5 -0.9 -13.7 -1.6 -1.2 -0.6 -3.5 -2.8 -5 -4.8 -2.5 -3.3 -2.8 -4.4 -2.8 -11.7 0 -6.6 0.5 -9.1 2.6 -13.7 2.9 -6.1 14.1 -19.2 20.4 -23.7 4.7 -3.4 31.6 -16.2 42.7 -20.3 4.3 -1.6 12 -5 17 -7.5 5.1 -2.6 14.2 -6.6 20.3 -8.9 6 -2.4 13 -5.5 15.5 -6.9 2.5 -1.4 8.8 -4.2 14 -6.2 9.8 -3.8 22.4 -11.3 23.4 -13.9 0.8 -2.2 -5.5 -7.8 -14.8 -13.1 -8.9 -5.2 -13.6 -6.2 -21.4 -4.5 -5.7 1.2 -29 10.8 -36.7 15.2 -2.7 1.5 -9 4.1 -14 5.7 -4.9 1.7 -12.8 4.4 -17.4 6.1 -4.6 1.7 -10.3 3.6 -12.7 4.1 -2.4 0.6 -12.4 4.8 -22.1 9.4 -9.8 4.6 -20.7 9.4 -24.3 10.7 -3.6 1.2 -9.2 3.8 -12.5 5.5 -3.3 1.8 -11.4 5.6 -18 8.5 -10.6 4.6 -13 5.3 -20.5 5.7 -9.8 0.5 -16.9 -1.6 -23.1 -6.8 -4.4 -3.5 -7.9 -10.6 -7.9 -15.6 0 -5.3 3 -9.3 11.8 -16.2 4.2 -3.3 15.4 -13.8 24.7 -23.2 9.4 -9.4 20.2 -19.3 24 -22 3.9 -2.6 12.2 -9 18.4 -14.3 6.3 -5.3 16.1 -12.4 21.8 -15.7 10.4 -6.2 20.3 -14.6 20.3 -17.3 0 -2.3 -4.1 -5.4 -13 -9.6 -5.5 -2.7 -9.1 -3.9 -10.5 -3.5 -2 0.7 -9.8 6 -21.7 14.9 -3.7 2.8 -10.5 7 -15 9.5 -4.6 2.4 -10.8 6.2 -13.8 8.5 -3 2.3 -8.6 6.1 -12.4 8.5 -8 4.8 -23.5 16.4 -35.1 26 -10.8 9 -24.7 19.2 -38.5 28.3 -6.3 4.2 -15.3 10.4 -20 13.8 -4.7 3.3 -11.4 7.5 -15 9.1 -13.8 6.4 -28.1 17.2 -47.4 35.9 l-10 9.6 2.7 4.6 c1.5 2.5 4.5 6.7 6.7 9.2 2.2 2.5 4.5 5.6 5.1 6.8 0.7 1.2 3.3 4.9 5.9 8.2 2.6 3.3 5.7 7.9 6.9 10.3 2.8 5.4 14.2 17.5 24.7 26.1 11.5 9.4 23.8 19.8 30.5 25.8 3.2 2.9 11.6 9 18.6 13.6 7 4.6 15.3 10.5 18.3 13.1 6.3 5.5 14.9 10.1 20.6 11.2 2.1 0.3 5.3 1.4 6.9 2.2 1.7 0.8 10.2 3.9 19 6.8 16 5.2 27.9 7.6 46.6 9.4 17.2 1.6 50 13.4 60.7 21.8 2 1.6 4.8 3.5 6.1 4.1 3 1.6 37.8 1.6 44.7 0.1 3 -0.7 9.2 -0.9 15.9 -0.5 6.1 0.3 18 0.8 26.5 1.1 8.5 0.3 18 0.9 21 1.2 10.5 1.3 54.2 1.3 59 0z m-1562.4 -343.8 c6.8 -2.4 24.1 -11.9 28.7 -15.9 1.8 -1.5 9.8 -7.1 17.8 -12.4 8 -5.3 15.1 -10.2 15.7 -11 0.9 -1.1 -1.1 -1.2 -11.6 -0.9 -7 0.2 -14 0.7 -15.6 1.3 -4.6 1.4 -11.2 1.1 -16.6 -1 l-5 -1.9 -5.3 3.5 c-6.7 4.6 -10.3 8 -12.9 12.1 -3.5 5.7 -7.2 25.5 -5.1 27.5 1.1 1.2 3.7 0.8 9.9 -1.3z m184.9 -124.1 c14.9 -2 22 -3.1 22.4 -3.5 0.2 -0.2 -0.4 -1.3 -1.4 -2.4 -2.8 -3.1 -1.7 -24.9 2 -39.2 1.5 -5.9 2.5 -11.4 2.1 -12.3 -0.6 -1.8 -6.8 -2 -13.6 -0.4 -6.7 1.5 -22.9 9.5 -28 13.8 -2.5 2 -6.7 5 -9.5 6.6 -6.8 3.9 -16.5 13.4 -22.2 21.7 -4.1 5.9 -4.5 7 -3.2 8.3 2.8 2.8 12.2 5.5 23.7 7 6.4 0.8 13.1 1.6 14.7 1.8 1.7 0.2 3.7 0.2 4.5 -0.1 0.8 -0.2 4.7 -0.8 8.5 -1.3z m46.7 -13.2 c19.4 -8.8 44.1 -25.8 50.6 -34.6 1.4 -2 3.8 -4.9 5.3 -6.6 l2.8 -3 -8.7 0.3 c-12.8 0.5 -28.5 -1.3 -38 -4.3 -5.7 -1.8 -8.7 -2.3 -9.5 -1.6 -2.8 2.3 -12.9 23.8 -13.4 28.5 -0.6 5.4 1.6 24.6 2.8 24.6 0.4 0 4.1 -1.5 8.1 -3.3z m57.3 -61.3 c3.3 -0.9 10.1 -2.2 15 -2.9 6.1 -0.9 7.6 -1.3 4.8 -1.4 -5.1 -0.1 -6.9 -1.8 -7.8 -7.1 -0.8 -4.8 2 -23.6 4.5 -30.3 1 -2.6 1.5 -4.9 1.1 -5.1 -1.3 -0.9 -21.9 7.2 -25.9 10.1 -12.7 9 -23.6 17.9 -27.6 22.4 l-4.7 5.2 2.2 2.3 c6.8 7.3 24.9 10.4 38.4 6.8z m50.2 -12.8 c25 -10.7 30.4 -13.5 42.3 -22.5 14.1 -10.6 22.5 -18.4 21.8 -20.2 -0.3 -0.8 -6 -4.2 -12.6 -7.7 -6.6 -3.4 -12.6 -6.9 -13.3 -7.8 -2.5 -3 -4.4 -3.3 -10.8 -1.8 -3.4 0.7 -7.6 2.1 -9.4 3 -6.8 3.5 -16.6 10.6 -17.2 12.5 -0.4 1.1 -2.3 3 -4.4 4.3 -5.3 3.4 -9.9 9 -13.3 16.2 -2.5 5.4 -2.9 7.5 -3.2 17.5 -0.4 10.4 -0.6 11.5 -2.8 13.3 l-2.3 1.9 3.7 -0.6 c2 -0.3 11.7 -4 21.5 -8.1z m122.6 -54.6 c13 -1.4 45.2 -10.5 47.7 -13.6 0.7 -0.7 1.7 -1.4 2.2 -1.4 1.1 0 12.4 -8.5 13.4 -10.1 0.3 -0.6 0.2 -1.5 -0.3 -2 -0.6 -0.6 -3 0.6 -6.3 3.1 -5.9 4.4 -9.6 5 -15.5 2.6 -3.2 -1.4 -3.5 -1.8 -3.5 -5.8 0 -5.9 -2.1 -8.4 -8.2 -10.3 -6.1 -1.8 -26.1 -2 -34 -0.4 -15.7 3.2 -29.8 15.1 -32.3 27.1 l-1.2 6 3.1 1.9 c2.7 1.6 5.1 2.3 15.1 4.3 2.1 0.4 5 0.2 19.8 -1.4z m116.7 -43 c7.1 -1.3 14.5 -4.8 19.9 -9.4 2.4 -2 7.5 -5.5 11.2 -7.7 7.2 -4.1 11.9 -9.2 11.9 -12.6 0 -1.2 -0.8 -3.1 -1.9 -4.4 l-1.8 -2.3 -13.9 2.1 c-19.8 3.1 -26.2 4.6 -41.2 9.7 -14.8 5 -23.1 9.1 -29.2 14.3 -3.3 2.9 -3.9 3.8 -2.9 5 2.8 3.3 6.6 4.3 14.1 3.7 4.9 -0.3 8.9 0 12.3 1 6 1.7 14.3 2 21.5 0.6z m-39 -32.5 c7.6 -3 15.8 -5.9 18.2 -6.4 2.4 -0.6 6.9 -1.9 10.1 -3 8.4 -2.9 26.8 -6.9 37.4 -8.1 9.1 -1 29.2 -7.5 36.6 -11.8 4 -2.4 19.6 -25.4 21.7 -32.2 1 -3 4.8 -11.9 8.4 -19.7 12.2 -26.2 16.5 -42.4 19.2 -71.8 2 -22.6 2.1 -27.5 1 -46.5 -0.8 -13.7 -5.9 -48.9 -9 -62.3 -2.4 -10 -13.3 -39.7 -16.5 -44.8 -1.6 -2.6 -4.6 -8.5 -6.7 -13.1 -4.9 -11 -16.1 -31 -23.8 -42.5 -3.3 -5.1 -12.8 -16.9 -21 -26.3 -13.6 -15.7 -15.1 -17.1 -17.5 -16.6 -1.4 0.4 -5.2 0.9 -8.3 1.3 -3.2 0.3 -5.8 1 -5.8 1.5 0 1.8 3.5 6.5 10 13.3 9.1 9.6 10.8 12.4 19.9 35.2 12.5 30.9 14.6 41.4 15.8 77.4 0.6 18.2 -1 29.5 -4.9 34.4 -1.8 2.3 -2.5 2.5 -10.8 2.5 -15.6 0 -33.8 -4.7 -50 -13 -4.1 -2.1 -11.4 -5.7 -16.3 -7.9 -4.8 -2.2 -12 -6.1 -16 -8.7 -7.5 -4.9 -25.5 -22.4 -37.9 -37.1 -3.8 -4.6 -7.5 -8.3 -8.1 -8.3 -0.7 0 -2.6 1.2 -4.3 2.7 -3.8 3.5 -25.7 30.9 -31.1 38.8 -2.2 3.3 -5.1 6.9 -6.3 8 -3.6 3.2 -11.9 16.3 -12.6 20 -0.8 4.2 2.5 11.5 6.4 14.6 1.5 1.1 8.1 5.4 14.7 9.5 6.7 4.2 14.3 10 17.3 13 4.9 5.2 5.2 5.8 5.2 10.7 0 7.7 -3.5 12.6 -13 18.4 -7.1 4.3 -20 13.9 -20 14.9 0 1.5 3.9 5.8 8.3 9.3 5.8 4.4 18 9.5 27.1 11.2 7.7 1.4 14.1 5.1 16.2 9.1 2.1 4 1.4 10.6 -1.5 14.6 -3.2 4.5 -14 11.3 -27.6 17.3 -16.2 7.1 -19.3 9.2 -21.5 14.2 -1.5 3.6 -1.6 5.4 -0.9 12.7 1.2 10.9 5.7 20.4 17.1 35.5 7.4 9.8 9.4 11.8 18.8 18.2 6 4.1 16 9.6 23.2 12.9 8 3.6 14.7 7.3 17.9 10.1 2.8 2.3 5.5 4.3 6 4.3 0.5 0 7.2 -2.5 14.9 -5.5z m147.1 -68.9 c1.6 -4.3 2.8 -8 2.6 -8.2 -0.7 -0.7 -6.6 12 -7.2 15.6 -0.9 5 0.8 2.3 4.6 -7.4z m56.9 -11.5 c16.2 -12.8 24.8 -20.8 36.8 -34.4 17.9 -20.2 29.3 -35.9 33.1 -45.5 1.2 -3 4.7 -9.7 7.8 -15 7.2 -12.3 19.6 -39.1 21.1 -45.7 2.2 -9.9 4.5 -33.8 3.8 -40.8 -1.5 -16.7 -10 -49.7 -12.1 -47.5 -0.8 0.8 -3.5 23.5 -3.5 29.5 0 2.9 -0.7 7 -1.5 9 -0.8 2.1 -4.1 14.6 -7.4 27.9 -3.2 13.2 -7.3 27.2 -8.9 31 -3.7 8.5 -24.5 50.6 -31.2 63.2 -8.8 16.5 -24.4 37.9 -39.8 54.7 -3.5 3.9 -8.7 10.6 -11.7 15 -2.9 4.5 -6 8.7 -7 9.5 -0.9 0.7 -2.1 2.2 -2.6 3.2 -2 3.7 9.1 -3.1 23.1 -14.1z m1.2 -42 c11.2 -12.6 16.8 -21.8 34.3 -56.7 9.7 -19.2 18.9 -38 20.4 -41.9 3.2 -7.8 9 -27.6 12 -40.5 2.3 -9.5 5.8 -35.8 6.6 -49.5 0.4 -4.9 1.1 -12.1 1.7 -15.8 l1 -6.8 -3.6 -5.4 c-11.1 -16.7 -39.9 -41.9 -44.6 -39 -1 0.6 -0.5 4.5 2.1 16.7 1 4.8 2.4 15.3 3 23.4 1.2 15.2 0.8 22.3 -3.7 62.8 -1.4 13.3 -9.8 56 -12.8 65.6 -0.8 2.5 -2 7.7 -2.6 11.5 -1.9 11.6 -9.5 40.1 -16.9 63.8 -3.9 12.3 -7.1 22.8 -7.1 23.3 0 0.5 1.1 -0.4 2.3 -2.1 1.2 -1.6 4.8 -5.9 7.9 -9.4z m-32.2 -34 c1.6 -3 7.6 -29.9 9.5 -42.1 3.8 -25.5 4.1 -54.2 0.9 -80.5 -2.2 -18 -3.1 -22.1 -10.1 -45.4 -8.7 -29.2 -16.2 -47 -31 -74.4 -2.5 -4.5 -3 -11.6 -1.1 -13.5 0.7 -0.7 2.3 -1.2 3.8 -1.3 1.4 -0.1 -2.9 -0.9 -9.5 -1.8 -18.4 -2.6 -41.7 -1.4 -51.3 2.5 l-3.4 1.4 4.3 6 c2.3 3.3 10.1 13.4 17.3 22.4 11 13.8 14.6 19.2 22.3 33.8 18.1 34.2 25 50 31.8 73.3 5 17.1 10 56.9 11.2 89 0.4 12 -0.8 43.5 -2.3 54.5 -0.2 1.9 1.1 -2.2 3 -9.2 1.9 -7 4 -13.6 4.6 -14.7z m16.9 5.4 c0 -1.1 -1.1 1.4 -2.4 5.5 -3.6 11 -3.9 14.9 -0.5 5 1.6 -4.7 2.9 -9.4 2.9 -10.5z m5.9 -18.1 c2.8 -8.3 6.3 -20.9 7.7 -28 1.5 -7.1 3.9 -18.1 5.6 -24.4 1.6 -6.3 3.3 -14.9 3.8 -19 0.6 -4.1 1.7 -9.4 2.5 -11.7 1.4 -4.1 5.5 -34.8 7.6 -56.8 1.7 -18.8 1.2 -28.4 -2.5 -50.5 -1.9 -11.3 -3.5 -22.6 -3.5 -25.3 0 -5.7 0.4 -5.3 -21.5 -16.3 -15.7 -7.8 -24.6 -10.5 -40 -12 l-7 -0.7 2.2 2.4 c5.2 5.8 21.9 37.5 26.7 50.7 1.4 4 3.2 8.5 4.1 10.1 2.2 4.4 11.3 32.8 12.9 40.6 1.4 6.7 3.4 22.6 5.6 44.3 1.5 15.5 1.2 33 -1 49.7 -1.1 8.3 -2 17 -2 19.5 0 3.7 -3.5 25.1 -6.6 40 -1.3 6.2 0.2 2.8 5.4 -12.6z m-124.7 -89 c2.3 -2.5 2.4 -3.1 2.7 -20.4 0.4 -22.6 -1.1 -32.3 -7.5 -47.5 -2.5 -6 -6.4 -16.4 -8.7 -23.1 -2.3 -6.6 -5.2 -13.4 -6.3 -15 -2 -2.6 -6.5 -7.1 -19.5 -19.3 l-4.6 -4.3 -5 1.2 c-5.3 1.2 -18.5 9.9 -29.2 19 -3 2.5 -8.2 6.6 -11.5 9 -11.7 8.6 -23.5 21.6 -23.5 26 0 3.5 9.4 14.2 28.8 32.7 18 17.1 20.8 19.3 30.3 24.4 5.7 3.1 11.8 5.9 13.4 6.3 1.7 0.4 5.3 2.2 8 4.1 2.8 1.8 8.8 4.5 13.5 5.8 14.9 4.4 15.9 4.5 19.1 1.1z"/>
  <path d="M1960.5 1046.4 c-3.8 -1.2 -6.4 -3.1 -11.3 -8.2 -3.4 -3.7 -6.7 -7.1 -7.3 -7.7 -8 -7.9 -10.1 -10.4 -11.7 -13.9 -1.1 -2.2 -3 -5 -4.2 -6.1 -4.3 -3.9 -9 -15.9 -9 -23.1 0 -4.4 7.3 -18.6 11.5 -22.3 1.9 -1.6 5.4 -3.5 7.7 -4.1 2.4 -0.6 6.2 -1.8 8.6 -2.6 7.2 -2.4 22 -1.8 31 1.1 12.7 4.3 32 14.3 40.7 21.2 10.5 8.3 13.8 13.5 14.3 22.5 0.6 9.2 -1.3 19.1 -4.9 26.6 -2.7 5.6 -3.7 6.6 -8.8 9.1 -10.6 5.4 -23.1 8.3 -38.1 8.7 -10.4 0.3 -14.6 0 -18.5 -1.2z"/>
  <path d="M1275.6 150 c-12 -6.1 -14.5 -10.6 -14.6 -25.7 0 -8 0.5 -11.5 2.1 -15.8 2.9 -7.7 11.2 -16.6 19.5 -20.6 6 -3 6.8 -3.1 16.2 -2.7 11.2 0.4 13.3 1.4 23 10.4 4.7 4.4 5.4 5.5 6.3 10.9 1.7 9 0.5 18.8 -3.2 26.2 -3.7 7.6 -6.9 10.2 -19.1 15.5 -7.5 3.3 -10.7 4.2 -16.8 4.4 -6.7 0.4 -8.1 0.1 -13.4 -2.6z"/>
  <path d="M1693 1305 l0 -22 13 0 13 0 0 5 0 5 -8 0 -8 0 0 3 0 3 6.5 0 6.5 0 0 4.5 0 4.5 -6.5 0 -6.5 0 0 9.5 0 9.5 -5 0 -5 0 0 -22z"/>
  <path d="M1765.2 1325.5 c-5.3 -2.3 -6.2 -5.9 -6.2 -25.5 l0 -17 4.9 0 5 0 0.3 15 c0.3 16.6 1 18.3 6.8 18.3 5.8 0 6.5 -1.7 6.8 -18.3 l0.3 -15 5 0 4.9 0 0 17 c0 19.9 -0.8 23.2 -6.4 25.5 -4.5 1.9 -17 1.9 -21.4 0z"/>
  <path d="M1835 1304.9 l0 -22 5.2 0.3 5.2 0.3 6.3 10.5 6.3 10.5 0 -10.7 0 -10.8 5 0 5 0 0 22.1 0 22 -5.1 -0.3 -5.1 -0.3 -6.4 -10.5 -6.4 -10.4 0 10.7 0 10.7 -5 0 -5 0 0 -22.1z"/>
  <path d="M1910 1304.9 l0 -22.1 10.9 0.4 c12.7 0.4 15.1 1.5 18.9 8.9 2.1 3.9 2.3 5.5 2 13.9 -0.6 16.4 -5.5 20.9 -22.5 21 l-9.3 0 0 -22.1z m14 11.6 c11 -5.7 9.9 -20.5 -1.7 -24 l-2.3 -0.6 0 13 c0 7.2 0.2 13.1 0.5 13.1 0.4 0 1.9 -0.7 3.5 -1.5z"/>
  <path d="M1980.1 1323.3 c0 -2.1 2.8 -11.9 6.3 -21.8 l6.3 -18 5 -0.3 5.1 -0.3 6.6 19.6 c3.6 10.8 6.6 20.8 6.6 22.1 0 2.4 -0.2 2.5 -5.6 2.2 l-5.6 -0.3 -2 -6.3 -1.9 -6.3 -3.6 0.3 c-3.4 0.3 -3.6 0.5 -5.5 6.6 l-1.9 6.2 -4.9 0 -5 0 0.1 -3.7z"/>
  <path d="M2061 1324.7 c-6.1 -4 -7.5 -7.8 -7.5 -19.7 0 -11.9 1.4 -15.7 7.6 -19.8 3 -2.1 4.3 -2.3 11.5 -2 9.8 0.4 12.4 2 12.4 7.8 0 2 -0.5 4.1 -1.2 4.8 -1.4 1.4 -7.8 1.7 -7.8 0.4 0 -0.5 -1.1 -1.4 -2.5 -2 -2.1 -1 -2.9 -0.8 -5.4 1.4 -6.2 5.2 -6.2 13.6 0 18.9 3.8 3.1 4.4 3.1 7.5 0 2.6 -2.6 6.2 -3.2 9.5 -1.5 2.7 1.5 2.6 7.1 -0.3 9.7 -3.9 3.5 -6.4 4.3 -13.6 4.3 -5.5 0 -7.6 -0.5 -10.2 -2.3z"/>
  <path d="M2127 1305 l0 -22 5 0 5 0 0 22 0 22 -5 0 -5 0 0 -22z"/>
  <path d="M2187.1 1325.3 c-5.7 -2.8 -8.4 -8.2 -8.9 -17.9 -0.5 -10.2 1.2 -15.8 6.3 -20.3 4.1 -3.5 8.2 -4.5 17 -3.9 7.3 0.4 10.8 2.4 13.9 7.8 2.5 4.2 3.4 18 1.6 23.4 -1.6 4.8 -5.6 9.6 -9.7 11.2 -4.5 1.9 -16 1.8 -20.2 -0.3z m14.4 -10.3 c4.4 -2.7 7 -9 5.5 -13.5 -2.2 -6.7 -7.8 -9.5 -12.8 -6.5 -7.7 4.7 -7.3 16.1 0.7 20.5 3.3 1.8 2.8 1.8 6.6 -0.5z"/>
  <path d="M2259 1304.9 l0 -22 5.2 0.3 5.2 0.3 6.3 10.5 6.3 10.5 0 -10.7 0 -10.8 5 0 5 0 0 22.1 0 22 -5.1 -0.3 -5.1 -0.3 -6.4 -10.5 -6.4 -10.4 0 10.7 0 10.7 -5 0 -5 0 0 -22.1z"/>
  <path d="M1593.9 1308.1 c-2.1 -1.7 -2.4 -2.8 -2.4 -9.1 0 -6.3 0.3 -7.4 2.4 -9.1 2.6 -2.1 12.7 -2.7 16.1 -0.9 3.7 2 5.2 11.7 2.5 16.9 -1.8 3.6 -3.2 4.1 -10.5 4.1 -4.2 0 -6.4 -0.5 -8.1 -1.9z"/>
  <path d="M538 839 l0 -4 4 0 4 0 0 4 0 4 -4 0 -4 0 0 -4z"/>
  <path d="M1939.7 726.3 c-0.4 -0.3 -0.7 -2.1 -0.7 -4 0 -3.2 0.1 -3.3 4 -3.3 l4 0 0 4 c0 3.9 -0.1 4 -3.3 4 -1.9 0 -3.7 -0.3 -4 -0.7z"/>
  <path d="M308.8 644.8 c-2.6 -0.9 -2.8 -1.3 -2.8 -6.8 0 -6.7 1.2 -8 7.5 -8 6.3 0 7.5 1.3 7.5 7.8 0 3.2 -0.5 6.3 -1.2 7 -1.4 1.4 -7.2 1.4 -11 0z"/>
  <path d="M1139 599.5 c0 -3.3 0.2 -3.5 3.5 -3.5 3.3 0 3.5 0.2 3.5 3.5 0 3.3 -0.2 3.5 -3.5 3.5 -3.3 0 -3.5 -0.2 -3.5 -3.5z"/>
  <path d="M859 579 l0 -4 4 0 4 0 0 4 0 4 -4 0 -4 0 0 -4z"/>
  <path d="M2163 311 c0 -3.9 0.1 -4 3.5 -4 3.4 0 3.5 0.1 3.5 4 0 3.9 -0.1 4 -3.5 4 -3.4 0 -3.5 -0.1 -3.5 -4z"/>
  <path d="M1856 257 c0 -3.9 0.1 -4 3.5 -4 3.4 0 3.5 0.1 3.5 4 0 3.9 -0.1 4 -3.5 4 -3.4 0 -3.5 -0.1 -3.5 -4z"/>
  <path d="M2350 139 c0 -2 0.5 -3 1.5 -3 1 0 1.5 1 1.5 3 0 2 -0.5 3 -1.5 3 -1 0 -1.5 -1 -1.5 -3z"/>
  <path d="M301 62 l0 -4 4 0 4 0 0 4 0 4 -4 0 -4 0 0 -4z"/>
  <path d="M2337 58 c0 -5 0 -5 3.3 -5 4.3 0 5.7 1.5 5.7 6.2 l0 3.8 -4.5 0 -4.5 0 0 -5z"/>
  <path d="M2212.4 32.6 c-0.3 -0.8 -0.4 -2.7 -0.2 -4.3 0.3 -2.5 0.7 -2.8 4.6 -3.1 l4.3 -0.3 -0.3 4.3 c-0.3 4.2 -0.4 4.3 -4.1 4.6 -2.6 0.2 -3.9 -0.1 -4.3 -1.2z"/>
 </g>
 <g fill="none" stroke="#ffffff" stroke-width="1">
  <path d="M0 860.5 l0 -860.5 1176.5 0 1176.5 0 0 860.5 0 860.5 -1176.5 0 -1176.5 0 0 -860.5z m1751.4 840.1 c16.7 -5.1 23.1 -21.2 34.1 -86.5 6.3 -37.7 7.1 -50.5 5.5 -92.6 -0.8 -23.9 -0.9 -32.8 0 -35 1.4 -3.8 6.1 -8.6 17.5 -18.3 5 -4.2 18.1 -16.5 29.2 -27.4 11.1 -10.9 20.6 -19.8 21.1 -19.8 0.6 0 1.5 4.6 2.2 10.3 2.7 22.7 5.1 29 13.5 34.9 8.1 5.7 19.1 4.3 33.6 -4.2 6.9 -4.1 12.6 -9.3 33.5 -31.2 7.3 -7.5 14.7 -14.4 16.5 -15.3 3.2 -1.7 3.3 -1.7 5.5 0.9 1.3 1.4 3.5 6.5 4.9 11.3 3.7 12.1 7.9 19.6 15 26.7 7.3 7.3 16.1 12 26.5 14.2 9.3 2 16.9 1.4 34.4 -2.7 9.7 -2.3 15.9 -3.1 24.5 -3.3 14.7 -0.3 19.4 -2.1 31.9 -12 10.6 -8.3 22.3 -14.8 36.6 -20.1 6.8 -2.5 10.7 -3.4 12.6 -3 3.8 0.8 18.8 11 27.5 18.5 5.2 4.5 11.4 8.3 23.5 14.5 27.3 13.7 42.6 19.9 65 26.1 13.5 3.7 22.1 6.6 25.1 8.5 6 3.8 9.4 3.7 13.6 -0.3 3.8 -3.6 4.4 -8.5 1.6 -11 -1 -0.9 -10.6 -4.1 -21.3 -7.2 -25.8 -7.3 -53.1 -16.6 -63.3 -21.5 -11.8 -5.7 -31 -18.1 -39.8 -25.7 -15.6 -13.4 -21.4 -15.9 -35.9 -15.2 -5.7 0.3 -11.1 1.2 -13.5 2.2 -5 2.1 -16.4 4.6 -16.9 3.7 -0.3 -0.4 -0.1 -1.3 0.5 -2.1 1.7 -2.8 1 -13.8 -1.2 -18.1 -3.7 -7.3 -14.6 -10 -23.7 -5.9 -15.1 6.8 -28.8 24.8 -36.2 47.4 -2.7 8.4 -4.8 10.6 -12.3 13.5 -17.3 6.4 -34.9 2.2 -49 -11.9 -8.2 -8.3 -11.3 -14.6 -16.2 -33 -3.9 -14.6 -5.7 -17.7 -9.8 -16.6 -3.5 0.8 -20.9 13.9 -30.4 22.8 -4.3 4 -15 14.3 -23.8 22.9 -13 12.8 -16.8 15.9 -19.7 16.4 -12.1 2.3 -19.7 -11 -18.6 -32.4 0.4 -7.7 1.4 -12.2 4.8 -22.7 4.4 -13.5 4.6 -16.6 1.4 -19.8 -1.6 -1.7 -6.1 -2.1 -8 -0.8 -0.7 0.4 -6.8 8.1 -13.8 17.1 -14.8 19.5 -27.5 33.8 -38.9 44.3 -12.5 11.4 -30.8 25.8 -32.8 25.8 -1.2 0 -3.4 -2.8 -6.6 -8.7 -3.1 -5.7 -7.1 -11.1 -11.2 -15.2 -7.3 -7.3 -7.2 -5.6 -1.6 -21.1 4.5 -12.2 2.5 -22.9 -5.7 -30.7 -9.1 -8.7 -21.1 -8.4 -39.3 1 -13.2 6.8 -30.1 24.6 -34 35.7 -2.4 6.7 -1.9 14.7 1.1 20.8 5.3 10.7 15.9 13.2 40.4 9.6 6.9 -1 15.9 -1.9 20.1 -1.9 6.6 0 8.1 0.3 11.7 2.8 6 3.9 9.4 9.6 10 16.4 l0.5 5.5 -7.4 7 c-10.7 10.1 -31.7 28.8 -45.1 40.1 -22.8 19.2 -45.9 45.1 -53.1 59.7 -3 6.1 -3.2 7 -3.2 17.7 l0 11.3 7.8 15.2 c11 21.2 23.2 39.4 33.7 49.9 8 8.1 19.4 16.1 26.5 18.7 4.3 1.5 13.4 1.4 18.9 -0.2z m-1120.4 -142.1 c0 -6.2 0.1 -6.5 1.9 -5.5 2.9 1.5 7.3 1.2 10 -0.6 4.9 -3.5 6.6 -13 3.3 -19.4 -2.1 -4.4 -5.8 -5.8 -11.2 -4.3 -2.2 0.5 -4 0.6 -4 0.2 0 -0.5 -0.9 -0.9 -2 -0.9 -1.9 0 -2 0.7 -2 18.5 0 17.8 0.1 18.5 2 18.5 1.8 0 2 -0.7 2 -6.5z m-219.8 -5.6 c1.4 -0.8 2.3 -0.8 3.1 0 1.8 1.8 5 1.4 4.3 -0.5 -0.3 -0.9 -0.6 -9.4 -0.6 -19 0 -16.7 -0.1 -17.4 -2 -17.4 -1.8 0 -2 0.7 -2 6.4 l0 6.5 -5.4 -0.6 c-5 -0.5 -5.6 -0.4 -9.1 2.9 -3 2.7 -3.8 4.3 -4.2 8.1 -0.6 5.5 0.9 9.9 4.5 12.7 2.7 2.2 8.2 2.6 11.4 0.9z m81.6 -0.9 c2.8 -1.7 3.2 -2.3 2.2 -3.5 -1.1 -1.3 -1.6 -1.2 -3.7 0.5 -4.4 3.4 -9.5 2.5 -11.8 -2.1 -2.9 -5.5 -2.4 -5.9 7.1 -5.9 l8.7 0 -0.6 -4.2 c-0.7 -5.5 -4.3 -8.8 -9.5 -8.8 -8.7 0 -13.5 9.1 -10.1 18.9 2.3 6.5 11.2 9 17.7 5.1z m74.1 0.5 c4.5 -2.3 5.5 -7.1 2.1 -10.5 -1 -1 -4.4 -2.7 -7.5 -3.6 -3.1 -0.8 -5.9 -2.2 -6.2 -3 -1.5 -3.8 6 -6 10.4 -2.9 1.7 1.2 2.3 1.2 3.2 0.1 3.3 -3.9 -11.6 -6 -15.8 -2.2 -2.4 2.2 -2.7 5.4 -0.8 8 0.7 0.9 4.2 2.7 7.7 4 6.9 2.5 8.7 4.9 5.4 7.3 -2.6 1.9 -7.8 1.6 -10.7 -0.7 -2 -1.6 -2.7 -1.7 -3.6 -0.6 -1.1 1.4 0.7 3.7 3.9 4.9 2.9 1.1 9.1 0.7 11.9 -0.8z m156.9 -0.5 c2.8 -1.7 3.2 -2.3 2.2 -3.5 -1.1 -1.3 -1.6 -1.2 -3.7 0.5 -4.4 3.4 -9.5 2.5 -11.8 -2.1 -2.9 -5.5 -2.4 -5.9 7.1 -5.9 l8.7 0 -0.6 -4.2 c-0.7 -5.5 -4.3 -8.8 -9.5 -8.8 -8.7 0 -13.5 9.1 -10.1 18.9 2.3 6.5 11.2 9 17.7 5.1z m63.2 -8.3 c0 -10.1 0.1 -10.4 2.5 -11.5 4 -1.8 8.3 -1.5 9.5 0.7 0.5 1.1 1 6.3 1 11.5 0 8.9 0.1 9.6 2 9.6 1.9 0 2 -0.7 2 -10.5 0 -9.9 -0.2 -10.7 -2.5 -13 -2.6 -2.7 -6.5 -3.2 -11.2 -1.4 -1.9 0.7 -2.9 0.7 -3.1 0 -0.2 -0.6 -1.2 -1.1 -2.3 -1.1 -1.8 0 -1.9 0.9 -1.9 13 0 12.3 0.1 13 2 13 1.9 0 2 -0.7 2 -10.3z m88.9 8.8 c4.5 -2.3 5.5 -7.1 2.1 -10.5 -1 -1 -4.4 -2.7 -7.5 -3.6 -3.1 -0.8 -5.9 -2.2 -6.2 -3 -1.5 -3.8 6 -6 10.4 -2.9 1.7 1.2 2.3 1.2 3.2 0.1 3.3 -3.9 -11.6 -6 -15.8 -2.2 -2.4 2.2 -2.7 5.4 -0.8 8 0.7 0.9 4.2 2.7 7.7 4 6.9 2.5 8.7 4.9 5.4 7.3 -2.6 1.9 -7.8 1.6 -10.7 -0.7 -2 -1.6 -2.7 -1.7 -3.6 -0.6 -1.1 1.4 0.7 3.7 3.9 4.9 2.9 1.1 9.1 0.7 11.9 -0.8z m71.7 -0.4 c3 -1.8 3.1 -1.8 4.3 0.1 0.8 1.3 2.1 1.8 3.9 1.6 3 -0.3 4.5 -3.7 1.5 -3.4 -1.6 0.1 -1.9 -1 -2.3 -9.2 -0.4 -8.3 -0.8 -9.6 -2.9 -11.3 -2.9 -2.4 -8.4 -2.4 -13.3 -0.1 -2.7 1.2 -3.5 2.1 -2.9 3 0.7 1.2 1.4 1.1 3.9 -0.2 5.9 -3.1 11.2 -1.6 11.2 3 0 1.8 -0.7 2.3 -4.7 2.9 -5.8 0.8 -9.9 2.8 -11.3 5.4 -3.9 7.5 4.6 13.1 12.6 8.2z m157.5 0.3 c5.6 -2.8 7.6 -12.5 4.1 -19.4 -2.1 -4.4 -5.8 -5.8 -11.2 -4.3 l-4 1 0 -6.8 c0 -6.2 -0.2 -6.9 -2 -6.9 -1.9 0 -2 0.7 -2 18.3 0 10.1 0.3 18.7 0.7 19 1.3 1.3 11.4 0.7 14.4 -0.9z m80 -0.1 c5.5 -3.3 7.4 -11.3 4.3 -17.9 -4.1 -8.6 -16.8 -8.4 -20.9 0.2 -5.7 12 5.7 24.1 16.6 17.7z m74.9 -0.2 c0 -1.4 -0.6 -1.7 -2.6 -1.3 -3.7 0.7 -4.4 -1 -4.4 -11 l0 -8.8 3 0 c2 0 3 -0.5 3 -1.5 0 -1 -1 -1.5 -3 -1.5 -2.8 0 -3 -0.3 -3 -3.5 0 -2.8 -0.4 -3.5 -2 -3.5 -1.6 0 -2 0.7 -2 3.5 0 2.8 -0.4 3.5 -2 3.5 -1.1 0 -2 0.7 -2 1.5 0 0.8 0.9 1.5 2 1.5 1.9 0 2 0.7 2 9.9 0 9.2 0.2 10.1 2.2 11.5 3.3 2.3 8.8 2.1 8.8 -0.3z m67.6 0 c3 -1.8 3.1 -1.8 4.3 0.1 0.8 1.3 2.1 1.8 3.9 1.6 3 -0.3 4.5 -3.7 1.5 -3.4 -1.6 0.1 -1.9 -1 -2.3 -9.2 -0.4 -8.3 -0.8 -9.6 -2.9 -11.3 -2.9 -2.4 -8.4 -2.4 -13.3 -0.1 -2.7 1.2 -3.5 2.1 -2.9 3 0.7 1.2 1.4 1.1 3.9 -0.2 5.9 -3.1 11.2 -1.6 11.2 3 0 1.8 -0.7 2.3 -4.7 2.9 -5.8 0.8 -9.9 2.8 -11.3 5.4 -3.9 7.5 4.6 13.1 12.6 8.2z m70.4 -8.4 c0 -10.1 0.1 -10.4 2.5 -11.5 4 -1.8 8.3 -1.5 9.5 0.7 0.5 1.1 1 6.3 1 11.5 0 8.9 0.1 9.6 2 9.6 1.9 0 2 -0.7 2 -10.5 0 -9.9 -0.2 -10.7 -2.5 -13 -2.6 -2.7 -6.5 -3.2 -11.2 -1.4 -1.9 0.7 -2.9 0.7 -3.1 0 -0.2 -0.6 -1.2 -1.1 -2.3 -1.1 -1.8 0 -1.9 0.9 -1.9 13 0 12.3 0.1 13 2 13 1.9 0 2 -0.7 2 -10.3z m79 -2.7 c0 -12.3 -0.1 -13 -2 -13 -1.9 0 -2 0.7 -2 13 0 12.3 0.1 13 2 13 1.9 0 2 -0.7 2 -13z m76 10.5 c1.6 -1.4 1.7 -2.1 0.8 -3.2 -0.9 -1.1 -1.5 -1 -3.3 0.7 -2.9 2.7 -6.7 2.5 -9.6 -0.6 -1.9 -2.1 -2.4 -3.6 -2.4 -8.1 0 -4.6 0.4 -5.8 2.4 -7.4 2.8 -2.3 5.9 -2.4 8.8 -0.4 1.8 1.3 2.2 1.3 3.3 0 0.9 -1.1 0.6 -1.7 -1.9 -2.9 -10.7 -5.6 -20.3 4.9 -16 17.3 2.3 6.6 12.8 9.2 17.9 4.6z m69.6 0.6 c3 -1.8 3.1 -1.8 4.3 0.1 0.8 1.3 2.1 1.8 3.9 1.6 3 -0.3 4.5 -3.7 1.5 -3.4 -1.6 0.1 -1.9 -1 -2.3 -9.2 -0.4 -8.3 -0.8 -9.6 -2.9 -11.3 -2.9 -2.4 -8.4 -2.4 -13.3 -0.1 -2.7 1.2 -3.5 2.1 -2.9 3 0.7 1.2 1.4 1.1 3.9 -0.2 5.9 -3.1 11.2 -1.6 11.2 3 0 1.8 -0.7 2.3 -4.7 2.9 -5.8 0.8 -9.9 2.8 -11.3 5.4 -3.9 7.5 4.6 13.1 12.6 8.2z m-289.6 -34.1 c0 -0.4 -0.6 -1.3 -1.4 -1.9 -1.1 -0.9 -2.1 -0.2 -4.9 3.3 -2 2.4 -3.4 4.6 -3 4.9 0.6 0.7 9.3 -5.2 9.3 -6.3z m143.8 1.3 c0.5 -1.7 -2.6 -2.9 -4 -1.5 -0.6 0.6 -0.7 1.5 -0.3 2.2 0.9 1.4 3.7 0.9 4.3 -0.7z m-1071 -19.3 c0.9 -1.1 2.7 -3.1 4 -4.4 1.2 -1.3 3.4 -5.2 4.7 -8.7 1.4 -3.5 3.7 -8 5.1 -10 1.4 -2 3.4 -6.1 4.5 -9 1.1 -3 3.3 -7.6 4.9 -10.4 1.6 -2.7 3.4 -7.2 4.1 -10 1.4 -6 3.3 -9.8 6.9 -14.5 1.6 -1.9 3.3 -5.1 3.9 -7.1 0.7 -2 3.2 -6.3 5.8 -9.5 2.5 -3.3 5.6 -8.1 6.8 -10.9 3.3 -7.3 13.8 -24.7 18.8 -31.3 2.4 -3.1 5.4 -7.6 6.5 -9.8 1.2 -2.3 3.2 -5.4 4.5 -7 1.3 -1.6 2.7 -3.8 3.1 -5 0.3 -1.2 4.5 -5.6 9.2 -9.8 8.5 -7.6 8.7 -7.7 12.8 -7.1 6.4 1.1 7.6 2.7 7.6 10.4 0 3.6 -0.6 14.5 -1.4 24.1 -2.5 29.4 -3.9 65.4 -3.2 77.8 1 16 3.9 29.9 8.1 38.2 4.7 9.3 7.1 11 15.4 11 l6.6 0 8 -8 c5.5 -5.5 10.2 -11.7 15 -19.5 3.9 -6.3 11 -17.6 15.8 -25 4.9 -7.5 10.3 -16.4 12.1 -19.8 1.8 -3.4 4.7 -8.3 6.5 -10.9 1.7 -2.6 4.1 -6.8 5.3 -9.5 1.1 -2.6 5.5 -8.6 9.7 -13.2 4.2 -4.5 9 -10.2 10.8 -12.6 2.8 -3.8 16.4 -13.5 19 -13.5 5 0 8.8 15.6 10.4 43 0.6 10.2 2.1 26.3 3.4 35.7 3.3 24.9 7.1 32.2 18.3 35.2 3.1 0.9 5.3 0.9 8.5 0.1 11.2 -3 35.1 -19.5 40.6 -28.2 1.6 -2.3 8.8 -10.6 16.2 -18.3 7.4 -7.7 16.3 -17.3 19.9 -21.4 7.6 -8.7 24.5 -22.4 29.7 -24.2 3.1 -1 3.8 -0.9 4.8 0.4 0.6 0.9 1.6 9.7 2.3 19.9 1.6 25.1 3.4 35.6 8.1 47.9 5.1 13.5 7.8 16.6 17.2 20.2 4.1 1.6 8.6 3.7 10.1 4.8 3.6 2.5 17.1 4.3 25.8 3.4 15 -1.5 45.7 -9.8 57.5 -15.5 9.8 -4.7 12.7 -7.6 12.9 -12.7 0.1 -3.3 -0.2 -3.8 -2.3 -4.1 -1.3 -0.2 -6.5 1.5 -11.6 3.7 -8.4 3.7 -32.4 10.6 -45.4 13.1 -7.6 1.4 -22.7 1.4 -28.6 -0.1 -10.2 -2.5 -17.3 -10.5 -22.8 -25.9 -4.1 -11.3 -4.7 -15.7 -5.6 -38 -0.7 -19.4 -0.9 -20.8 -3.4 -25.7 -3.2 -6.2 -5.5 -8 -13 -9.5 -7.2 -1.5 -8.8 -0.8 -23 10.7 -12.9 10.3 -14.9 12.3 -33.6 33 -27.3 30.2 -44.3 45.6 -54.9 49.6 -6 2.3 -9.8 -2.9 -11.2 -15.4 -0.6 -4.6 -1.6 -10.2 -2.4 -12.3 -0.8 -2.4 -1.6 -11.3 -2.1 -22.8 -0.4 -11.1 -1.3 -20.8 -2.1 -23.5 -0.8 -2.5 -1.4 -6.4 -1.4 -8.6 0 -6.1 -3.7 -20.2 -6.7 -25.7 -5.7 -10.5 -9.9 -11.1 -22.8 -3.4 -14 8.4 -27.6 21.6 -42 40.8 -5.8 7.8 -16.5 25.4 -16.5 27.2 0 0.4 -3.8 6.3 -8.5 13.1 -4.7 6.7 -8.8 13.1 -9.2 14.1 -2 5.5 -18.1 29.2 -20.9 30.7 -1.8 1 -5.7 -1.3 -8 -4.8 -1.9 -2.9 -4.4 -21.3 -5.1 -38 -0.7 -16.8 -0.7 -15.9 0.5 -27.5 0.7 -5.8 1.6 -18.6 2.2 -28.5 0.6 -9.9 1.6 -23.6 2.4 -30.4 0.8 -8.4 1 -13.9 0.3 -16.8 -0.8 -4.1 -1.3 -4.6 -7.5 -7.7 -3.7 -1.9 -9.1 -4.1 -12.1 -5 -13.4 -3.9 -15.8 -2.4 -36.7 22.9 -5.9 7.2 -15.7 22 -30.9 46.8 -6.5 10.5 -27.9 51.3 -32.5 61.7 -1.8 4.1 -7 15.7 -11.6 25.7 -4.6 10 -8.4 19.3 -8.4 20.6 0 5.7 7.1 8.8 10.8 4.7z m684.8 -16.1 c9.7 -1.7 23.2 -8.7 28.4 -14.6 2.8 -3.1 6.4 -5.9 9.5 -7.2 2.7 -1.2 6.7 -4.1 9 -6.4 2.2 -2.4 7.8 -7.2 12.5 -10.7 14.4 -10.8 27.7 -21.8 28.3 -23.4 0.3 -0.8 5 -4.4 10.4 -7.9 5.4 -3.5 11.2 -7.9 12.8 -9.7 2.8 -3 11.5 -8 14.2 -8 4 0 7.5 12.3 11.2 38.8 2.6 19.2 6.6 29.8 13.5 36.4 4.7 4.6 9.4 6.8 14.5 6.8 8.4 0 32.1 -10.3 46.7 -20.3 4.4 -3 9.8 -6.4 12.1 -7.5 2.3 -1.2 6.6 -4.5 9.7 -7.4 21.1 -20.2 29.3 -26.6 35.9 -28.2 3.5 -0.8 3.6 -0.6 7.6 19.4 4.2 20.5 6.9 26 16.6 34.3 11.2 9.6 22 12.2 49 12.1 19.6 -0.1 26.9 -1.6 40.1 -8.2 4.4 -2.2 10.8 -5.2 14.4 -6.7 3.6 -1.5 7.9 -3.7 9.5 -4.9 1.7 -1.2 4.1 -2.7 5.5 -3.3 1.4 -0.6 5.6 -3.6 9.5 -6.8 7.8 -6.4 12.6 -9.1 14.8 -8.2 0.8 0.3 3.5 4.8 6 9.9 9.6 20.2 26.8 30 49.7 28.4 4.7 -0.3 16.2 -1.9 25.6 -3.6 15.9 -2.7 17.8 -3.3 25.5 -7.5 4.6 -2.6 9.5 -5.6 10.9 -6.8 2.9 -2.5 6.3 -10.7 5.5 -13 -1.4 -3.4 -4.5 -2.6 -10.5 2.7 -7.6 6.8 -14.2 9 -35.3 11.7 -21.9 2.8 -30.1 2.4 -38.5 -2.1 -8.7 -4.6 -10.6 -7.5 -14.3 -21.6 -1.7 -6.5 -3.6 -12.7 -4.1 -13.8 -0.5 -1 -1.1 -4 -1.2 -6.6 -0.3 -5.8 -2.5 -9.6 -6.1 -10.2 -2.1 -0.4 -3.4 0.2 -6 3.1 -13.9 14.8 -19.3 19.6 -30.8 27.4 -13.7 9.4 -33.7 19.5 -45.2 22.9 -17.1 4.9 -45.6 2.9 -57.9 -4.2 -11.3 -6.4 -14.5 -13.3 -19.1 -41 -2.2 -13 -4.6 -22.3 -6.3 -24.2 -5.4 -6.3 -27.6 6 -49.7 27.3 -7.3 7.1 -15.2 13.6 -20.3 16.8 -4.5 2.8 -11.2 7.2 -15 9.7 -9.4 6.6 -24.5 13.4 -29.4 13.4 -7.5 0 -11 -3.3 -12.7 -12 -0.5 -2.5 -1.6 -7.4 -2.4 -11 -2.1 -8.6 -5.5 -27.3 -6.2 -33.4 -0.9 -8.9 -9.3 -23.8 -14.3 -25.7 -4.2 -1.6 -10.3 0.5 -22 7.8 -13.9 8.5 -21.7 14.1 -29.5 21.1 -12.6 11.2 -20.2 17.5 -27.2 22.2 -3.8 2.6 -11.9 9.1 -18 14.5 -13.6 12 -26.8 20.9 -34.3 23.2 -3.3 1 -8.8 1.7 -13.2 1.7 -13.2 -0.1 -21.5 -5.5 -27.8 -18.1 -9.4 -18.7 -9.4 -28.6 -0.2 -57.2 6.1 -18.9 6.9 -23.3 4.9 -29 -1.4 -4 -4.1 -5.4 -8.9 -4.6 -3.3 0.6 -4.9 0.1 -10.7 -3.2 l-6.8 -3.8 -12 0 c-11.8 0 -12.1 0.1 -19.9 3.8 -11.9 5.7 -26 16.3 -33.8 25.4 -12.1 14.1 -12.8 15.1 -14.6 20 -0.9 2.6 -3.4 7.8 -5.5 11.6 -3.6 6.2 -3.9 7.5 -4.4 16.7 -0.7 12.2 0.8 17 7.1 22.8 5.6 5.1 12.9 7.6 20.4 6.9 19.1 -1.9 30.1 -8.2 49.8 -28.7 5.2 -5.4 6.6 -6.3 8 -5.4 2.1 1.2 3.9 6.2 6.3 17.1 2.4 10.7 10.4 25.7 16.7 31.2 8.2 7.2 15.7 9.7 29.5 10 3.6 0 9.2 -0.4 12.5 -1z m-899.1 -60.3 c11.4 -2.9 26.9 -10.2 32.5 -15.2 4.4 -4 12.3 -16.2 14.5 -22.3 2.7 -7.7 10.7 -20.8 22.9 -37.3 9.2 -12.6 16.4 -20.9 30.2 -34.9 10 -10.1 21 -21 24.5 -24.2 3.5 -3.2 12.7 -11.7 20.4 -18.9 7.7 -7.2 16.3 -14.6 19 -16.3 2.8 -1.8 7.3 -5.2 10 -7.7 12 -10.5 24.4 -20.7 28.2 -23.1 2.3 -1.5 5.6 -3.9 7.5 -5.5 12.8 -11 30.8 -20.4 47.4 -24.7 10.3 -2.7 16.1 -3 32.4 -2 10 0.6 12.7 0.4 20.5 -1.4 11.9 -2.8 19.5 -6.7 28 -14.2 14.4 -12.8 36 -24 64.5 -33.4 4.7 -1.5 13 -4.7 18.5 -7 5.5 -2.3 12.1 -4.5 14.7 -4.9 2.6 -0.4 7.1 -1.5 10 -2.6 6.5 -2.2 30.6 -7 52.8 -10.4 9.1 -1.4 20.3 -3.3 25 -4.1 14 -2.6 59.9 -2.4 81.5 0.3 9.4 1.2 19.3 2.4 22 2.7 2.8 0.3 13.3 1.8 23.5 3.5 47.1 7.5 52.6 8.2 75.3 9.1 12.6 0.5 23.3 1.2 23.9 1.5 0.6 0.4 13 1 27.7 1.5 33 0.9 51.5 2.3 74.6 5.4 9.9 1.3 26.1 3.3 36 4.5 17.2 1.9 33 3.8 51.5 6.1 4.7 0.5 15.7 2.8 24.5 4.9 21 5.2 35.2 7 62.5 8.1 12.4 0.5 27.5 1.1 33.5 1.4 12.7 0.6 51.6 5.1 55.9 6.6 1.7 0.5 8.7 1.8 15.6 2.9 7 1 16.9 3.3 22.1 4.9 5.2 1.7 12.6 3.7 16.4 4.6 3.9 0.9 10.1 2.7 13.9 4.1 10.8 3.9 34.8 8.4 44.6 8.4 4.7 0 15.7 0.5 24.6 1.2 17.9 1.3 35.3 0.2 43.4 -2.7 2.5 -0.9 7 -2.1 10.1 -2.6 7.5 -1.2 13.7 -4 36.8 -16.7 13.4 -7.4 20.9 -12.1 24 -15.3 9.2 -9.2 15.3 -17.3 19.8 -26.2 2.5 -5.1 5.6 -10.5 6.9 -12 3.2 -3.8 8.6 -15.3 11.9 -25.2 2.1 -6.2 2.9 -11.2 3.6 -22.1 l0.9 -14.1 -3.5 -12.9 c-4.1 -14.7 -5 -16.6 -14.4 -27.7 -10.8 -12.9 -28.5 -36.8 -30.5 -41.2 -3 -6.4 -14.3 -20.3 -24.1 -29.5 -15.3 -14.6 -34.6 -28.9 -53 -39.5 -9.3 -5.4 -22.3 -12.9 -28.8 -16.7 -6.5 -3.9 -14.5 -8.1 -17.9 -9.4 -3.3 -1.3 -11.1 -5.3 -17.3 -8.9 -6.2 -3.6 -19.1 -10.3 -28.7 -14.9 -9.5 -4.6 -30.6 -14.8 -46.8 -22.6 -16.2 -7.8 -32 -15.7 -35 -17.5 -17.8 -10.5 -74.5 -38.9 -91.5 -45.8 -37.3 -15.1 -89.8 -30.8 -112.5 -33.6 -4.1 -0.5 -11.1 -1.4 -15.5 -2 -13.5 -1.7 -48.1 -3.4 -54 -2.6 -7.6 0.9 -18.5 -0.3 -19.2 -2.2 -0.8 -2 8.5 -11.3 16.7 -16.8 3.6 -2.4 13.3 -11 21.6 -19.2 14.6 -14.3 27.7 -24.8 41.2 -32.6 3.5 -2 9.3 -6.1 13 -9.1 3.7 -2.9 10.3 -7.2 14.7 -9.4 4.4 -2.2 11.6 -6.1 16 -8.6 4.4 -2.5 9 -4.6 10.2 -4.6 1.3 0 5.5 -1.1 9.5 -2.4 14.1 -4.7 46.3 -5.6 62.8 -1.9 5.2 1.2 13.1 2.6 17.5 3.2 11.5 1.4 38.4 11.9 50.7 19.8 5.1 3.3 11.9 7.4 15.1 9.2 6.2 3.5 23.8 16.4 32.7 24.1 6.1 5.2 18.2 14.4 26.9 20.3 3.1 2.2 8.1 6.2 11.1 9.1 3 2.9 10 8.5 15.5 12.6 5.5 4 15.9 13 23 20 7.2 6.9 17.1 16 22 20 5 4.1 12.6 11.1 17 15.6 4.4 4.5 10.3 10 13 12.3 4.9 4 41.4 39.5 83.9 81.6 19.8 19.6 27.8 28.8 36.7 42.5 2 3 8.7 12 14.9 20 16.8 21.8 39.5 52.3 42.6 57.2 1.4 2.4 8.4 10.2 15.3 17.3 15.3 15.6 33.6 37 42.1 48.9 8.6 12.1 15.4 18.8 21.5 21 2.8 1 6.6 2.9 8.6 4.2 5.5 3.4 22.1 11 28.1 12.8 12.1 3.5 20.7 4.3 35.1 3.3 l13.8 -0.9 9.2 3.2 c10 3.5 19 7.8 25.2 12 2.2 1.5 9.2 5.2 15.5 8.3 6.3 3 15.1 7.9 19.5 10.7 12.4 8.2 90.3 47 108.1 53.9 4 1.6 8.6 3.8 10.3 5 5.1 3.7 23.1 11.8 30.1 13.6 3.5 0.9 12.5 3.8 20 6.5 21.7 7.7 34.8 11.9 45 14.5 13.1 3.2 32.4 5.9 37.4 5.1 2.3 -0.4 6.8 -0.9 10.1 -1.1 3.3 -0.2 9 -1.3 12.6 -2.4 6.5 -2 9.5 -4.3 12 -9.1 1.7 -3.4 2.4 -22.5 1 -27.5 -0.7 -2.2 -1.6 -6.9 -2.1 -10.4 -0.6 -4.5 -2.4 -9.5 -6.4 -17.6 -3.1 -6.2 -5.4 -11.9 -5.1 -12.7 1.7 -4.3 9.5 -6.2 33.5 -7.9 18.5 -1.3 30.5 -1.2 42 0.4 4.7 0.6 15.3 1.2 23.5 1.2 8.3 0 24.7 0.4 36.6 0.9 25.6 1.1 32.8 0 39.8 -6 6 -5.2 10.5 -15 10.9 -24 0.5 -8.6 -0.9 -11.3 -7.1 -14.2 -11.3 -5.2 -44.9 -11.2 -74.6 -13.3 -9.1 -0.6 -17.6 -1.6 -19 -2.1 -3.8 -1.5 -21.9 -2.8 -54.1 -3.7 -21.6 -0.7 -31.3 -1.4 -39.9 -3 -14.2 -2.6 -17.8 -3.7 -19.2 -6.3 -0.9 -1.7 -0.4 -2.6 3.4 -6.3 2.5 -2.3 6.7 -5 9.3 -6 2.7 -1 8.7 -3.3 13.4 -5.1 4.7 -1.8 11.2 -3.8 14.5 -4.4 6.4 -1.3 40.1 -12.2 44.4 -14.4 1.4 -0.8 5.8 -2.1 9.6 -3.1 3.9 -0.9 14.2 -3.8 23 -6.5 18.9 -5.7 35.7 -9.4 51.4 -11.5 6.2 -0.8 13.2 -2 15.5 -2.6 6.4 -1.7 19.3 -8.8 22.2 -12.2 2.5 -2.9 2.6 -3.7 2.1 -10.3 -0.7 -9.5 -3.4 -15.5 -8.8 -19.3 -2.3 -1.7 -4.6 -3.1 -5.1 -3.1 -0.5 0 -3.3 -1.1 -6.2 -2.5 -8.1 -3.8 -14.8 -4.6 -34.3 -4.2 -17.4 0.4 -18.2 0.5 -35.8 5.1 -19.4 5.1 -61.1 12.8 -79 14.6 -6 0.6 -13.9 1.7 -17.5 2.5 -12.1 2.6 -36.5 5.7 -41.8 5.3 -8.9 -0.8 -13.5 -6.6 -10.2 -12.8 2.5 -4.7 11.4 -14.8 14.8 -16.9 17.3 -10.5 30.7 -17.7 35.7 -19.2 3.3 -1 12.5 -5.2 20.5 -9.2 8 -4 20.4 -9.3 27.5 -11.7 7.2 -2.4 16.6 -6.3 21 -8.6 4.4 -2.3 11.3 -5.4 15.3 -6.9 5.7 -2.3 8.8 -4.3 15.2 -10.2 11 -10.2 11.5 -14.7 2.8 -22.9 -4.3 -4.1 -16.3 -11.8 -23.5 -15.1 -5.1 -2.4 -6.3 -2.5 -14.7 -2 -5 0.4 -10.9 1.2 -13.1 1.8 -2.2 0.6 -16.1 6.3 -30.9 12.6 -14.9 6.3 -32 13.1 -38 15 -6.1 1.9 -12.8 4.4 -14.9 5.5 -2.1 1 -7.7 3.3 -12.5 5 -14.9 5.2 -25.1 9.6 -43.7 18.8 -16.4 8.2 -18.8 9.1 -26.8 10.1 -4.8 0.6 -10.3 0.8 -12.1 0.5 -4 -0.8 -11.6 -6 -11.6 -8 0 -0.8 5.3 -6.3 11.7 -12.3 6.5 -5.9 16.1 -15.1 21.4 -20.3 12.3 -12.2 22.2 -20.9 34 -29.9 5.2 -3.9 12.1 -9.4 15.4 -12.2 3.3 -2.7 8 -5.9 10.5 -7.1 2.5 -1.2 8.9 -5.3 14.2 -9.1 11.8 -8.5 14.4 -12.6 13.4 -21 -0.3 -2.9 -1.4 -6.3 -2.4 -7.7 -1 -1.3 -7.3 -5.3 -14 -8.7 -13.3 -6.9 -17.8 -7.7 -24.9 -4.8 -2 0.8 -10.6 6.4 -19.2 12.3 -8.6 6 -22.6 15 -31.3 20.1 -15.8 9.4 -32.1 21 -41.9 29.9 -6.6 5.9 -29.5 23.4 -35.4 27 -2.4 1.5 -10.9 7.7 -19 13.8 -9.5 7.3 -19.1 13.5 -27.6 18 -7.2 3.8 -15 8.5 -17.2 10.4 -2.3 2 -6.2 4.9 -8.7 6.5 -2.4 1.7 -10.9 9 -18.8 16.4 l-14.3 13.4 -5.2 -2.7 c-6.3 -3.1 -8.6 -3.2 -25.3 -0.6 -7.1 1.1 -16.9 2.3 -21.9 2.6 -8.1 0.6 -9.7 0.4 -15.8 -2 -11.7 -4.4 -31.9 -15.4 -40.4 -21.9 -4.5 -3.4 -11.4 -8.8 -15.5 -11.9 -9.5 -7.4 -48.7 -46 -61.4 -60.6 -5.4 -6.3 -12.1 -14.6 -14.9 -18.6 -2.7 -4 -7.1 -9.7 -9.6 -12.7 -2.5 -3 -6.1 -7.6 -7.9 -10.4 -1.8 -2.7 -8.1 -9.9 -14 -16 -5.9 -6 -12.3 -13.1 -14.1 -15.6 -1.9 -2.6 -12.4 -14.7 -23.4 -26.9 -24 -26.8 -29.3 -33 -44 -52.5 -6.2 -8.2 -19.8 -25.6 -30.1 -38.6 -22.8 -28.6 -39.1 -51.1 -45.4 -62.7 -9.4 -17.6 -12.4 -22.8 -14.7 -25.6 -1.3 -1.6 -3.5 -5.1 -4.9 -7.9 -1.4 -2.7 -5.9 -9.9 -10 -15.9 -11.9 -17.7 -24.7 -44.2 -34.8 -72.1 -6.2 -17.1 -6.1 -18.2 1.4 -20.6 4.2 -1.3 12.2 -10 20 -21.6 9.9 -14.7 12.2 -16.5 46 -36 18.4 -10.7 24.3 -14.7 32.5 -22.5 3.9 -3.6 12.2 -11 18.7 -16.3 17 -14 36.1 -36.7 47.5 -56.1 17.7 -30.1 31.7 -58.2 34.8 -69.9 5.1 -18.9 6.8 -45.2 4 -62.7 -3.8 -23.4 -7.5 -37.2 -12.4 -46.6 -5.6 -10.7 -22.3 -34.6 -29.5 -42.3 -8.7 -9.2 -41.8 -32.6 -53.6 -37.8 -3 -1.4 -11.6 -5.3 -19 -8.8 -19.5 -9.1 -26.3 -11.2 -41 -12.4 -6.9 -0.6 -16.8 -1.9 -22 -2.9 -8 -1.6 -13.7 -1.9 -36 -1.8 l-26.5 0.1 -16 5.7 c-17.7 6.2 -33.9 12.2 -39.9 14.6 -2.1 0.9 -6.1 3.9 -9 6.7 -2.8 2.9 -7.3 6.9 -10.1 9 -2.7 2.1 -7.5 6.2 -10.5 9 -3 2.9 -10.2 8.6 -16 12.7 -11.7 8.5 -21.1 17.7 -26 25.6 -1.8 2.9 -4.5 5.9 -6.1 6.8 -1.9 0.9 -3.8 3.3 -5.3 6.7 -1.3 2.9 -4.6 7.8 -7.2 10.9 -8.8 10.2 -22.7 26.2 -28.6 32.7 -6.9 7.6 -21.1 28.2 -24 34.9 -2.9 6.5 -2.9 16.1 0.1 22.7 3.7 8.4 14.6 18 28.9 25.5 3.5 1.8 7.4 4.7 8.8 6.3 2.2 2.6 2.3 3.2 1.1 5.1 -0.8 1.1 -6.5 5.8 -12.7 10.3 -16.3 11.7 -19 14.6 -19 19.4 0 11.9 13.8 23.2 37.5 31 5.5 1.7 10.6 3.8 11.3 4.4 3.4 3.1 -4.2 8.6 -26.2 18.9 -12 5.6 -15.9 8.7 -18.3 14.4 -3 7.1 -3.4 13.1 -1.8 25.6 1.8 13.8 4 18.7 15 33.6 3.4 4.7 7.4 10.4 8.9 12.8 7.8 12.5 18.8 20.8 38.6 29.1 10 4.2 17.2 9.5 16.8 12.4 -0.4 3 -3.4 3.4 -25.3 3.6 -10.3 0.1 -20.8 0.6 -23.4 1.2 -9.6 2.1 -24.4 8.6 -35 15.5 -17.4 11.1 -17.2 11.1 -32.1 11.7 -16.2 0.6 -25.4 2.9 -35.4 8.9 -3.7 2.3 -10.3 5.6 -14.6 7.3 -4.3 1.7 -8.9 3.9 -10.2 4.7 -1.4 0.9 -7.4 3 -13.4 4.8 -12 3.4 -30.6 11.2 -39.9 16.8 -17.8 10.5 -26.5 17.5 -39.5 31.2 -7.2 7.5 -14.7 14.9 -16.8 16.3 -2.7 1.9 -9.3 3.9 -25.2 7.7 l-21.5 5 -9 6.1 c-28 19.1 -30.5 21.1 -36.6 29.1 -10.6 14.1 -18.7 29 -20.9 38.1 -2.6 11.2 -5.2 31.5 -4.4 35.2 1.2 5.9 4.6 7.7 9.8 5.3 3.6 -1.6 4.6 -6.2 3.9 -17.7 -0.6 -10.2 0.8 -20.1 3.2 -22.1 0.9 -0.8 4.3 -0.5 13.1 1 6.6 1.1 13.5 1.8 15.4 1.5 3.3 -0.6 17.3 0.7 24.3 2.1 3.3 0.7 3.4 1.9 0.6 9.6 -2.5 6.7 -10.1 15.6 -16.5 19.1 -2.3 1.2 -6.2 3.5 -8.8 5 -2.5 1.6 -9.9 5 -16.3 7.5 -10.9 4.2 -12.5 4.6 -21.3 4.7 -5.9 0 -10.4 0.6 -11.9 1.4 -1.3 0.7 -7.5 3.1 -13.7 5.1 l-11.3 3.8 -21.8 0.3 -21.8 0.3 -4.6 -2.7 c-2.5 -1.5 -5.8 -2.7 -7.2 -2.7 -2.8 0 -24.1 13.7 -31 19.9 -5.3 4.7 -6.6 7.7 -8.2 18.4 -0.8 5.1 -2.8 13.9 -4.4 19.7 -3.5 11.8 -3.5 12.1 -2 17.2 1.7 6.2 3.3 5.9 25.5 -3.9 22.8 -10.1 35.9 -17.6 45.9 -26.3 3.9 -3.4 8.4 -6.9 10 -7.7 1.7 -0.9 9.1 -5.7 16.5 -10.8 16 -11 26.2 -16.5 30.3 -16.5 1.6 0 5.3 -1.4 8.2 -3 3.1 -1.8 10.8 -4.5 18.2 -6.4 7.1 -1.8 15.4 -4.4 18.4 -5.9 3 -1.4 7.7 -3.3 10.4 -4.3 6.6 -2.3 23.5 -18.8 25.5 -24.9 1.2 -3.7 10.8 -16.8 15.3 -20.7 1 -1 3.5 -1.8 5.3 -1.8 1.9 0 5.1 -0.7 7.2 -1.6 2 -0.9 8 -3.1 13.2 -4.9 14.4 -5.1 28.7 -12.5 36.9 -19.1 1.4 -1.2 5.8 -4.3 9.6 -6.9 8.1 -5.6 18.4 -14.4 27 -23.1 3.3 -3.3 9.8 -9.6 14.5 -14 l8.5 -8 16 -5.3 c8.8 -2.9 17.9 -6.4 20.2 -7.7 2.3 -1.3 4.8 -2.4 5.5 -2.4 2.2 0 22.6 -13 33.8 -21.6 5.8 -4.5 12.4 -9.3 14.5 -10.8 2.2 -1.5 5.5 -3.8 7.4 -5.1 1.9 -1.4 4.3 -2.5 5.4 -2.5 1 0 2.8 -1.1 3.9 -2.5 1.8 -2.3 2.6 -2.5 10.6 -2.5 11 0 39.4 -3.5 44.7 -5.4 2.2 -0.8 4.9 -1.5 6 -1.6 3 0 21.3 -5.9 26 -8.3 7 -3.5 20.8 -13.2 26.5 -18.6 3 -2.9 6.3 -6 7.4 -6.9 1.5 -1.4 4.7 -1.8 19 -2.2 16.8 -0.6 17.2 -0.7 25.8 -4.2 8.4 -3.5 12.4 -5.9 30.2 -18.4 7.2 -5.1 8 -5.4 10 -4.1 3.4 2.3 8 11 13.1 24.4 2.5 6.8 9.7 22.9 15.9 35.6 9 18.3 14 27.2 24.1 42.2 7.1 10.5 14.6 22.7 16.7 27.3 3.8 8 21.8 34.6 30.3 44.7 2.3 2.8 8 10.2 12.7 16.5 4.6 6.3 12 15.6 16.3 20.5 4.3 5 11.7 14.2 16.4 20.5 17.2 23.2 38.6 49.8 51.1 63.5 7 7.7 16.1 18.1 20.2 23 4.1 5 14.3 16.1 22.6 24.7 10.4 10.9 16.5 18.1 19.7 23.6 2.6 4.3 8.7 12.3 13.6 17.8 4.9 5.4 14.1 15.8 20.4 22.9 6.2 7.2 12.9 14.2 14.7 15.6 1.8 1.4 9.6 8.7 17.3 16 7.7 7.4 17 15.7 20.5 18.4 3.6 2.7 8.4 6.5 10.7 8.6 2.4 2 14 8.5 25.8 14.5 l21.5 10.9 13 -0.2 c7.1 -0.1 17.1 -0.9 22.2 -1.7 19.9 -3.4 27.9 1.3 44.7 26.3 7.9 11.7 19.3 26.2 31.4 39.9 11.2 12.7 41.4 39 53 46.1 13.2 8.1 20.9 13.3 26.6 17.9 6.2 5 13.5 8.7 19.6 9.8 2.2 0.3 4.5 1.1 5.2 1.6 1.3 1 25.1 8.5 38.8 12.3 5 1.3 16.9 3.6 26.5 5 13.5 2 20.6 3.6 31 7.2 23.9 8.1 31 12.5 37.6 23.6 2 3.4 6.8 10.9 10.5 16.8 3.8 5.8 8.5 14.3 10.4 18.9 3.3 8 3.5 9 3.5 20.1 0 11.1 -0.1 11.9 -2.5 14.8 -4.2 4.9 -10.9 6.6 -26 6.5 -16.2 -0.1 -28.1 -2.3 -40.3 -7.5 -5 -2.1 -13.8 -5.2 -19.5 -6.8 -5.6 -1.7 -12.9 -3.9 -16.2 -4.9 -3.3 -1.1 -10.9 -3.4 -17 -5.2 -9.7 -2.8 -21.5 -7.9 -39.6 -17.1 -3.1 -1.6 -6.5 -2.9 -7.5 -2.9 -1.1 0 -3.2 -0.7 -4.9 -1.6 -11 -6 -47.9 -24 -54.3 -26.5 -4.2 -1.7 -11.5 -5.1 -16.2 -7.7 -4.7 -2.5 -10.3 -5.5 -12.5 -6.5 -2.2 -1.1 -8.3 -4.8 -13.5 -8.2 -5.2 -3.4 -14 -8.6 -19.5 -11.5 -5.5 -2.9 -12.2 -6.9 -15 -8.8 -6.8 -4.8 -12.9 -7.5 -26.7 -11.6 -11.6 -3.6 -12 -3.6 -29.5 -3.5 -15.1 0 -19 -0.3 -25.7 -2.1 -4.4 -1.2 -9.1 -2.7 -10.5 -3.4 -1.4 -0.8 -7.3 -3.2 -13.1 -5.5 -13.7 -5.5 -23.1 -11.9 -29.5 -20 -5.7 -7.4 -23.2 -28.3 -43 -51.6 -7.5 -8.8 -16.7 -20.5 -20.6 -26 -9.6 -13.7 -12.5 -17.4 -27 -34.9 -14.2 -17.1 -26.6 -33.5 -32.1 -42.4 -2.1 -3.3 -8.2 -10.9 -13.7 -17 -5.4 -6 -11.6 -13.1 -13.7 -15.7 -2.2 -2.5 -5.3 -5.5 -7.1 -6.6 -4.4 -2.8 -50.1 -47 -61.4 -59.4 -2.5 -2.7 -12.8 -12.7 -23 -22.2 -10.1 -9.4 -20.9 -19.7 -23.9 -22.8 -3 -3.1 -8.4 -8 -12 -10.8 -3.6 -2.8 -11.2 -9.6 -17 -15.2 -5.8 -5.6 -14.3 -13 -19 -16.5 -4.7 -3.5 -12.3 -9.5 -17 -13.5 -4.7 -3.9 -12.1 -9.8 -16.5 -13.2 -4.4 -3.3 -13.8 -10.8 -21 -16.7 -36.8 -30.3 -65.8 -46.2 -103.5 -57.1 -22.4 -6.5 -53.6 -7.4 -82.5 -2.4 -8.2 1.4 -29.5 10 -36.4 14.7 -3.1 2.2 -9.2 6.1 -13.6 8.7 -4.4 2.7 -12.3 8.1 -17.6 12.1 -5.3 4 -13.5 9.8 -18.2 12.8 -8.6 5.5 -19.9 14.8 -31.7 26.2 -3.6 3.4 -12.2 10.5 -19.3 15.8 -10 7.6 -13.4 9.6 -16 9.6 -3.9 0 -8.1 -2.6 -12.3 -7.6 -2.6 -3.1 -3.6 -3.6 -5.8 -3 -4 1 -3.2 3.3 3.4 9.8 4.1 4.1 6.1 7 6.6 9.4 1 5.4 0.1 6.4 -5.5 6.4 -8.3 0 -40.8 3 -55.2 5 -20.8 3 -25.9 5.4 -25.9 11.9 0 7.1 3.8 7.9 12.7 2.7 11 -6.5 31.1 -10.1 65.6 -11.8 20.2 -1 28.3 -0.9 43.5 0.2 10.3 0.7 22.5 1.4 27.2 1.5 4.7 0 11 0.6 14 1.2 3 0.7 9.2 1.4 13.7 1.8 4.5 0.3 14.7 2.2 22.5 4.1 7.9 1.8 16 3.4 18 3.4 2.1 0 6.6 1.1 10 2.4 3.5 1.3 9.5 3.3 13.3 4.4 3.9 1.2 12.2 3.9 18.5 6.2 6.3 2.2 14.7 5.1 18.5 6.4 3.9 1.4 9.5 3.4 12.5 4.4 7.4 2.7 30.2 13 31.4 14.2 0.6 0.6 1.7 1 2.4 1 2.5 0 21.1 8.9 33.2 15.8 6.3 3.6 23.4 12.4 38 19.5 14.6 7.1 30 14.7 34.4 16.8 4.3 2.1 8.4 3.9 9.2 3.9 0.7 0 4.6 1.9 8.6 4.3 4.1 2.4 10.7 5.8 14.8 7.7 17.5 7.9 106.7 56.4 118.4 64.3 8.9 6.1 35.1 29.8 42 37.9 6.1 7.2 27.1 36.3 30.3 42 1.7 2.9 6.9 9.7 11.6 15.1 9.4 10.6 15.1 19.8 17.3 28 4.4 15.7 -1 50.9 -9.7 63.2 -1.6 2.2 -5.4 9.2 -8.5 15.4 -5.2 10.6 -6.5 12.3 -16.3 22.1 -8.4 8.4 -12.3 11.5 -18.6 14.7 -4.4 2.3 -11.5 6.2 -15.8 8.7 -10.9 6.2 -25.2 11.2 -38.2 13.2 -13 2.1 -41.7 2.3 -56.8 0.5 -9.8 -1.1 -13.4 -1.9 -48.7 -10.7 -45.5 -11.3 -65.9 -15.5 -82.5 -16.9 -3.8 -0.4 -11 -1.3 -16 -2 -8.9 -1.4 -40.7 -3.8 -68 -5 -8.2 -0.4 -20.8 -1.9 -30.5 -3.6 -9.1 -1.7 -25.9 -4.3 -37.4 -5.9 -11.5 -1.6 -23.2 -3.4 -26 -3.9 -9.9 -2 -60.3 -8.2 -73.6 -9.1 -7.4 -0.5 -27 -2 -43.5 -3.4 -16.5 -1.3 -35.6 -2.7 -42.5 -3.1 -22.8 -1.1 -73.8 -5.5 -80.7 -6.9 -3.7 -0.8 -10.8 -1.9 -15.8 -2.5 -4.9 -0.6 -12.8 -1.7 -17.5 -2.6 -4.6 -0.8 -14.3 -2 -21.5 -2.5 -7.1 -0.5 -15.9 -1.4 -19.4 -2 -18.4 -3.1 -70.6 -2.9 -93.1 0.3 -5.8 0.9 -13.3 1.8 -16.7 2.2 -6 0.6 -6.2 0.5 -8.4 -2.5 -1.3 -1.6 -2.6 -3 -3 -3 -0.4 0 -3 1.4 -5.7 3.1 -2.8 1.7 -6.9 3.5 -9.2 4 -2.3 0.5 -7 2.3 -10.5 3.9 -3.4 1.6 -15 5.5 -25.6 8.6 -10.7 3 -22.5 6.7 -26.4 8.1 -3.8 1.3 -11.5 4 -16.9 5.9 -23.2 8.2 -42.9 18.4 -58.3 30.1 -13.8 10.6 -19.8 13.2 -32.7 14.5 -7.2 0.8 -14.1 0.8 -21.8 0.1 -9.6 -0.9 -12.4 -0.8 -19.3 0.8 -16.3 3.5 -27.6 9.1 -50.5 24.7 -13.2 9.1 -18.9 13.6 -44.4 35.2 -61.8 52.5 -81.7 72.1 -101.7 100.5 -14.1 20 -19 28 -26.4 42.4 -7.1 13.8 -8.3 15.6 -13.4 19.5 -8 6.1 -12.1 8 -24.6 11.1 -21.2 5.3 -42.9 4.3 -47.1 -2 -1.1 -1.7 -2.6 -2.5 -4.5 -2.5 -4.3 0 -6.3 -4.6 -6.3 -14 0.1 -9.4 2.2 -16.6 7.7 -25.5 3.8 -6.2 5 -7.4 12.7 -11.9 5.8 -3.4 11.4 -7.8 17.6 -14 4.9 -5 14 -13.3 20.2 -18.4 12.6 -10.4 14.3 -13.3 12.3 -20.9 -1.6 -5.9 -5 -9.5 -13 -13.7 -8.3 -4.3 -10.6 -4.4 -30.5 -1.5 -13.1 1.9 -14.7 2.4 -22.6 6.7 -7.2 4 -10.6 6.9 -22.6 19.2 -7.8 8 -17.6 18.5 -21.9 23.3 -8.9 10.1 -13.4 12.8 -22 13.4 -10.1 0.7 -14.5 -3.4 -14.5 -13.6 0 -6.7 2 -10.9 9 -18.7 3.3 -3.8 6 -7.1 6 -7.5 0 -1.1 15.5 -13.8 27.1 -22.2 5.9 -4.2 14.4 -9.6 19 -12 7.2 -3.7 8.7 -4.9 10.7 -8.7 1.8 -3.5 2.2 -5.4 1.7 -8.5 -0.8 -5.2 -5.1 -14.8 -7.9 -17.3 -5.2 -4.9 -18.7 -5.6 -30.4 -1.6 -9.6 3.2 -18.3 8.2 -40.2 23.4 -19.5 13.5 -23.2 15.1 -28.8 12.2 -5 -2.6 -8.6 -9.3 -7.7 -14.6 1.3 -8.5 3.8 -11.6 17.5 -21.3 5.8 -4.1 13.1 -9.5 16.2 -12.1 5 -4.1 27.9 -17.4 42.3 -24.5 2.8 -1.3 9.5 -3.8 15 -5.5 12.7 -3.9 15.1 -6.1 14.8 -13.6 -0.2 -7.5 -3.7 -15.8 -8.2 -19.9 -4.3 -3.9 -10.9 -5.3 -18.9 -4.1 -7 1 -26.9 9 -32.3 13 -6 4.4 -11.8 6.4 -18.6 6.4 -11.6 0 -15.6 -4.5 -11 -12.2 3.9 -6.7 9.6 -11.4 17.5 -14.8 4 -1.7 10.5 -5 14.5 -7.5 4 -2.4 10.9 -5.8 15.2 -7.6 4.4 -1.7 9.6 -4.6 11.6 -6.3 4.5 -3.8 28.5 -17.7 35.4 -20.4 11.4 -4.6 20.5 -9.3 22.4 -11.8 2.5 -3.2 2.7 -7.4 0.5 -11.7 -3.1 -6 -10.6 -14.6 -14.2 -16.3 -8.1 -4 -26.9 -2.5 -42 3.2 -15.5 5.9 -21.1 7.4 -23.7 6.4 -6.4 -2.4 -3.9 -8.1 6.3 -14.3 12.9 -7.7 20.5 -10.7 27.5 -10.7 9.5 0 37.9 -2.7 41 -3.9 1.5 -0.6 8 -2.4 14.5 -4 6.4 -1.7 20.1 -5.9 30.4 -9.5 10.3 -3.6 25 -8.3 32.5 -10.5 19.8 -5.8 51.8 -17.4 58.5 -21.3 3.1 -1.8 9.2 -5.2 13.5 -7.6 8.2 -4.5 19.7 -12.5 27.3 -19 2.5 -2.1 9.5 -7.3 15.5 -11.5 6.1 -4.3 13.8 -10 17 -12.8 3.3 -2.8 8.6 -6.9 11.8 -9.1 3.2 -2.2 6.1 -4.6 6.4 -5.3 0.2 -0.8 3 -2.8 6 -4.5 3 -1.7 8.3 -5.8 11.8 -9 7.3 -6.8 10.5 -7.8 19.1 -6 17.5 3.6 28.9 8.8 55.2 24.7 6 3.7 9.9 4.5 26.2 5.4 8.5 0.5 19.8 1.2 25 1.5 8.2 0.5 11.6 0.1 24.9 -2.6 8.5 -1.7 15.8 -3.3 16.3 -3.6 0.4 -0.3 4.5 -0.9 9.1 -1.4 4.6 -0.6 10.5 -1.9 12.9 -3 2.5 -1.1 11.5 -3.5 20 -5.4 8.5 -1.9 21.5 -5.1 28.9 -7 7.4 -1.9 19.3 -4.7 26.4 -6.1 7.2 -1.4 15.7 -3.4 19 -4.5 6.6 -2 32.7 -9.1 55.5 -15 8 -2.1 16.2 -4.5 18.4 -5.4 2.1 -0.9 4.9 -1.6 6.1 -1.6 1.3 0 5.4 -1.3 9.1 -2.9 3.8 -1.6 14.3 -5.3 23.4 -8.2 9 -2.9 18.9 -6.5 22 -8 7.7 -3.8 22.1 -9.5 28.8 -11.4 3.1 -0.9 11.1 -3.6 17.7 -6 6.6 -2.4 14 -4.9 16.5 -5.5 2.5 -0.5 7.4 -1.8 11 -2.6 3.6 -0.9 8.8 -2 11.5 -2.4 2.8 -0.4 9.3 -1.7 14.5 -2.8 5.2 -1.2 19.2 -4 31 -6.2 11.8 -2.3 24.1 -4.8 27.2 -5.6 5.2 -1.3 17.4 -2.8 44.3 -5.4 5.5 -0.6 11.1 -1.3 12.5 -1.6 1.4 -0.3 12.2 -1.6 24 -2.8 19.7 -2 23.2 -2.1 41 -1 10.7 0.6 23.8 0.9 29 0.6 17.1 -0.8 38.3 3.8 72.2 15.9 17.9 6.4 21.1 7.8 43.9 19.5 14.9 7.7 17.8 9.7 31.9 22.4 14.1 12.7 23.1 20.3 27 23 1.9 1.4 5.5 4.3 8 6.6 8.5 7.8 29.6 25 41.3 33.8 7.4 5.5 13.6 11 16.5 14.8 15.2 19.5 17.8 22.3 20.6 22.6 3.3 0.4 5.6 -1.3 5.6 -4 0 -5.3 -16.1 -23.7 -32 -36.7 -27.8 -22.7 -37.8 -31 -42.7 -35.5 -3 -2.7 -9.1 -7.9 -13.7 -11.5 -4.7 -3.6 -14.4 -12.1 -21.7 -18.9 -11.7 -10.9 -14.4 -12.9 -22.8 -16.8 -5.3 -2.5 -14.8 -7.2 -21.1 -10.4 -14 -7.2 -49.3 -22.1 -58.6 -24.9 -3.8 -1.1 -13.6 -3.5 -21.9 -5.3 l-15 -3.3 -36.5 0.2 c-20.1 0.2 -43.2 0.8 -51.5 1.3 -20.1 1.5 -58.4 5.8 -66.5 7.5 -3.6 0.8 -15.3 2.8 -26 4.5 -21.4 3.4 -71.3 13.6 -85.5 17.5 -12.2 3.3 -49.8 16.4 -63.7 22.1 -6.2 2.5 -14.2 5.7 -17.8 6.9 -12.4 4.4 -25.5 9.2 -32 11.8 -3.6 1.4 -9.4 3.3 -13 4.1 -16.7 3.7 -48.4 11.9 -56.5 14.6 -14.6 4.9 -59.3 15.1 -64.4 14.8 l-4.6 -0.3 -5.2 -10 c-5.1 -9.8 -14.3 -31.5 -18.4 -43.1 -3 -8.9 -4.7 -17.7 -7.4 -39.8 -5.1 -41.5 -5.1 -46.4 0 -88.1 1.3 -11 2.7 -26.1 3 -33.5 0.8 -17 4.6 -36.6 12.5 -65.3 8.9 -31.8 15.2 -46.8 29.4 -69.2 4.1 -6.6 9.3 -14.9 11.6 -18.5 2.5 -4 7.1 -9.2 12.1 -13.5 4.4 -3.8 12.1 -11.7 17.1 -17.5 5 -5.8 10.3 -11.4 11.8 -12.5 5.1 -3.8 18.4 -16 25.4 -23.3 15.9 -16.6 69.7 -48.5 103.6 -61.5 5.2 -2 16 -6.2 24 -9.2 8 -3.1 16.6 -6 19.1 -6.5 2.6 -0.5 12.5 -3.8 22 -7.4 9.6 -3.5 21.2 -7.5 25.9 -8.9 10.6 -3.1 33.9 -8.7 36.3 -8.7 0.9 0 6.6 -1.5 12.5 -3.4 11.4 -3.7 12 -3.8 33.7 -5.5 7.7 -0.7 19.1 -1.9 25.4 -2.8 9.4 -1.4 12.5 -1.5 18.2 -0.5 3.8 0.7 15.4 1.2 25.7 1.2 10.3 0 20.2 0.4 22 0.9 1.8 0.6 8.8 1.5 15.5 2.1 8.8 0.9 15 2.1 22.2 4.5 6.6 2.2 12.7 3.5 18 3.8 4.4 0.3 10.1 1.1 12.6 1.8 2.5 0.7 5.3 0.9 6.2 0.6 2 -0.7 2.3 -5 0.5 -6.4 -4.2 -3.2 -29.6 -9.7 -48.3 -12.4 -7.7 -1.1 -15.8 -2.5 -18 -3.2 -2.2 -0.6 -9.4 -1.2 -16 -1.2 -6.6 0 -18.7 -0.4 -27 -0.9 -12.5 -0.7 -16.1 -0.5 -21.5 0.9 -4 1 -14.1 1.9 -26.5 2.5 -25 1.1 -27.2 1.5 -78.5 13.7 -14.7 3.5 -79.2 25.1 -99 33.2 -9.1 3.8 -21.8 9 -28.3 11.6 -19.6 8 -46.7 24.1 -72.7 43.3 -13.7 10.2 -46.7 41.5 -51.2 48.7 -6.2 9.8 -10.8 15.2 -15.5 18.2 -9.6 6.3 -17.3 15.7 -29.6 36.4 -6.4 10.8 -12.6 21.8 -13.7 24.5 -4.3 9.9 -11.3 31.6 -18.5 57.4 -8.1 29 -8.7 33.4 -11.5 81 -0.5 9.6 -1.9 23.6 -3 31 -2.5 17.2 -2.5 21.9 0.5 48 1.3 11.8 2.9 26 3.6 31.5 1.5 13.5 3.5 21.3 13.9 52.9 6.9 21 8.7 27.4 7.7 28.2 -3.5 3.3 -35 11.7 -59.7 16 -14.3 2.4 -16.2 2.5 -24 1.4 -4.7 -0.6 -14.2 -1.5 -21.1 -2 -14.7 -0.9 -15.6 -1.2 -36.7 -13.4 -21.9 -12.7 -34.1 -16.8 -53.1 -18.2 -8.8 -0.7 -8.3 -1 -22.8 12 -4.8 4.3 -13.1 10.9 -18.3 14.7 -5.2 3.7 -13.3 10.3 -18 14.5 -4.7 4.2 -10.1 8.4 -12 9.4 -1.9 1 -8.4 5.8 -14.5 10.6 -6 4.8 -14.1 10.7 -18 13.2 -3.8 2.4 -9.6 6.2 -12.9 8.3 -3.2 2.2 -6.2 3.9 -6.7 3.9 -0.5 0 -8.6 3.3 -18.1 7.4 -9.5 4 -18.9 7.7 -20.8 8.1 -1.9 0.4 -8.7 2.5 -15 4.7 -6.3 2.1 -14.4 4.6 -18 5.4 -3.6 0.8 -8.5 2.6 -11 3.9 -2.5 1.2 -10.2 4.1 -17 6.3 -6.9 2.2 -16.4 5.4 -21.3 7.2 -7.5 2.6 -11.7 3.4 -30 5 -32.1 3 -44.7 5.9 -57 13.2 -12.5 7.3 -15.7 11.5 -15.7 20 0.1 5.6 0.9 7.3 5 10.1 3.9 2.7 8.7 2 25.6 -3.8 18.4 -6.3 33.3 -9.1 39.3 -7.5 4.7 1.2 8.4 4.1 12.2 9.3 5.1 7.1 4.3 8.2 -11.3 14.9 -5.1 2.2 -13.6 6.8 -18.8 10.3 -5.2 3.4 -10.8 7 -12.5 7.8 -1.6 0.9 -5.5 3.4 -8.5 5.7 -3 2.3 -16.5 9.6 -29.9 16.2 -25.9 12.8 -30.5 16 -34.2 24.1 -2.4 5.3 -2.4 9.1 0.1 14.4 3 6.6 6.6 8.3 18.1 8.3 9 0 9.9 -0.2 17.5 -3.9 4.4 -2.1 11 -5.9 14.7 -8.4 8.3 -5.7 12.9 -7.1 23.3 -7.2 9.5 0 11.4 1.1 14.5 8.3 3.8 8.8 2.8 10.2 -11.8 15.7 -9.2 3.4 -23.7 9.9 -31.2 13.9 -9 4.9 -45.9 30.7 -52.8 37.1 -8.9 8.1 -10.1 11.1 -8.4 21.1 1.4 7.9 5.8 16.7 10.5 21.3 l3.3 3.2 8.9 -2.6 c10.1 -3 16.8 -7.1 26.5 -16.1 3.6 -3.4 8.1 -7 10 -7.9 1.9 -1 8.1 -4.6 13.9 -8.1 9.4 -5.6 11.5 -6.5 19.8 -7.9 11 -1.9 12.8 -1.3 17.9 5.3 5.8 7.7 3.8 13.7 -6 18 -6.6 2.9 -36.5 25.1 -45.1 33.5 -9.1 9 -16.2 18.6 -17.7 24 -0.6 2.3 -1.2 7.3 -1.3 11.2 -0.2 9.6 3 15.2 10.9 19 4.7 2.3 6.5 2.7 12.3 2.3 5.6 -0.3 7.9 -1 12.7 -3.8 6.3 -3.8 15.7 -13 22.9 -22.5 2.5 -3.3 9.6 -11.2 15.8 -17.6 9.5 -9.8 12.5 -12.2 18.8 -15.2 4.8 -2.3 10.2 -4 15 -4.7 4.1 -0.6 10 -1.5 13.1 -2.1 10.4 -2 21.8 1.7 25.4 8.4 1.7 3.2 1.7 3.4 -0.3 7.3 -1.1 2.1 -3.9 5.5 -6.3 7.4 -2.4 1.9 -9.1 8 -14.9 13.5 -5.8 5.6 -15.2 13.4 -21 17.5 -15.3 10.9 -17.4 13 -21.1 21.8 -4.5 10.6 -5.9 17.2 -5.9 27.6 0 7.1 0.4 9.5 2 12 1.8 3 7.7 7.8 12.8 10.5 9 4.8 32.6 5.1 49.7 0.7z m1508.5 -109.1 l0 -9.5 6.5 0 c5.1 0 6.5 -0.3 6.5 -1.5 0 -1.2 -1.4 -1.5 -6.5 -1.5 l-6.5 0 0 -6 0 -6 8 0 c7.3 0 8 -0.2 8 -2 0 -1.9 -0.7 -2 -10 -2 l-10 0 0 19 c0 18.3 0.1 19 2 19 1.9 0 2 -0.7 2 -9.5z m83.6 8 c5.3 -2.2 6.4 -5.9 6.4 -22.5 0 -13.2 -0.1 -14 -1.9 -14 -1.8 0 -2 1 -2.3 15 -0.4 18 -0.6 18.5 -9.8 18.5 -9.2 0 -9.4 -0.5 -9.8 -18.5 -0.3 -14 -0.5 -15 -2.3 -15 -1.8 0 -1.9 0.8 -1.9 14 0 16.4 1.1 20.3 6.2 22.5 4.3 1.9 11 1.9 15.4 0z m58.6 -13.7 l0.3 -15.2 9.1 15 c6.6 10.7 9.8 15 11.3 15.2 2.1 0.3 2.1 0.1 2.1 -18.7 0 -18.4 -0.1 -19.1 -2 -19.1 -1.9 0 -2 0.7 -2 15.8 l0 15.7 -9.3 -15.5 c-7 -11.6 -9.8 -15.6 -11.5 -15.8 l-2.2 -0.3 0 19 c0 18.3 0.1 19.1 2 19.1 1.8 0 2 -0.8 2.2 -15.2z m87.4 13.3 c5.7 -2.6 8.6 -7.6 9.1 -15.9 0.4 -5.6 0.1 -7.4 -1.9 -11.1 -3.5 -6.8 -6.3 -8.3 -15.8 -8.9 l-8 -0.5 0 19.2 0 19.1 6.3 0 c3.9 0 7.7 -0.7 10.3 -1.9z m59.2 -4.3 l2 -6.3 6.5 -0.3 6.6 -0.3 1.9 6.3 c1.6 5.3 2.3 6.3 4.4 6.6 2.4 0.3 2.4 0.2 -4 -18.8 -8.4 -25 -8.3 -25 -16.8 -0.5 -3.5 9.9 -6.3 18.3 -6.3 18.8 -0.1 0.4 0.8 0.7 1.9 0.7 1.5 0 2.3 -1.4 3.8 -6.2z m89 4.8 c1.5 -0.8 3.5 -2.3 4.5 -3.4 1.7 -1.9 1.7 -2.1 0.2 -3 -1.3 -0.7 -2.3 -0.3 -4.1 1.5 -4.9 4.9 -13.9 2 -17 -5.3 -4.1 -9.8 1.4 -22.4 9.7 -22.4 3.4 0 7.9 1.9 7.9 3.4 0 0.6 0.8 0.3 1.7 -0.7 1.6 -1.6 1.6 -1.8 -0.4 -3.9 -3.4 -3.3 -11.8 -3.7 -16.2 -0.6 -5.6 3.8 -7.6 8.1 -7.6 16.8 0 5.8 0.5 8.3 2.1 11 4.1 7.1 12.6 10 19.2 6.6z m56.2 -17.6 c0 -18.3 -0.1 -19 -2 -19 -1.9 0 -2 0.7 -2 19 0 18.3 0.1 19 2 19 1.9 0 2 -0.7 2 -19z m70.3 17.6 c7.1 -2.9 11.3 -11.2 10.4 -20.3 -0.9 -9 -5.6 -14.8 -12.9 -15.9 -12.4 -2.1 -21.9 7.8 -20.5 21.2 1.3 12.7 12 19.7 23 15z m61.9 -13.8 l0.3 -15.2 9.1 15 c6.6 10.7 9.8 15 11.3 15.2 2.1 0.3 2.1 0.1 2.1 -18.7 0 -18.4 -0.1 -19.1 -2 -19.1 -1.9 0 -2 0.7 -2 15.8 l0 15.7 -9.3 -15.5 c-7 -11.6 -9.8 -15.6 -11.5 -15.8 l-2.2 -0.3 0 19 c0 18.3 0.1 19.1 2 19.1 1.8 0 2 -0.8 2.2 -15.2z m-659.7 -2.4 c0.8 -0.4 2.3 -2 3.1 -3.6 1.2 -2.4 1.3 -3.6 0.4 -6.4 -1.3 -3.9 -3.5 -5.4 -7.8 -5.4 -4.8 0 -7.7 3 -7.7 8 0 3.2 0.6 4.7 2.4 6.1 2.3 1.9 6.5 2.5 9.6 1.3z m-1289.7 -664.6 c2 -2 1.4 -6.6 -0.9 -7.9 -3.3 -1.7 -6.9 0.3 -6.9 4 0 2.3 0.6 3.2 2.8 3.9 3.6 1.4 3.6 1.4 5 0z m2026.2 -582.7 c0 -0.5 -0.7 -1.4 -1.5 -2.1 -1.3 -1 -1.5 -0.9 -1.5 0.9 0 1.2 0.6 2.1 1.5 2.1 0.8 0 1.5 -0.4 1.5 -0.9z m-125.3 -30.7 c-0.9 -0.9 -2.8 0.6 -2.1 1.8 0.4 0.6 1 0.6 1.7 -0.1 0.6 -0.6 0.8 -1.3 0.4 -1.7z"/>
  <path d="M1732.3 1686.6 c-7.1 -2.3 -10.8 -5.3 -20.5 -16.8 -14.2 -17 -16.5 -20.4 -22.3 -32.3 -10.3 -20.9 -11.8 -33.3 -5.7 -45.8 5 -10 23.7 -31 55.5 -62.3 27.9 -27.4 37.2 -35.2 39.4 -33 0.4 0.4 0.8 17.7 0.8 38.4 0 42.1 -0.2 44.5 -8 90.7 -4.5 26.5 -9.8 47.7 -13.8 54.9 -1.3 2.4 -3.7 4.8 -5.7 5.8 -4.2 2.1 -13.5 2.3 -19.7 0.4z"/>
  <path d="M1713.6 1445.9 c-8.3 -1.2 -10.6 -3 -10.6 -8 0 -8.5 5.4 -15.7 18.5 -24.4 12.7 -8.5 18.5 -10.8 25.6 -10.3 12.2 0.9 13 7.2 3.5 26.3 l-5.7 11.5 -5.2 1.5 c-5 1.4 -19.6 4.6 -20 4.4 -0.1 -0.1 -2.9 -0.5 -6.1 -1z"/>
  <path d="M2071 1437 c0 -9 14.8 -23 24.3 -23 2 0 3.7 0.5 3.7 1 0 4.9 -12 17.9 -20.2 21.9 -5.6 2.7 -7.8 2.7 -7.8 0.1z"/>
  <path d="M632.8 1549.9 c-1.5 -0.8 -1.8 -2.4 -1.8 -8.9 0 -6.8 0.3 -8.1 1.9 -9 3.5 -1.8 6.8 -1.2 9.1 1.8 1.8 2.2 2.1 3.7 1.8 7.9 -0.3 3.2 -1.2 6.1 -2.3 7.3 -1.9 2.1 -5.9 2.6 -8.7 0.9z"/>
  <path d="M403.2 1550.3 c-1.8 -0.7 -4.2 -5.7 -4.2 -8.8 0 -3.8 2.7 -8.4 5.4 -9.1 1.3 -0.3 3.8 -0.4 5.7 -0.2 l3.4 0.3 0.3 8 c0.2 6.6 0 8.2 -1.4 9.2 -1.8 1.3 -6.7 1.6 -9.2 0.6z"/>
  <path d="M478 1536.7 c0 -0.7 0.9 -2.3 2 -3.5 2.7 -2.9 7.4 -2.9 9.4 0 2.9 4.1 2.1 4.8 -4.9 4.8 -4.7 0 -6.5 -0.4 -6.5 -1.3z"/>
  <path d="M709 1536.7 c0 -0.7 0.9 -2.3 2 -3.5 2.7 -2.9 7.4 -2.9 9.4 0 2.9 4.1 2.1 4.8 -4.9 4.8 -4.7 0 -6.5 -0.4 -6.5 -1.3z"/>
  <path d="M939.3 1548.9 c-3.4 -3.5 0 -7.3 7.5 -8.5 l4.2 -0.7 0 3.5 c0 2 -0.7 4.1 -1.5 4.8 -2.2 1.8 -8.8 2.4 -10.2 0.9z"/>
  <path d="M1094.7 1550.3 c-0.4 -0.3 -0.7 -4.4 -0.7 -8.9 0 -7.2 0.3 -8.5 1.9 -9.4 5.6 -3 11.1 1.1 11.1 8.2 0 4.4 -2.1 9.3 -4.5 10.2 -2.2 0.8 -7 0.8 -7.8 -0.1z"/>
  <path d="M1173.6 1547.9 c-4.4 -5.2 -2.6 -15.1 2.9 -16.5 6.1 -1.5 10.5 2.7 10.5 10 0 4.6 -4.1 9.6 -8 9.6 -1.9 0 -3.6 -1 -5.4 -3.1z"/>
  <path d="M1319.3 1548.9 c-3.4 -3.5 0 -7.3 7.5 -8.5 l4.2 -0.7 0 3.5 c0 2 -0.7 4.1 -1.5 4.8 -2.2 1.8 -8.8 2.4 -10.2 0.9z"/>
  <path d="M1614.3 1548.9 c-3.4 -3.5 0 -7.3 7.5 -8.5 l4.2 -0.7 0 3.5 c0 2 -0.7 4.1 -1.5 4.8 -2.2 1.8 -8.8 2.4 -10.2 0.9z"/>
  <path d="M964 1445 c-6.2 -2.4 -8.4 -6.4 -8.4 -14.9 0.1 -11.6 4.9 -20.7 17.4 -33.2 13 -13.1 33.9 -23.8 46.3 -23.9 9.9 0 15.7 4 15.7 11 0 3.6 0.1 3.4 -18.7 29 -11.2 15.1 -25.6 27.2 -37.9 31.7 -7.5 2.7 -8.4 2.7 -14.4 0.3z"/>
  <path d="M2237.5 1136.8 c-3.3 -0.4 -14.5 -1 -25 -1.3 -10.4 -0.2 -20.7 -0.7 -22.7 -1 -2 -0.4 -6.3 -0.1 -9.4 0.5 -6.4 1.4 -42.1 2 -47.3 0.9 -1.9 -0.4 -5.2 -2.1 -7.5 -3.8 -8.4 -6.3 -16.8 -10.3 -34.3 -16.1 -14.3 -4.8 -20.1 -6.2 -28.1 -7 -18.8 -1.8 -30.6 -4.2 -46.7 -9.4 -8.8 -2.9 -17.3 -6 -19 -6.8 -1.6 -0.8 -4.8 -1.9 -6.9 -2.2 -5.7 -1.1 -14.3 -5.7 -20.6 -11.2 -3 -2.6 -11.3 -8.5 -18.3 -13.1 -7 -4.6 -15.4 -10.7 -18.6 -13.6 -6.7 -6 -19 -16.4 -30.5 -25.8 -10.5 -8.6 -21.9 -20.7 -24.7 -26.1 -2 -3.9 -5.8 -9.4 -15.4 -21.8 -5.1 -6.6 -13.5 -19.3 -13.5 -20.5 0 -1.4 19.7 -20.5 30 -29.1 10 -8.4 20 -15 29 -19.2 3.6 -1.6 10.3 -5.8 15 -9.1 4.7 -3.4 13.7 -9.6 20 -13.8 13.8 -9.1 27.7 -19.3 38.5 -28.3 11.6 -9.6 27.1 -21.2 35.1 -26 3.8 -2.4 9.4 -6.2 12.4 -8.5 3 -2.3 9.2 -6.1 13.8 -8.5 4.5 -2.5 11.3 -6.7 15 -9.5 23.9 -17.9 24.7 -18.1 38.7 -11.2 5 2.4 9.7 5.3 10.6 6.3 6.3 7.3 0.9 14.9 -19.2 26.9 -5.3 3.1 -14.7 10 -21 15.2 -6.3 5.3 -14.5 11.7 -18.4 14.3 -3.8 2.7 -14.6 12.5 -24 22 -9.3 9.4 -20.6 20 -25 23.4 -4.4 3.5 -8.9 7.9 -9.9 9.8 -1.8 3.3 -1.8 3.4 0.4 8.1 4.3 9.1 15.6 15.3 26 14.4 5.7 -0.5 23.7 -7.6 35.5 -14.1 3.3 -1.7 8.9 -4.3 12.5 -5.5 3.6 -1.3 14.5 -6.1 24.3 -10.7 9.7 -4.6 19.7 -8.8 22.1 -9.4 2.4 -0.5 8.1 -2.4 12.7 -4.1 4.6 -1.7 12.5 -4.4 17.4 -6.1 5 -1.6 11.3 -4.2 14 -5.7 7.7 -4.3 31 -14 36.7 -15.2 2.7 -0.6 8.2 -0.9 12.1 -0.7 6.4 0.3 8.1 0.9 15.4 5.1 9.4 5.5 16.3 11.9 16.3 15.2 0 4.9 -10 12 -25 17.8 -5.2 2.1 -11.5 4.9 -14 6.3 -2.5 1.4 -9.5 4.5 -15.5 6.9 -6.1 2.3 -15.2 6.3 -20.3 8.9 -5 2.5 -12.7 5.9 -17 7.5 -11.1 4.1 -38 16.9 -42.7 20.3 -6.3 4.5 -17.5 17.7 -20.4 23.7 -3.6 7.8 -3.6 14.5 0.2 19.4 3.8 5.1 5.6 5.8 15.5 6.4 7.9 0.4 10.6 0.1 28.7 -4.2 11 -2.5 26.1 -5.5 33.5 -6.6 21.3 -3 52.2 -8.7 68.5 -12.6 21.9 -5.2 33.2 -6.5 52.5 -6 16.2 0.3 16.6 0.4 23.7 3.6 8.4 3.9 11.7 7.1 13.2 12.8 1.6 5.8 -0.3 10.1 -6.3 14.2 -6 4.2 -11.4 6 -21.1 7.2 -26.2 3.2 -59.7 11 -77.1 17.9 -6.6 2.6 -17.7 6.2 -24.5 8 -31.3 8 -51.9 14.5 -61.1 19.1 -7.2 3.7 -18.3 13.9 -19.8 18.4 -1.3 4.1 0.6 9.5 4.2 11.9 1.2 0.8 7.9 2.9 14.8 4.7 l12.5 3.2 29.5 0.2 c16.2 0.1 32.2 0.7 35.5 1.3 3.3 0.6 17.5 2.1 31.5 3.2 26.9 2.3 55.2 6.8 71.5 11.5 10 3 13.5 4.8 13.5 7.2 0 7.4 -8 17.8 -15.5 20.1 -4.5 1.3 -55.5 1.3 -66 0z m-238.5 -95.3 c5.2 -1.5 12 -4 15.1 -5.6 5.1 -2.5 6.1 -3.5 8.8 -9.1 3.4 -7 5.6 -18 4.8 -23.9 -1.3 -9.9 -14.1 -21.6 -34.7 -31.7 -26.6 -13 -36.1 -14 -57.3 -6 -3.9 1.5 -8.5 7.1 -12.3 15.2 -3.3 6.9 -3.3 7.2 -2 12.1 1.7 6.3 4.8 12.4 7.6 15 1.2 1.1 3.1 3.9 4.2 6.1 1.6 3.5 3.7 6 11.7 13.9 0.6 0.6 3.9 4 7.3 7.7 8.3 8.6 12.2 10 26.8 9.4 7.2 -0.3 13.4 -1.3 20 -3.1z"/>
  <path d="M725.4 794.6 c-2.4 -1.8 -2.3 -9 0.2 -21 2.6 -12.5 5.9 -17.3 17.3 -25 6.2 -4.2 8.5 -4.4 16.1 -1.5 4.7 1.8 6.2 1.9 10.5 1 5.9 -1.2 32 -2.3 35.3 -1.5 1.2 0.4 2.2 1 2.2 1.4 0 2.4 -6.7 8 -19.8 16.6 -8.1 5.3 -15.8 10.7 -17.2 12 -4.6 4.3 -23.4 14.4 -31.3 16.9 -9 2.9 -10.6 3 -13.3 1.1z"/>
  <path d="M898 669.4 c-15 -1.8 -20.5 -3 -26 -5.7 -6.6 -3.2 -7.2 -6 -2.9 -13.3 4.8 -8 16.6 -20.3 23.5 -24.4 3.3 -1.9 7.9 -5.1 10.4 -7.2 5.4 -4.5 21.7 -12.3 28.6 -13.8 2.8 -0.6 8.2 -1 12 -0.8 l6.9 0.3 0.3 4.6 c0.2 2.7 -0.8 9 -2.4 15 -1.6 6.5 -2.8 14.3 -3.1 20.9 -0.5 10.2 -0.5 10.6 2 12.8 3.1 2.9 6.1 2.3 8.1 -1.6 1.2 -2.3 1.1 -4 0 -11.2 -2.1 -12.5 -0.9 -18.8 6.3 -32.8 3.2 -6.2 6.6 -12.1 7.6 -13 2 -1.7 1.1 -1.9 17.8 3.1 10 3 30.6 4.5 37.8 2.9 2.4 -0.6 5 -0.8 5.7 -0.5 2.1 0.8 1.7 5.8 -0.7 7.9 -1.2 1 -3.9 4.2 -5.9 7 -8.7 11.6 -32.9 27.8 -58.2 38.9 -15.1 6.6 -21.1 8.3 -34.5 9.5 -5.7 0.6 -11.4 1.5 -12.8 2 -3.2 1.2 -5.8 1.1 -20.5 -0.6z"/>
  <path d="M1000.1 594.9 c-5.4 -1.1 -11.6 -4.1 -16 -7.9 -3 -2.5 -3.3 -3.2 -2.4 -5.2 2.7 -5.9 14.4 -16.5 33.5 -30.1 5.2 -3.8 24.9 -10.9 29 -10.5 4.8 0.5 5.5 2.7 2.8 8.9 -3.2 7.5 -6.1 25 -4.9 29.4 1.9 6.7 10.8 5.2 11 -1.8 0.5 -19.3 0.4 -19.1 3.5 -25.7 3.5 -7.5 8.2 -13.2 13.5 -16.6 2.1 -1.3 4 -3.2 4.4 -4.3 0.6 -1.9 10.4 -9 17.2 -12.5 3.9 -2 14.6 -4.6 19 -4.6 2.1 0 4.4 1 6.5 2.8 1.8 1.6 8.4 5.5 14.6 8.8 6.3 3.2 11.8 6.7 12.4 7.7 2.7 5.1 -2.6 11.1 -23 26.4 -11.1 8.4 -16.8 11.3 -41.7 21.9 -16.8 7.2 -18.7 7.8 -31 9.4 -7.1 1 -15.7 2.5 -19 3.4 -6.4 1.7 -21.8 2 -29.4 0.5z"/>
  <path d="M1173.5 527.9 c-6.7 -1.1 -12.9 -3.5 -15 -5.9 -1.7 -1.9 -1.7 -2.3 -0.2 -7.1 1 -2.8 1.7 -6.1 1.7 -7.4 0 -5 10.7 -15.6 20.9 -20.5 8 -4 14.2 -5 31 -5 22.4 0 28.1 2.4 28.1 11.8 0 4 0.2 4.4 3.6 5.8 3.6 1.5 3.8 1.5 7.8 -1.6 2.3 -1.7 5.6 -3.8 7.4 -4.6 3 -1.4 3.6 -1.3 5.8 0.1 4.5 2.9 2.6 7.7 -5.5 13.9 -3.3 2.5 -6.4 4.6 -6.9 4.6 -0.5 0 -1.5 0.7 -2.2 1.4 -2.9 3.6 -35.2 12.3 -52.3 14.1 -14.6 1.6 -16.9 1.6 -24.2 0.4z"/>
  <path d="M1291.7 483.6 c-3.2 -1 -7.3 -1.2 -12.1 -0.9 -5.5 0.4 -7.9 0.2 -10.4 -1.1 -4 -2.1 -6.6 -5.9 -5.7 -8.5 0.9 -2.8 7.5 -8.3 14.5 -12 7.1 -3.8 29.6 -11.6 39.5 -13.7 10.8 -2.3 30.1 -5.3 35.8 -5.5 5.8 -0.3 8.2 1.7 9.3 7.9 1.2 6.5 -2.9 11.4 -16.8 20 -2.9 1.8 -7.2 4.8 -9.5 6.7 -7.1 5.7 -14.1 7.7 -27.8 8.1 -8.2 0.2 -13.5 -0.1 -16.8 -1z"/>
  <path d="M1258.5 456.8 c-1.1 -0.6 -3.9 -2.8 -6.2 -4.8 -2.3 -2 -9.8 -6.2 -17 -9.4 -7.3 -3.3 -17.3 -8.8 -23.3 -12.9 -9.4 -6.4 -11.4 -8.4 -18.8 -18.2 -4.5 -6 -10 -14.6 -12.2 -19 -3.5 -7 -4.1 -9.4 -5.1 -19.1 -1 -10.4 -1 -11.4 0.9 -15.7 2.4 -5.5 5.2 -7.4 21.6 -14.6 17.6 -7.8 26.2 -13.6 29 -19.6 1.5 -3.1 1.5 -3.7 0.1 -6.4 -2 -3.9 -8.5 -7.6 -16.1 -9 -13.8 -2.6 -28.5 -10.3 -34.2 -18 -3.9 -5.3 -3 -7.5 5.2 -14 3.3 -2.7 9.5 -6.9 13.6 -9.4 7.8 -4.8 13 -10.9 13 -15.4 0 -3.7 -9.6 -12.6 -22.5 -20.7 -15.8 -9.9 -16.9 -10.8 -19.5 -16.2 -4.6 -9.5 -1.3 -20 10.6 -33.3 2.7 -3.2 6 -7.4 7.3 -9.4 4.1 -6.7 28.8 -36.8 32.3 -39.3 5.6 -4.2 8.1 -3.2 16.4 6.6 13 15.3 30.6 32.6 38.1 37.4 4 2.6 11.2 6.5 16 8.7 4.9 2.2 12.2 5.8 16.3 7.9 14.9 7.6 34.4 13 47 13 5.1 0 6.1 -0.3 7.8 -2.5 3.7 -4.7 5.5 -16.4 4.9 -31.5 -1.4 -33.8 -3.6 -44.2 -15.8 -74.3 -9.2 -22.8 -10.8 -25.7 -19.9 -35.2 -7.1 -7.3 -11 -13.5 -11 -17.2 0 -2.6 3.3 -4.7 6 -3.8 1.1 0.3 4.7 -0.1 8 -1.1 4.5 -1.3 6.7 -1.4 8.4 -0.6 3.3 1.5 31.9 35 38.3 45 7.5 11.6 18.2 30.9 22.7 41 2.1 4.6 5.1 10.5 6.7 13.1 3.2 5.1 14.1 34.8 16.5 44.8 3.1 13.4 8.2 48.5 9.1 62.3 1.1 20.2 0.9 30.6 -1.1 52.5 -2.7 29.5 -7 45.6 -19.2 71.8 -3.6 7.8 -7.4 16.7 -8.4 19.7 -2.1 6.8 -17.7 29.8 -21.7 32.2 -7.4 4.3 -27.5 10.8 -36.6 11.8 -10 1.2 -29.2 5.2 -36 7.6 -2.3 0.8 -7.3 2.4 -11.2 3.4 -3.8 1 -13.3 4.4 -20.9 7.4 -14.8 5.9 -15.9 6.2 -19.1 4.4z"/>
  <path d="M1411.3 401.3 c-1.9 -0.7 -1.6 -2.2 1.6 -8.3 1.5 -3 3.3 -7.6 4 -10.3 0.6 -2.6 3.4 -8.9 6.1 -14.1 2.8 -5.1 6.1 -12.5 7.5 -16.5 1.3 -4 3.3 -8.7 4.4 -10.4 1.4 -2.4 2.3 -7.2 3.6 -19.2 4 -39 4.2 -54.8 1.1 -89.4 -4.9 -53.9 -11.9 -76.2 -40.9 -130.9 -7.8 -14.6 -11.3 -19.9 -22.5 -34 -18.7 -23.5 -23.7 -30.9 -22.1 -32.8 2 -2.4 4.5 -3.4 12.7 -5.1 12.1 -2.4 32.3 -2.5 49.7 -0.3 8.3 1.1 18.7 2.5 23.2 3 14.6 1.9 22.7 4.6 39.4 13.1 8.8 4.5 16.5 8.9 17.1 9.7 0.7 0.8 1.1 3 0.9 5 -0.1 2.1 1.4 13.2 3.3 24.9 5.1 29.8 4.9 40.2 -1 88.6 -1.4 11.5 -3.2 22.7 -4 25 -0.8 2.3 -1.9 7.6 -2.5 11.7 -0.5 4.1 -2.1 12 -3.5 17.5 -1.4 5.5 -3.9 16.3 -5.4 24 -1.6 7.7 -5.4 21.7 -8.4 31 -3 9.4 -7.4 23 -9.7 30.3 -3.9 12.4 -6.9 18.5 -8.3 17.1 -0.4 -0.4 -0.9 -2.8 -1.2 -5.5 -0.5 -3.7 0.1 -7.5 2.1 -14.9 1.5 -5.5 3.6 -13.1 4.6 -17 2.7 -9.8 7.9 -39.1 7.9 -44.5 0 -2.5 0.9 -11.2 2 -19.5 2.9 -22.1 2.7 -29.6 -1.6 -67.5 -0.9 -7.4 -2.2 -16.6 -3 -20.5 -1.6 -7.8 -10.7 -36.2 -12.9 -40.6 -0.9 -1.6 -2.7 -6.1 -4.1 -10.1 -5 -13.7 -22.6 -47 -27.1 -51.1 -1.8 -1.6 -2.1 -1.6 -3.3 -0.2 -1 1.2 -1 2.3 0.4 6 1 2.5 2.2 4.7 2.7 5.1 1.6 0.9 11.3 20.9 17.2 35.5 5.8 14.1 17.6 51.8 19.5 62.4 2.1 11.1 4.2 30.9 4.8 44.5 0.7 15.5 -0.8 44.7 -3.1 60 -1.9 12.1 -7.9 39.1 -9.5 42 -0.6 1.1 -3.3 10.7 -6.1 21.2 -2.7 10.6 -5.6 20.2 -6.4 21.4 -0.7 1.1 -2.1 6 -3 10.9 -2.8 15.2 -12 40.6 -17.1 47.2 -2.7 3.6 -7.2 6.3 -9.1 5.6z"/>
  <path d="M1447 392.4 c0 -1.7 5.9 -11 9.7 -15.4 2.1 -2.5 6 -7.6 8.5 -11.5 2.6 -3.8 7.5 -10.1 11.1 -14 15.3 -16.9 30.9 -38.3 39.7 -54.7 6.7 -12.6 27.5 -54.7 31.2 -63.2 1.6 -3.8 5.7 -17.8 8.9 -31 3.3 -13.3 6.6 -25.8 7.4 -27.9 0.8 -2 1.5 -6.1 1.5 -9 0 -2.9 0.7 -10.9 1.5 -17.7 1.2 -9.3 2 -13 3.4 -14.3 1.8 -1.8 1.9 -1.8 4 1.1 1.1 1.6 2.9 5 4 7.4 2.8 6.6 8.2 33.9 8.8 44.8 0.6 9.5 -1.5 33.1 -3.9 43.5 -1.5 6.6 -13.9 33.4 -21.1 45.7 -3.1 5.3 -6.6 12 -7.8 15 -5 12.7 -29.6 43.9 -49.3 62.5 -11.1 10.5 -33.4 27.7 -40.6 31.3 -3.6 1.8 -7.7 4.1 -9.1 5.1 -2.9 2.1 -7.9 3.5 -7.9 2.3z"/>
  <path d="M1469.2 341.8 c-0.7 -0.7 -1.2 -2 -1.2 -3 0 -1 3.4 -12.7 7.6 -26 8 -25.5 15.5 -53.6 17.4 -65.3 0.6 -3.8 1.8 -9 2.6 -11.5 3 -9.6 11.4 -52.3 12.8 -65.6 4.3 -39.1 4.7 -45.5 3.6 -58.9 -0.6 -7.1 -1.9 -16.8 -3 -21.5 -3 -13.7 -3.6 -21.3 -1.6 -22.9 1.5 -1.2 2.5 -1.2 7.1 0.3 9.7 3 31.1 22 41.4 36.7 5.2 7.3 5.3 7.5 4.8 13.4 -4.5 53.3 -6.4 66 -14.4 93.5 -5.1 17.8 -7.1 22.4 -26.8 61.4 -17.6 35 -22.9 43.7 -34.6 57.2 -3.3 3.8 -7.3 8.4 -8.8 10.2 -3 3.4 -4.9 4 -6.9 2z"/>
  <path d="M1336.5 195.3 c-8.9 -2 -19.8 -6 -24 -8.8 -2.7 -1.9 -6.3 -3.7 -8 -4.1 -1.6 -0.4 -7.7 -3.2 -13.4 -6.3 -9.5 -5.1 -12.3 -7.4 -30.1 -24.3 -23.2 -22.1 -30 -30.2 -30 -36 0 -5.6 10.7 -18.4 22.9 -27.5 4.2 -3.1 10.1 -7.8 13.1 -10.3 12.3 -10.5 23.8 -17.7 31 -19.5 4.1 -1 7.5 -1.3 8.3 -0.8 2.7 1.4 21.6 19.4 24.4 22.9 1.4 1.9 4.5 8.9 6.8 15.7 2.4 6.7 6.3 17.2 8.8 23.2 6.3 15 7.7 24.2 7.7 48.6 0 10.8 -0.3 20.5 -0.6 21.5 -1.6 4.5 -4.5 6.4 -9.8 6.3 -2.8 -0.1 -6 -0.3 -7.1 -0.6z m-33.7 -50.1 c11.5 -5 15 -7.6 18.5 -14 3.7 -6.9 5.1 -14.7 3.8 -21.9 -0.9 -5.1 -1.7 -6.4 -6.3 -10.7 -8.7 -8.1 -11.9 -9.8 -19.8 -10.4 -6.4 -0.4 -7.6 -0.2 -13.4 2.7 -8.3 4 -16.6 12.9 -19.5 20.6 -2.7 7.3 -2.8 18.3 -0.2 24 2.3 5.1 5.3 7.8 12.7 11.5 7.6 3.8 11.8 3.5 24.2 -1.8z"/>
  <path d="M1917 1305 l0 -16 3.8 0 c8.6 0 14.2 6 14.2 15.5 0 9.3 -6.1 16.5 -14.1 16.5 l-3.9 0 0 -16z"/>
  <path d="M1992.5 1305.9 c0.4 -1.1 1.7 -5 2.9 -8.6 l2.2 -6.4 2.3 7.3 c1.3 4 2.6 7.9 2.8 8.6 0.4 0.9 -1 1.2 -5.2 1.2 -5.3 0 -5.6 -0.1 -5 -2.1z"/>
  <path d="M2191.9 1318.5 c-3.8 -2.1 -6 -6 -6.6 -11.8 -1.1 -10.4 4.7 -17.2 14 -16.4 7.2 0.6 11.7 6 11.7 14.1 0 11.5 -10.1 19 -19.1 14.1z"/>
 </g>
<g opacity="0.5" transform="rotate(-45, 1176.5, 860.5)">
  <text x="50%" y="50%" font-size="20" text-anchor="middle" fill="lightgray" dominant-baseline="middle">
    generated by vectorizer.io
  </text>
</g>
</svg>